<svg width="500" height="369" viewBox="0 0 500 369" fill="none" xmlns="http://www.w3.org/2000/svg">
<g clip-path="url(#clip0_570_5740)">
<path d="M449.9 343.54H416.78V343.79H449.9V343.54Z" fill="#EBEBEB"/>
<path d="M331.22 346.26H322.53V346.51H331.22V346.26Z" fill="#EBEBEB"/>
<path d="M415.78 334.26H396.59V334.51H415.78V334.26Z" fill="#EBEBEB"/>
<path d="M95.65 335.94H52.46V336.19H95.65V335.94Z" fill="#EBEBEB"/>
<path d="M110.89 335.94H104.56V336.19H110.89V335.94Z" fill="#EBEBEB"/>
<path d="M225.15 340.16H131.47V340.41H225.15V340.16Z" fill="#EBEBEB"/>
<path d="M237.01 282.85H43.92C40.77 282.85 38.21 280.29 38.21 277.14V5.71C38.21 2.56 40.77 0 43.92 0H237.02C240.17 0 242.73 2.56 242.73 5.71V277.14C242.73 280.29 240.17 282.85 237.02 282.85H237.01ZM43.92 0.25C40.91 0.25 38.46 2.7 38.46 5.71V277.14C38.46 280.15 40.91 282.6 43.92 282.6H237.02C240.03 282.6 242.48 280.15 242.48 277.14V5.71C242.48 2.7 240.03 0.25 237.02 0.25H43.92Z" fill="#EBEBEB"/>
<path d="M453.31 282.85H260.21C257.06 282.85 254.5 280.29 254.5 277.14V5.71C254.5 2.56 257.06 0 260.21 0H453.31C456.46 0 459.02 2.56 459.02 5.71V277.14C459.02 280.29 456.46 282.85 453.31 282.85ZM260.21 0.25C257.2 0.25 254.75 2.7 254.75 5.71V277.14C254.75 280.15 257.2 282.6 260.21 282.6H453.31C456.32 282.6 458.77 280.15 458.77 277.14V5.71C458.77 2.7 456.32 0.25 453.31 0.25H260.21Z" fill="#EBEBEB"/>
<path d="M500 327.45H0V327.7H500V327.45Z" fill="#EBEBEB"/>
<path d="M416.75 39.72H291.96V172.61H416.75V39.72Z" fill="#EBEBEB"/>
<path d="M409.25 47.22H299.46V165.11H409.25V47.22Z" fill="#F5F5F5"/>
<path d="M342.55 165.11H375.55L406.53 47.22H373.53L342.55 165.11Z" fill="#FAFAFA"/>
<path d="M358.2 47.22L327.22 165.11H335.22L366.2 47.22H358.2Z" fill="#FAFAFA"/>
<path d="M418.33 45.9699H290.38L287.68 39.6699H421.03L418.33 45.9699Z" fill="#F5F5F5"/>
<path d="M418.33 49.6201H290.38L287.68 43.3201H421.03L418.33 49.6201Z" fill="#F0F0F0"/>
<path d="M418.33 53.27H290.38L287.68 46.97H421.03L418.33 53.27Z" fill="#E6E6E6"/>
<path d="M418.33 56.9201H290.38L287.68 50.6201H421.03L418.33 56.9201Z" fill="#E0E0E0"/>
<path d="M425.68 31.78H283.03V40.18H425.68V31.78Z" fill="#E0E0E0"/>
<path d="M284.49 116.34C283.69 116.34 283.04 115.69 283.04 114.89V65.9C283.04 65.1 283.69 64.45 284.49 64.45C285.29 64.45 285.94 65.1 285.94 65.9V114.89C285.94 115.69 285.29 116.34 284.49 116.34Z" fill="#E0E0E0"/>
<path d="M285.01 38.49H283.96V67.59H285.01V38.49Z" fill="#E0E0E0"/>
<path d="M90.52 37.1401H88.72V177.51H90.52V37.1401Z" fill="#E0E0E0"/>
<path d="M202.57 37.1401H200.77V177.51H202.57V37.1401Z" fill="#E0E0E0"/>
<path d="M209.62 45.9699H81.67L78.97 39.6699H212.32L209.62 45.9699Z" fill="#F5F5F5"/>
<path d="M209.62 54.6201H81.67L78.97 48.3201H212.32L209.62 54.6201Z" fill="#F5F5F5"/>
<path d="M209.62 63.27H81.67L78.97 56.97H212.32L209.62 63.27Z" fill="#F5F5F5"/>
<path d="M209.62 71.9201H81.67L78.97 65.6201H212.32L209.62 71.9201Z" fill="#F5F5F5"/>
<path d="M209.62 80.57H81.67L78.97 74.27H212.32L209.62 80.57Z" fill="#F5F5F5"/>
<path d="M209.62 89.2199H81.67L78.97 82.9199H212.32L209.62 89.2199Z" fill="#F5F5F5"/>
<path d="M209.62 97.8701H81.67L78.97 91.5701H212.32L209.62 97.8701Z" fill="#F5F5F5"/>
<path d="M209.62 106.51H81.67L78.97 100.21H212.32L209.62 106.51Z" fill="#F5F5F5"/>
<path d="M209.62 115.16H81.67L78.97 108.86H212.32L209.62 115.16Z" fill="#F5F5F5"/>
<path d="M209.62 123.81H81.67L78.97 117.51H212.32L209.62 123.81Z" fill="#F5F5F5"/>
<path d="M209.62 132.46H81.67L78.97 126.16H212.32L209.62 132.46Z" fill="#F5F5F5"/>
<path d="M209.62 141.11H81.67L78.97 134.81H212.32L209.62 141.11Z" fill="#F5F5F5"/>
<path d="M209.62 149.76H81.67L78.97 143.46H212.32L209.62 149.76Z" fill="#F5F5F5"/>
<path d="M209.62 158.41H81.67L78.97 152.11H212.32L209.62 158.41Z" fill="#F5F5F5"/>
<path d="M209.62 167.06H81.67L78.97 160.76H212.32L209.62 167.06Z" fill="#F5F5F5"/>
<path d="M209.62 175.71H81.67L78.97 169.41H212.32L209.62 175.71Z" fill="#F5F5F5"/>
<path d="M212.32 175.71H78.97V179.31H212.32V175.71Z" fill="#E0E0E0"/>
<path d="M216.97 31.78H74.32V40.18H216.97V31.78Z" fill="#E0E0E0"/>
<path d="M75.79 116.34C74.99 116.34 74.34 115.69 74.34 114.89V65.9C74.34 65.1 74.99 64.45 75.79 64.45C76.59 64.45 77.24 65.1 77.24 65.9V114.89C77.24 115.69 76.59 116.34 75.79 116.34Z" fill="#E0E0E0"/>
<path d="M76.31 38.49H75.26V67.59H76.31V38.49Z" fill="#E0E0E0"/>
<path d="M89.32 267.42C89.2 267.56 89.87 268.5 87.13 268.08C80.38 267.07 68.63 264.33 65.36 257.39C60.69 247.48 75.17 251.1 74.67 246.03C74.17 240.96 57.69 241.85 55.94 234.41C54.19 226.98 65.37 230.52 65.52 226.89C65.67 223.27 52.79 225.52 50.23 217.5C47.67 209.48 57.41 215.38 56.29 212.05C55.17 208.72 44.28 193.63 50.2 191.88C56.13 190.13 66.12 205.61 69.97 207.8C73.82 209.99 77.25 197.36 81.84 202.69C86.43 208.02 79.15 226.68 85.01 230.3C89.37 233 88.14 225.57 93.9 226.95C101.72 228.83 99.09 256.46 89.31 267.4L89.32 267.42Z" fill="#EBEBEB"/>
<path d="M68.49 226.94C71.14 227.16 73.1 227.7 74.32 228.14C71.94 224.66 70.23 222.87 70.17 222.81C69.98 222.61 69.98 222.3 70.17 222.1C70.37 221.91 70.68 221.91 70.88 222.1C70.93 222.15 74.87 226.21 79.19 234.16C81.31 221.37 75.96 210.2 75.9 210.08C75.81 209.89 75.89 209.67 76.07 209.58C76.25 209.49 76.48 209.57 76.57 209.75C76.63 209.87 82.35 221.8 79.75 235.22C80.44 236.54 81.14 237.94 81.82 239.46C83.8 243.83 85.88 249.43 87.52 256.17C88.66 254.11 91.27 248.6 91.5 240.91C91.5 240.7 91.68 240.54 91.89 240.55C92.1 240.56 92.26 240.73 92.25 240.94C91.98 249.84 88.57 255.93 87.78 257.23C89.95 266.59 91.25 278.11 90.32 291.69C90.3 291.97 90.06 292.17 89.79 292.15C89.77 292.15 89.75 292.15 89.73 292.15C89.49 292.1 89.31 291.88 89.33 291.63C90.57 273.66 87.88 259.21 84.16 248.27C83.22 247.18 80.43 244.38 76.18 243.72C75.99 243.67 75.84 243.5 75.87 243.29C75.9 243.09 76.09 242.95 76.3 242.98C79.66 243.51 82.12 245.25 83.58 246.6C80.84 239 77.64 233.22 75.05 229.27C74.22 228.89 71.94 228.01 68.42 227.71C68.22 227.68 68.06 227.51 68.08 227.3C68.1 227.09 68.28 226.94 68.48 226.96L68.49 226.94Z" fill="#F5F5F5"/>
<path d="M97.96 271.25C103.57 271.36 113.15 266.15 116.91 261.08C120.73 255.94 109.99 259.13 111.09 255.09C112.19 251.05 125.43 254.04 127.87 248.25C130.31 242.47 120.76 243.8 121.14 240.84C121.52 237.88 131.41 238.48 134.59 232.34C137.77 226.19 129.06 229.64 130.43 227.09C131.8 224.54 142.7 213.82 138.14 211.59C133.58 209.35 123.35 220.52 119.93 221.77C116.5 223.02 115.7 215.3 111.25 218.99C106.79 222.68 110.13 238.8 104.88 240.93C100.97 242.51 102.63 235.13 98.14 236.99C90.26 240.25 95.69 271.2 97.97 271.24L97.96 271.25Z" fill="#E0E0E0"/>
<g opacity="0.3">
<path d="M97.96 271.25C103.57 271.36 113.15 266.15 116.91 261.08C120.73 255.94 109.99 259.13 111.09 255.09C112.19 251.05 125.43 254.04 127.87 248.25C130.31 242.47 120.76 243.8 121.14 240.84C121.52 237.88 131.41 238.48 134.59 232.34C137.77 226.19 129.06 229.64 130.43 227.09C131.8 224.54 142.7 213.82 138.14 211.59C133.58 209.35 123.35 220.52 119.93 221.77C116.5 223.02 115.7 215.3 111.25 218.99C106.79 222.68 110.13 238.8 104.88 240.93C100.97 242.51 102.63 235.13 98.14 236.99C90.26 240.25 95.69 271.2 97.97 271.24L97.96 271.25Z" fill="#E0E0E0"/>
</g>
<path d="M99.82 264.52C99.74 264.49 99.67 264.44 99.62 264.36C99.49 264.11 96.42 258.16 97.1 249.33C97.12 249.12 97.29 248.97 97.5 248.99C97.71 249.01 97.86 249.19 97.84 249.39C97.26 256.85 99.49 262.31 100.11 263.68C102.62 256.86 105.63 250.8 108.65 245.61C107.66 233.57 113.83 223.71 113.89 223.61C114 223.44 114.23 223.38 114.41 223.49C114.58 223.6 114.64 223.83 114.53 224.01C114.47 224.1 108.8 233.17 109.33 244.45C116.52 232.41 123.53 225.42 123.67 225.28C123.87 225.09 124.18 225.09 124.38 225.28C124.57 225.48 124.57 225.79 124.38 225.99C124.26 226.11 119.27 231.09 113.44 239.83C116.86 238.56 120.57 237.9 124.04 237.96C124.25 237.96 124.41 238.13 124.41 238.34C124.41 238.54 124.24 238.71 124.03 238.71C120.32 238.64 116.32 239.42 112.72 240.91C110.71 243.99 108.63 247.51 106.62 251.4C108.55 250.1 112.29 248.29 117.08 249.56C117.28 249.61 117.4 249.82 117.35 250.02C117.3 250.22 117.09 250.34 116.89 250.29C110.81 248.69 106.53 252.32 105.83 252.96C100.33 264.03 95.59 278.03 94.96 294.07C94.95 294.34 94.73 294.55 94.46 294.55H94.44C94.16 294.54 93.95 294.31 93.96 294.03C94.39 283.17 96.68 273.25 99.82 264.51V264.52Z" fill="#F5F5F5"/>
<path d="M82.19 326.03C76.84 315.96 73.32 301.42 73.32 295.05C73.32 289.66 75.85 284.83 79.86 281.44H107.27C111.28 284.83 113.81 289.66 113.81 295.05C113.81 301.42 110.29 315.97 104.94 326.03H82.2H82.19Z" fill="#F0F0F0"/>
<path d="M245.18 368.76C352.262 368.76 439.07 363.692 439.07 357.44C439.07 351.188 352.262 346.12 245.18 346.12C138.098 346.12 51.29 351.188 51.29 357.44C51.29 363.692 138.098 368.76 245.18 368.76Z" fill="#F5F5F5"/>
<path d="M292.65 64.6899H268.67C267.1 64.6899 265.67 65.8599 265.34 67.4199L265.18 68.1699C264.36 71.9799 260.87 74.8299 257.04 74.8299H234.24C230.4 74.8299 227.42 71.9799 227.26 68.1699L227.23 67.4199C227.17 65.8599 225.94 64.6899 224.37 64.6899H200.39C192.39 64.6899 185.34 71.1699 184.64 79.1699L165.35 299.71C164.65 307.71 170.57 314.19 178.57 314.19H270.84C278.84 314.19 285.89 307.71 286.59 299.71L305.88 79.1699C306.58 71.1699 300.66 64.6899 292.66 64.6899H292.65Z" fill="#39D0FF"/>
<path opacity="0.7" d="M292.65 64.6899H268.67C267.1 64.6899 265.67 65.8599 265.34 67.4199L265.18 68.1699C264.36 71.9799 260.87 74.8299 257.04 74.8299H234.24C230.4 74.8299 227.42 71.9799 227.26 68.1699L227.23 67.4199C227.17 65.8599 225.94 64.6899 224.37 64.6899H200.39C192.39 64.6899 185.34 71.1699 184.64 79.1699L165.35 299.71C164.65 307.71 170.57 314.19 178.57 314.19H270.84C278.84 314.19 285.89 307.71 286.59 299.71L305.88 79.1699C306.58 71.1699 300.66 64.6899 292.66 64.6899H292.65Z" fill="white"/>
<path d="M283.3 166.12H234.31C232.53 166.12 231.22 164.68 231.37 162.9L235.06 120.71C235.22 118.93 236.78 117.49 238.56 117.49H287.55C289.33 117.49 290.64 118.93 290.49 120.71L286.8 162.9C286.64 164.68 285.08 166.12 283.3 166.12Z" fill="white"/>
<path d="M266.98 298.04H184.99C180.58 298.04 177.31 294.46 177.7 290.05C178.09 285.64 181.98 282.06 186.39 282.06H268.38C272.79 282.06 276.06 285.64 275.67 290.05C275.28 294.46 271.39 298.04 266.98 298.04Z" fill="white"/>
<path d="M273.53 105.9H198.3C195.82 105.9 193.99 103.89 194.21 101.41L194.82 94.3999C195.04 91.9199 197.22 89.9099 199.7 89.9099H274.93C277.41 89.9099 279.24 91.9199 279.02 94.3999L278.41 101.41C278.19 103.89 276.01 105.9 273.53 105.9Z" fill="white"/>
<path d="M288.83 94.1699C288.77 94.8599 288.16 95.4199 287.47 95.4199C286.78 95.4199 286.27 94.8599 286.33 94.1699C286.39 93.4799 287 92.9199 287.69 92.9199C288.38 92.9199 288.89 93.4799 288.83 94.1699Z" fill="white"/>
<path d="M288.5 97.9099C288.44 98.5999 287.83 99.1599 287.14 99.1599C286.45 99.1599 285.94 98.5999 286 97.9099C286.06 97.2199 286.67 96.6599 287.36 96.6599C288.05 96.6599 288.56 97.2199 288.5 97.9099Z" fill="white"/>
<path d="M288.18 101.64C288.12 102.33 287.51 102.89 286.82 102.89C286.13 102.89 285.62 102.33 285.68 101.64C285.74 100.95 286.35 100.39 287.04 100.39C287.73 100.39 288.24 100.95 288.18 101.64Z" fill="white"/>
<path d="M277.21 235.73H185.68C183.9 235.73 182.59 234.29 182.74 232.51L186.95 184.35C187.11 182.57 188.67 181.13 190.45 181.13H281.98C283.76 181.13 285.07 182.57 284.92 184.35L280.71 232.51C280.55 234.29 278.99 235.73 277.21 235.73Z" fill="white"/>
<path d="M210.86 245.79H182.36C181.93 245.79 181.6 245.44 181.64 245C181.68 244.57 182.06 244.21 182.49 244.21H210.99C211.42 244.21 211.75 244.56 211.71 245C211.67 245.43 211.29 245.79 210.86 245.79Z" fill="white"/>
<path d="M246.48 245.79H215.89C215.46 245.79 215.13 245.44 215.17 245C215.21 244.57 215.59 244.21 216.02 244.21H246.61C247.04 244.21 247.37 244.56 247.33 245C247.29 245.43 246.91 245.79 246.48 245.79Z" fill="white"/>
<path d="M201.03 252.73H181.75C181.32 252.73 180.99 252.38 181.03 251.94C181.07 251.51 181.45 251.15 181.89 251.15H201.17C201.6 251.15 201.93 251.5 201.89 251.94C201.85 252.37 201.47 252.73 201.03 252.73Z" fill="white"/>
<path d="M237.64 252.73H206.06C205.63 252.73 205.3 252.38 205.34 251.94C205.38 251.51 205.76 251.15 206.19 251.15H237.77C238.2 251.15 238.53 251.5 238.49 251.94C238.45 252.37 238.07 252.73 237.64 252.73Z" fill="white"/>
<path d="M232.54 259.68H181.15C180.72 259.68 180.39 259.33 180.43 258.89C180.47 258.46 180.85 258.1 181.29 258.1H232.68C233.11 258.1 233.44 258.45 233.4 258.89C233.36 259.32 232.98 259.68 232.55 259.68H232.54Z" fill="white"/>
<path d="M240.96 259.68H237.57C237.14 259.68 236.81 259.33 236.85 258.89C236.89 258.46 237.27 258.1 237.7 258.1H241.09C241.52 258.1 241.85 258.45 241.81 258.89C241.77 259.32 241.39 259.68 240.96 259.68Z" fill="white"/>
<path d="M204.53 266.62H180.54C180.11 266.62 179.78 266.27 179.82 265.83C179.86 265.4 180.24 265.04 180.67 265.04H204.66C205.09 265.04 205.42 265.39 205.38 265.83C205.34 266.26 204.96 266.62 204.53 266.62Z" fill="white"/>
<path d="M239.44 266.62H209.57C209.14 266.62 208.81 266.27 208.85 265.83C208.89 265.4 209.27 265.04 209.71 265.04H239.58C240.01 265.04 240.34 265.39 240.3 265.83C240.26 266.26 239.88 266.62 239.45 266.62H239.44Z" fill="white"/>
<path d="M209.48 273.57H179.94C179.51 273.57 179.18 273.22 179.22 272.78C179.26 272.35 179.64 271.99 180.07 271.99H209.61C210.04 271.99 210.37 272.34 210.33 272.78C210.29 273.21 209.91 273.57 209.47 273.57H209.48Z" fill="white"/>
<path d="M238.3 273.57H214.5C214.07 273.57 213.74 273.22 213.78 272.78C213.82 272.35 214.2 271.99 214.63 271.99H238.43C238.86 271.99 239.19 272.34 239.15 272.78C239.11 273.21 238.73 273.57 238.3 273.57Z" fill="white"/>
<path d="M282.14 162.13C281.74 162.54 281.1 162.58 280.72 162.22L239.79 123.16C239.41 122.79 239.42 122.16 239.82 121.75C240.22 121.34 240.86 121.3 241.24 121.66L282.17 160.72C282.55 161.09 282.54 161.72 282.14 162.13Z" fill="#39D0FF"/>
<path d="M236.17 162.11C235.84 161.7 235.94 161.06 236.38 160.7L257.26 143.63C257.71 143.26 258.33 143.31 258.66 143.72C258.99 144.13 258.89 144.77 258.45 145.13L237.57 162.2C237.12 162.57 236.5 162.53 236.17 162.11Z" fill="#39D0FF"/>
<path d="M263.15 140.05C262.82 139.64 262.92 139 263.36 138.64L284.28 121.54C284.73 121.17 285.35 121.21 285.68 121.63C286.01 122.04 285.91 122.68 285.47 123.04L264.55 140.14C264.1 140.51 263.48 140.47 263.15 140.05Z" fill="#39D0FF"/>
<g opacity="0.7">
<path d="M282.14 162.13C281.74 162.54 281.1 162.58 280.72 162.22L239.79 123.16C239.41 122.79 239.42 122.16 239.82 121.75C240.22 121.34 240.86 121.3 241.24 121.66L282.17 160.72C282.55 161.09 282.54 161.72 282.14 162.13Z" fill="white"/>
</g>
<g opacity="0.7">
<path d="M236.17 162.11C235.84 161.7 235.94 161.06 236.38 160.7L257.26 143.63C257.71 143.26 258.33 143.31 258.66 143.72C258.99 144.13 258.89 144.77 258.45 145.13L237.57 162.2C237.12 162.57 236.5 162.53 236.17 162.11Z" fill="white"/>
</g>
<g opacity="0.7">
<path d="M263.15 140.05C262.82 139.64 262.92 139 263.36 138.64L284.28 121.54C284.73 121.17 285.35 121.21 285.68 121.63C286.01 122.04 285.91 122.68 285.47 123.04L264.55 140.14C264.1 140.51 263.48 140.47 263.15 140.05Z" fill="white"/>
</g>
<path d="M165.74 59.8899H152.79C150.16 59.8899 148.03 62.0199 148.03 64.6499V77.5999C148.03 80.2299 150.16 82.3599 152.79 82.3599H165.74C168.37 82.3599 170.5 80.2299 170.5 77.5999V64.6499C170.5 62.0199 168.37 59.8899 165.74 59.8899ZM159.27 64.4899C161.22 64.4899 162.28 66.0699 162.28 68.0299C162.28 69.9899 161.23 71.5699 159.27 71.5699C157.31 71.5699 156.26 69.9899 156.26 68.0299C156.26 66.0699 157.31 64.4899 159.27 64.4899ZM167.08 77.7599H151.44C151.31 77.7599 151.19 77.7099 151.11 77.6199L152.11 74.8799C152.76 73.1199 154.43 71.9499 156.31 71.9499H162.21C164.09 71.9499 165.76 73.1199 166.41 74.8799L167.41 77.6199C167.32 77.7099 167.21 77.7599 167.08 77.7599Z" fill="#39D0FF"/>
<path opacity="0.7" d="M165.74 59.8899H152.79C150.16 59.8899 148.03 62.0199 148.03 64.6499V77.5999C148.03 80.2299 150.16 82.3599 152.79 82.3599H165.74C168.37 82.3599 170.5 80.2299 170.5 77.5999V64.6499C170.5 62.0199 168.37 59.8899 165.74 59.8899ZM159.27 64.4899C161.22 64.4899 162.28 66.0699 162.28 68.0299C162.28 69.9899 161.23 71.5699 159.27 71.5699C157.31 71.5699 156.26 69.9899 156.26 68.0299C156.26 66.0699 157.31 64.4899 159.27 64.4899ZM167.08 77.7599H151.44C151.31 77.7599 151.19 77.7099 151.11 77.6199L152.11 74.8799C152.76 73.1199 154.43 71.9499 156.31 71.9499H162.21C164.09 71.9499 165.76 73.1199 166.41 74.8799L167.41 77.6199C167.32 77.7099 167.21 77.7599 167.08 77.7599Z" fill="white"/>
<path d="M119.66 113.16H109.82C106.28 113.16 103.41 116.03 103.41 119.57V129.41C103.41 132.95 106.28 135.82 109.82 135.82H119.66C123.2 135.82 126.07 132.95 126.07 129.41V119.57C126.07 116.03 123.2 113.16 119.66 113.16ZM114.74 129.86C114.74 129.86 110.7 125.46 110.7 123.23C110.7 121 112.51 119.19 114.74 119.19C116.97 119.19 118.78 121 118.78 123.23C118.78 125.46 114.74 129.86 114.74 129.86Z" fill="#39D0FF"/>
<path d="M114.74 121.39C113.72 121.39 112.9 122.22 112.9 123.24C112.9 124.26 113.73 125.09 114.74 125.09C115.75 125.09 116.59 124.26 116.59 123.24C116.59 122.22 115.76 121.39 114.74 121.39Z" fill="#39D0FF"/>
<g opacity="0.7">
<path d="M119.66 113.16H109.82C106.28 113.16 103.41 116.03 103.41 119.57V129.41C103.41 132.95 106.28 135.82 109.82 135.82H119.66C123.2 135.82 126.07 132.95 126.07 129.41V119.57C126.07 116.03 123.2 113.16 119.66 113.16ZM114.74 129.86C114.74 129.86 110.7 125.46 110.7 123.23C110.7 121 112.51 119.19 114.74 119.19C116.97 119.19 118.78 121 118.78 123.23C118.78 125.46 114.74 129.86 114.74 129.86Z" fill="white"/>
<path d="M114.74 121.39C113.72 121.39 112.9 122.22 112.9 123.24C112.9 124.26 113.73 125.09 114.74 125.09C115.75 125.09 116.59 124.26 116.59 123.24C116.59 122.22 115.76 121.39 114.74 121.39Z" fill="white"/>
</g>
<path d="M335.7 85.28L342.29 81.01L335.7 76.75V85.28Z" fill="#39D0FF"/>
<path d="M344.19 69.3899H331.63C328.67 69.3899 326.28 71.7899 326.28 74.7399V87.2999C326.28 90.2599 328.68 92.6499 331.63 92.6499H344.19C347.15 92.6499 349.54 90.2499 349.54 87.2999V74.7399C349.54 71.7799 347.14 69.3899 344.19 69.3899ZM337.91 89.3799C333.29 89.3799 329.55 85.6299 329.55 81.0199C329.55 76.3999 333.3 72.6599 337.91 72.6599C342.52 72.6599 346.27 76.4099 346.27 81.0199C346.27 85.6399 342.53 89.3799 337.91 89.3799Z" fill="#39D0FF"/>
<g opacity="0.7">
<path d="M335.7 85.28L342.29 81.01L335.7 76.75V85.28Z" fill="white"/>
<path d="M344.19 69.3899H331.63C328.67 69.3899 326.28 71.7899 326.28 74.7399V87.2999C326.28 90.2599 328.68 92.6499 331.63 92.6499H344.19C347.15 92.6499 349.54 90.2499 349.54 87.2999V74.7399C349.54 71.7799 347.14 69.3899 344.19 69.3899ZM337.91 89.3799C333.29 89.3799 329.55 85.6299 329.55 81.0199C329.55 76.3999 333.3 72.6599 337.91 72.6599C342.52 72.6599 346.27 76.4099 346.27 81.0199C346.27 85.6399 342.53 89.3799 337.91 89.3799Z" fill="white"/>
</g>
<path d="M356.52 117.56C356.52 117.3 356.51 117.04 356.48 116.79L357.99 115.95C357.88 115.22 357.69 114.52 357.43 113.86L355.71 113.89C355.49 113.42 355.23 112.98 354.94 112.56L355.83 111.08C355.37 110.52 354.86 110 354.3 109.55L352.82 110.44C352.4 110.15 351.96 109.89 351.49 109.67L351.52 107.95C350.85 107.69 350.15 107.5 349.43 107.39L348.59 108.9C348.34 108.88 348.08 108.86 347.82 108.86C347.56 108.86 347.3 108.87 347.05 108.9L346.21 107.39C345.48 107.5 344.78 107.69 344.12 107.95L344.15 109.67C343.68 109.89 343.24 110.15 342.82 110.44L341.34 109.55C340.78 110.01 340.26 110.52 339.81 111.08L340.7 112.56C340.41 112.98 340.15 113.42 339.93 113.89L338.21 113.86C337.95 114.53 337.76 115.23 337.65 115.95L339.16 116.79C339.14 117.04 339.12 117.3 339.12 117.56C339.12 117.82 339.13 118.08 339.16 118.33L337.65 119.17C337.76 119.9 337.95 120.6 338.21 121.26L339.93 121.23C340.15 121.7 340.41 122.14 340.7 122.56L339.81 124.04C340.27 124.6 340.78 125.12 341.34 125.57L342.82 124.68C343.24 124.97 343.68 125.23 344.15 125.45L344.12 127.17C344.79 127.43 345.49 127.62 346.21 127.73L347.05 126.22C347.3 126.24 347.56 126.26 347.82 126.26C348.08 126.26 348.34 126.25 348.59 126.22L349.43 127.73C350.16 127.62 350.86 127.43 351.52 127.17L351.49 125.45C351.96 125.23 352.4 124.97 352.82 124.68L354.3 125.57C354.86 125.11 355.38 124.6 355.83 124.04L354.94 122.56C355.23 122.14 355.49 121.7 355.71 121.23L357.43 121.26C357.69 120.59 357.88 119.89 357.99 119.17L356.48 118.33C356.5 118.08 356.52 117.82 356.52 117.56ZM347.8 123.47C344.53 123.47 341.88 120.82 341.88 117.55C341.88 114.28 344.53 111.63 347.8 111.63C351.07 111.63 353.72 114.28 353.72 117.55C353.72 120.82 351.07 123.47 347.8 123.47Z" fill="#39D0FF"/>
<path opacity="0.7" d="M356.52 117.56C356.52 117.3 356.51 117.04 356.48 116.79L357.99 115.95C357.88 115.22 357.69 114.52 357.43 113.86L355.71 113.89C355.49 113.42 355.23 112.98 354.94 112.56L355.83 111.08C355.37 110.52 354.86 110 354.3 109.55L352.82 110.44C352.4 110.15 351.96 109.89 351.49 109.67L351.52 107.95C350.85 107.69 350.15 107.5 349.43 107.39L348.59 108.9C348.34 108.88 348.08 108.86 347.82 108.86C347.56 108.86 347.3 108.87 347.05 108.9L346.21 107.39C345.48 107.5 344.78 107.69 344.12 107.95L344.15 109.67C343.68 109.89 343.24 110.15 342.82 110.44L341.34 109.55C340.78 110.01 340.26 110.52 339.81 111.08L340.7 112.56C340.41 112.98 340.15 113.42 339.93 113.89L338.21 113.86C337.95 114.53 337.76 115.23 337.65 115.95L339.16 116.79C339.14 117.04 339.12 117.3 339.12 117.56C339.12 117.82 339.13 118.08 339.16 118.33L337.65 119.17C337.76 119.9 337.95 120.6 338.21 121.26L339.93 121.23C340.15 121.7 340.41 122.14 340.7 122.56L339.81 124.04C340.27 124.6 340.78 125.12 341.34 125.57L342.82 124.68C343.24 124.97 343.68 125.23 344.15 125.45L344.12 127.17C344.79 127.43 345.49 127.62 346.21 127.73L347.05 126.22C347.3 126.24 347.56 126.26 347.82 126.26C348.08 126.26 348.34 126.25 348.59 126.22L349.43 127.73C350.16 127.62 350.86 127.43 351.52 127.17L351.49 125.45C351.96 125.23 352.4 124.97 352.82 124.68L354.3 125.57C354.86 125.11 355.38 124.6 355.83 124.04L354.94 122.56C355.23 122.14 355.49 121.7 355.71 121.23L357.43 121.26C357.69 120.59 357.88 119.89 357.99 119.17L356.48 118.33C356.5 118.08 356.52 117.82 356.52 117.56ZM347.8 123.47C344.53 123.47 341.88 120.82 341.88 117.55C341.88 114.28 344.53 111.63 347.8 111.63C351.07 111.63 353.72 114.28 353.72 117.55C353.72 120.82 351.07 123.47 347.8 123.47Z" fill="white"/>
<path d="M333.73 147.29C333.73 146.9 333.71 146.52 333.68 146.14L335.94 144.89C335.77 143.8 335.48 142.76 335.1 141.76L332.52 141.8C332.19 141.1 331.81 140.43 331.37 139.81L332.7 137.6C332.02 136.76 331.25 135.99 330.41 135.31L328.2 136.64C327.57 136.2 326.91 135.81 326.21 135.49L326.25 132.91C325.25 132.53 324.2 132.24 323.12 132.07L321.87 134.33C321.49 134.3 321.11 134.28 320.72 134.28C320.33 134.28 319.95 134.3 319.57 134.33L318.32 132.07C317.23 132.24 316.19 132.53 315.19 132.91L315.23 135.49C314.53 135.82 313.86 136.2 313.24 136.64L311.03 135.31C310.19 135.99 309.42 136.76 308.74 137.6L310.07 139.81C309.63 140.44 309.24 141.1 308.92 141.8L306.34 141.76C305.96 142.76 305.67 143.81 305.5 144.89L307.76 146.14C307.73 146.52 307.71 146.9 307.71 147.29C307.71 147.68 307.73 148.06 307.76 148.44L305.5 149.69C305.67 150.78 305.96 151.82 306.34 152.82L308.92 152.78C309.25 153.48 309.63 154.15 310.07 154.77L308.74 156.98C309.42 157.82 310.19 158.59 311.03 159.27L313.24 157.94C313.87 158.38 314.53 158.77 315.23 159.09L315.19 161.67C316.19 162.05 317.24 162.34 318.32 162.51L319.57 160.25C319.95 160.28 320.33 160.3 320.72 160.3C321.11 160.3 321.49 160.28 321.87 160.25L323.12 162.51C324.21 162.34 325.25 162.05 326.25 161.67L326.21 159.09C326.91 158.76 327.58 158.38 328.2 157.94L330.41 159.27C331.25 158.59 332.02 157.82 332.7 156.98L331.37 154.77C331.81 154.14 332.2 153.48 332.52 152.78L335.1 152.82C335.48 151.82 335.77 150.78 335.94 149.69L333.68 148.44C333.71 148.06 333.73 147.68 333.73 147.29ZM320.7 152.43C317.86 152.43 315.56 150.13 315.56 147.29C315.56 144.45 317.86 142.15 320.7 142.15C323.54 142.15 325.84 144.45 325.84 147.29C325.84 150.13 323.54 152.43 320.7 152.43Z" fill="#39D0FF"/>
<path opacity="0.7" d="M333.73 147.29C333.73 146.9 333.71 146.52 333.68 146.14L335.94 144.89C335.77 143.8 335.48 142.76 335.1 141.76L332.52 141.8C332.19 141.1 331.81 140.43 331.37 139.81L332.7 137.6C332.02 136.76 331.25 135.99 330.41 135.31L328.2 136.64C327.57 136.2 326.91 135.81 326.21 135.49L326.25 132.91C325.25 132.53 324.2 132.24 323.12 132.07L321.87 134.33C321.49 134.3 321.11 134.28 320.72 134.28C320.33 134.28 319.95 134.3 319.57 134.33L318.32 132.07C317.23 132.24 316.19 132.53 315.19 132.91L315.23 135.49C314.53 135.82 313.86 136.2 313.24 136.64L311.03 135.31C310.19 135.99 309.42 136.76 308.74 137.6L310.07 139.81C309.63 140.44 309.24 141.1 308.92 141.8L306.34 141.76C305.96 142.76 305.67 143.81 305.5 144.89L307.76 146.14C307.73 146.52 307.71 146.9 307.71 147.29C307.71 147.68 307.73 148.06 307.76 148.44L305.5 149.69C305.67 150.78 305.96 151.82 306.34 152.82L308.92 152.78C309.25 153.48 309.63 154.15 310.07 154.77L308.74 156.98C309.42 157.82 310.19 158.59 311.03 159.27L313.24 157.94C313.87 158.38 314.53 158.77 315.23 159.09L315.19 161.67C316.19 162.05 317.24 162.34 318.32 162.51L319.57 160.25C319.95 160.28 320.33 160.3 320.72 160.3C321.11 160.3 321.49 160.28 321.87 160.25L323.12 162.51C324.21 162.34 325.25 162.05 326.25 161.67L326.21 159.09C326.91 158.76 327.58 158.38 328.2 157.94L330.41 159.27C331.25 158.59 332.02 157.82 332.7 156.98L331.37 154.77C331.81 154.14 332.2 153.48 332.52 152.78L335.1 152.82C335.48 151.82 335.77 150.78 335.94 149.69L333.68 148.44C333.71 148.06 333.73 147.68 333.73 147.29ZM320.7 152.43C317.86 152.43 315.56 150.13 315.56 147.29C315.56 144.45 317.86 142.15 320.7 142.15C323.54 142.15 325.84 144.45 325.84 147.29C325.84 150.13 323.54 152.43 320.7 152.43Z" fill="white"/>
<path d="M296.97 89.3099V94.5499L291.98 97.1799C291.12 97.6399 291.12 98.8699 291.98 99.3299L296.97 101.96V107.2C296.97 108.37 297.92 109.32 299.09 109.32H316.98C318.15 109.32 319.1 108.37 319.1 107.2V89.3099C319.1 88.1399 318.15 87.1899 316.98 87.1899H299.09C297.92 87.1899 296.97 88.1399 296.97 89.3099Z" fill="#39D0FF"/>
<g opacity="0.9">
<path d="M303.12 94.76H313.28C313.97 94.76 314.53 94.2 314.53 93.51C314.53 92.82 313.97 92.26 313.28 92.26H303.12C302.43 92.26 301.87 92.82 301.87 93.51C301.87 94.2 302.43 94.76 303.12 94.76Z" fill="white"/>
<path d="M313.29 97H303.13C302.44 97 301.88 97.56 301.88 98.25C301.88 98.94 302.44 99.5 303.13 99.5H313.29C313.98 99.5 314.54 98.94 314.54 98.25C314.54 97.56 313.98 97 313.29 97Z" fill="white"/>
<path d="M313.29 101.74H303.13C302.44 101.74 301.88 102.3 301.88 102.99C301.88 103.68 302.44 104.24 303.13 104.24H313.29C313.98 104.24 314.54 103.68 314.54 102.99C314.54 102.3 313.98 101.74 313.29 101.74Z" fill="white"/>
</g>
<path d="M195.9 81.08H200.17L202.37 85.25C203.01 86.46 204.74 86.46 205.37 85.25L207.57 81.08H211.84C213.54 81.08 214.92 79.7 214.92 78V62.05C214.92 60.35 213.54 58.97 211.84 58.97H195.89C194.19 58.97 192.81 60.35 192.81 62.05V78C192.81 79.7 194.19 81.08 195.89 81.08H195.9Z" fill="#39D0FF"/>
<path opacity="0.9" d="M203.88 63.73L198.96 66.62V75.04H202.62V69.38H205.15V75.04H208.81V66.62L203.88 63.73Z" fill="white"/>
<path d="M243.8 309.84H239.95L237.49 305.18C236.96 304.18 235.52 304.18 234.99 305.18L232.53 309.84H228.68C226.74 309.84 225.17 311.41 225.17 313.35V328.45C225.17 330.39 226.74 331.96 228.68 331.96H243.78C245.72 331.96 247.29 330.39 247.29 328.45V313.35C247.29 311.41 245.72 309.84 243.78 309.84H243.8Z" fill="#39D0FF"/>
<path opacity="0.9" d="M238.39 315.6C236.26 313.47 232.79 313.47 230.67 315.6C228.54 317.73 228.54 321.19 230.67 323.32C232.56 325.21 235.5 325.42 237.62 323.96C237.66 324.2 237.77 324.44 237.96 324.63L241.35 328.02C241.83 328.5 242.6 328.5 243.08 328.02C243.56 327.54 243.56 326.77 243.08 326.29L239.69 322.9C239.5 322.71 239.27 322.6 239.02 322.56C240.48 320.43 240.27 317.5 238.38 315.61L238.39 315.6ZM237.23 322.17C235.74 323.66 233.31 323.66 231.82 322.17C230.33 320.68 230.33 318.25 231.82 316.75C233.31 315.26 235.74 315.26 237.24 316.75C238.74 318.24 238.73 320.67 237.24 322.17H237.23Z" fill="white"/>
<path d="M405.29 209.28C405.29 209.28 397.14 229.48 389.16 231.67C381.18 233.86 369.15 232.08 369.15 232.08L365.43 233.1L361.78 232.56C361.78 232.56 361.7 232.56 361.65 232.55L357.53 232.46C356.83 232.44 356.44 231.76 356.83 231.22L358.31 229.18C358.43 229.02 358.6 228.9 358.8 228.83L362.72 227.57C362.87 227.52 363.04 227.51 363.2 227.53L369.19 228.48C369.19 228.48 385.84 225.75 387.54 224.21C389.23 222.67 394.25 206.52 394.25 206.52L405.3 209.29L405.29 209.28Z" fill="#EEC1BB"/>
<path opacity="0.1" d="M369.57 228.4C369.32 228.44 369.19 228.46 369.19 228.46L363.2 227.51C363.04 227.49 362.88 227.5 362.72 227.55L358.8 228.81C358.6 228.87 358.43 229 358.31 229.16L356.83 231.2C356.44 231.74 356.83 232.42 357.53 232.44L361.65 232.53C361.65 232.53 361.73 232.53 361.78 232.54L364.23 232.9C366.05 232.11 367.86 230.46 369.56 228.39L369.57 228.4Z" fill="black"/>
<path d="M410.21 189.27C404.29 187.33 395.96 191.78 392.77 210.42L405.06 214.01C405.06 214.01 418.67 192.05 410.21 189.28V189.27Z" fill="#39D0FF"/>
<path d="M375.77 164.91C375.77 165.52 376.1 166.02 376.5 166.01C376.9 166.01 377.25 165.48 377.22 164.89C377.2 164.3 376.89 163.78 376.49 163.79C376.09 163.8 375.77 164.3 375.77 164.91Z" fill="#263238"/>
<path d="M378.19 165.52L375.28 170.33C375.28 170.33 376.29 171.47 378.47 170.63L378.19 165.52Z" fill="#D4827D"/>
<path d="M378.74 161.07C378.67 161.15 378.56 161.19 378.45 161.18C377.65 161.04 376.84 161.3 376.26 161.86C376.14 161.99 375.94 162.01 375.81 161.89C375.68 161.77 375.67 161.57 375.78 161.44C376.5 160.7 377.53 160.37 378.54 160.54C378.72 160.56 378.84 160.73 378.81 160.9C378.81 160.96 378.77 161.02 378.73 161.07H378.74Z" fill="#263238"/>
<path d="M399.3 160.55C399.76 168.68 400.12 172.12 396.54 176.74C390.81 181.69 381.04 182.48 378.17 174.65C375.58 167.6 375.27 155.52 382.8 151.33C388.16 148.35 394.93 150.28 397.92 155.64C398.76 157.15 399.23 158.83 399.31 160.55H399.3Z" fill="#EEC1BB"/>
<path d="M387.97 178.34L390.03 190.38L400.07 188.06L396.56 175.77L387.97 178.34Z" fill="#EEC1BB"/>
<path d="M380.74 161.15C381.25 155.87 379.44 161.97 376.99 155C374.54 148.03 386.08 142.37 387.93 143.67C389.77 144.97 388.72 146.97 394.82 148.09C400.92 149.21 400.66 155.14 400.66 155.14C400.66 155.14 404.17 156.77 402.92 164.31C401.67 171.85 396.91 177.55 396.91 177.55C396.91 177.55 394.6 175.17 390.95 177.37C390.95 177.37 389.15 176.36 387.38 173.72C385.73 171.26 385.23 168.93 382.97 168.72C378.24 168.29 380.57 162.89 380.74 161.15Z" fill="#263238"/>
<path d="M399.99 156.06C399.99 156.06 404.97 153 402.77 149.79C400.57 146.58 401.63 153.32 399.99 156.06Z" fill="#263238"/>
<path d="M382.17 164.22C381.06 165.46 380.49 167.09 380.58 168.75C380.72 170.95 382.88 171.34 384.58 170.14C386.12 169.05 387.89 166.6 386.91 164.67C385.93 162.74 383.55 162.73 382.17 164.22Z" fill="#FFC3BD"/>
<path opacity="0.1" d="M388.16 179.48L388.98 184.26C388.93 179.89 391.24 177.73 391.24 177.73C388.89 178.08 388.16 179.48 388.16 179.48Z" fill="black"/>
<path d="M317.57 210.56H314.7V227.49H317.57V210.56Z" fill="#39D0FF"/>
<path opacity="0.7" d="M317.57 210.56H314.7V227.49H317.57V210.56Z" fill="white"/>
<path d="M297.85 176.94H290.7C288.02 176.94 285.85 179.11 285.85 181.79V214.91C285.85 217.59 288.02 219.76 290.7 219.76H297.85V176.94Z" fill="#39D0FF"/>
<path d="M341.58 176.94H293.2C290.521 176.94 288.35 179.111 288.35 181.79V214.91C288.35 217.589 290.521 219.76 293.2 219.76H341.58C344.259 219.76 346.43 217.589 346.43 214.91V181.79C346.43 179.111 344.259 176.94 341.58 176.94Z" fill="#39D0FF"/>
<path opacity="0.5" d="M341.58 176.94H293.2C290.521 176.94 288.35 179.111 288.35 181.79V214.91C288.35 217.589 290.521 219.76 293.2 219.76H341.58C344.259 219.76 346.43 217.589 346.43 214.91V181.79C346.43 179.111 344.259 176.94 341.58 176.94Z" fill="white"/>
<path d="M341.58 178.94H293.2C291.626 178.94 290.35 180.216 290.35 181.79V214.91C290.35 216.484 291.626 217.76 293.2 217.76H341.58C343.154 217.76 344.43 216.484 344.43 214.91V181.79C344.43 180.216 343.154 178.94 341.58 178.94Z" fill="#263238"/>
<path d="M305.69 234.59C305.69 228.82 310.37 224.15 316.13 224.15C321.89 224.15 326.57 228.83 326.57 234.59H305.68H305.69Z" fill="#39D0FF"/>
<path d="M330.34 231.02H309.46V234.42H351.23V233.02L330.34 231.02Z" fill="#39D0FF"/>
<path opacity="0.8" d="M330.34 231.02H309.46V234.42H351.23V233.02L330.34 231.02Z" fill="white"/>
<path d="M330.34 234.42H309.46V231.02L330.34 233.02V234.42Z" fill="#39D0FF"/>
<path opacity="0.6" d="M330.34 234.42H309.46V231.02L330.34 233.02V234.42Z" fill="white"/>
<path d="M376.4 351.13H333.3C329.68 351.13 326.75 348.2 326.75 344.58V245.51C326.75 241.89 329.68 238.96 333.3 238.96H376.4C377.37 238.96 378.15 239.74 378.15 240.71C378.15 241.68 377.37 242.46 376.4 242.46H333.3C331.62 242.46 330.25 243.82 330.25 245.51V344.58C330.25 346.26 331.61 347.63 333.3 347.63H376.4C377.37 347.63 378.15 348.41 378.15 349.38C378.15 350.35 377.37 351.13 376.4 351.13Z" fill="#263238"/>
<g opacity="0.5">
<path d="M376.4 351.13H333.3C329.68 351.13 326.75 348.2 326.75 344.58V245.51C326.75 241.89 329.68 238.96 333.3 238.96H376.4C377.37 238.96 378.15 239.74 378.15 240.71C378.15 241.68 377.37 242.46 376.4 242.46H333.3C331.62 242.46 330.25 243.82 330.25 245.51V344.58C330.25 346.26 331.61 347.63 333.3 347.63H376.4C377.37 347.63 378.15 348.41 378.15 349.38C378.15 350.35 377.37 351.13 376.4 351.13Z" fill="white"/>
</g>
<path d="M333.14 234.42H271.95V239.55H333.14V234.42Z" fill="#39D0FF"/>
<path opacity="0.2" d="M333.14 234.42H271.95V239.55H333.14V234.42Z" fill="white"/>
<path d="M382.53 234.42H330.34V239.55H382.53V234.42Z" fill="#39D0FF"/>
<path opacity="0.5" d="M382.53 234.42H330.34V239.55H382.53V234.42Z" fill="white"/>
<path d="M364.23 314.78L367.12 343.99H360.2L353.27 315.54L364.23 314.78Z" fill="#EEC1BB"/>
<path d="M359.55 342.09L368.38 342.24C368.71 342.24 369 342.48 369.06 342.81L370.53 350.02C370.67 350.66 370.26 351.29 369.62 351.42C369.54 351.44 369.45 351.45 369.37 351.45C366.19 351.34 363.36 351.12 359.4 351.06C354.72 350.98 355.9 351.56 350.4 351.55C347.09 351.54 346.54 347.76 347.95 347.6C354.39 346.9 355.09 344.97 357.61 342.71C358.16 342.28 358.84 342.06 359.54 342.1L359.55 342.09Z" fill="#263238"/>
<path opacity="0.1" d="M366.37 336.37L364.23 314.78L353.27 315.54L358.34 336.37H366.37Z" fill="black"/>
<path d="M411.61 247.41L383.22 248.43C383.22 248.43 345.03 261.78 343.95 272.09C342.85 282.67 355.69 331.27 355.69 331.27H367.1C367.1 331.27 363.95 295.6 362.75 284.68C361.54 273.76 402.54 277.38 409.66 268.06C416.21 259.48 411.61 247.41 411.61 247.41Z" fill="#263238"/>
<path opacity="0.2" d="M411.61 247.41L383.22 248.43C383.22 248.43 345.03 261.78 343.95 272.09C342.85 282.67 355.69 331.27 355.69 331.27H367.1C367.1 331.27 363.95 295.6 362.75 284.68C361.54 273.76 402.54 277.38 409.66 268.06C416.21 259.48 411.61 247.41 411.61 247.41Z" fill="black"/>
<path d="M369.05 329.64L369.3 333.67H355.2L353.82 329.64H369.05Z" fill="#39D0FF"/>
<path d="M337.82 316.17L338.58 343.99H331.78L327.75 316.17H337.82Z" fill="#EEC1BB"/>
<path d="M330.84 342.09L339.67 342.24C340 342.24 340.29 342.48 340.35 342.81L341.82 350.02C341.96 350.66 341.55 351.29 340.91 351.42C340.83 351.44 340.74 351.45 340.66 351.45C337.48 351.34 334.65 351.12 330.69 351.06C326.01 350.98 327.19 351.56 321.69 351.55C318.38 351.54 317.83 347.76 319.24 347.6C325.68 346.9 326.38 344.97 328.9 342.71C329.45 342.28 330.13 342.06 330.83 342.1L330.84 342.09Z" fill="#263238"/>
<path opacity="0.1" d="M338.37 336.35L337.82 316.17H327.75L330.68 336.37C332.87 336.37 335.89 336.37 338.38 336.35H338.37Z" fill="black"/>
<path d="M399.27 249.76C399.27 249.76 401.63 271.33 379.67 272.34C357.71 273.35 340.59 275.87 340.09 283.67C339.59 291.48 340.09 331.27 340.09 331.27H328.16C328.16 331.27 323.52 306.12 321.71 290.51C319.95 275.36 316.74 264.37 332.29 259.24C348.82 253.78 378.2 248.74 378.2 248.74L399.36 247.4L399.29 249.75L399.27 249.76Z" fill="#263238"/>
<path d="M341.85 329.64L341.1 333.67H328L326.62 329.64H341.85Z" fill="#39D0FF"/>
<path d="M404.04 187.85C404.04 187.85 404.04 182.98 394.21 183.54C383.78 184.14 385.74 188.8 385.74 188.8L404.04 187.84V187.85Z" fill="#39D0FF"/>
<path opacity="0.3" d="M404.04 187.85C404.04 187.85 404.04 182.98 394.21 183.54C383.78 184.14 385.74 188.8 385.74 188.8L404.04 187.84V187.85Z" fill="black"/>
<path d="M413.16 209.65C412.5 219.26 412.73 248.17 412.73 248.17C412.73 248.17 391.76 249.55 375.25 249.01L373.34 193.4C373.34 191.42 374.57 189.62 376.48 188.87C381.14 187.06 392.08 185.01 409.19 187.25C415.09 188.02 413.94 198.29 413.16 209.65Z" fill="#39D0FF"/>
<path d="M376.71 209.28C376.71 209.28 368.56 229.48 360.58 231.67C352.6 233.86 340.57 232.08 340.57 232.08L336.85 233.1L333.2 232.56C333.2 232.56 333.12 232.56 333.07 232.55L328.95 232.46C328.25 232.44 327.86 231.76 328.25 231.22L329.73 229.18C329.85 229.02 330.02 228.9 330.22 228.83L334.14 227.57C334.29 227.52 334.46 227.51 334.62 227.53L340.61 228.48C340.61 228.48 357.26 225.75 358.96 224.21C360.65 222.67 365.67 206.52 365.67 206.52L376.72 209.29L376.71 209.28Z" fill="#EEC1BB"/>
<path opacity="0.1" d="M376.5 199.88C376.5 199.88 375.24 201.38 373.69 203.57L374.24 219.67C380.37 216.97 382.8 201.18 382.8 201.18L378.82 198.36L376.49 199.89L376.5 199.88Z" fill="black"/>
<path d="M381.63 189.27C375.71 187.33 367.38 191.78 364.19 210.42L376.48 214.01C376.48 214.01 390.09 192.05 381.63 189.28V189.27Z" fill="#39D0FF"/>
<path d="M389.46 282.82H380.21V309.93H389.46V282.82Z" fill="#263238"/>
<path opacity="0.6" d="M389.46 282.82H380.21V309.93H389.46V282.82Z" fill="white"/>
<path d="M390.89 334.49V300.04H378.77V334.49L351.18 338.32V342.15L384.83 339.28L418.48 342.15V338.32L390.89 334.49Z" fill="#263238"/>
<path d="M350.78 351.54C352.796 351.54 354.43 349.906 354.43 347.89C354.43 345.874 352.796 344.24 350.78 344.24C348.764 344.24 347.13 345.874 347.13 347.89C347.13 349.906 348.764 351.54 350.78 351.54Z" fill="#39D0FF"/>
<path d="M418.48 351.54C420.496 351.54 422.13 349.906 422.13 347.89C422.13 345.874 420.496 344.24 418.48 344.24C416.464 344.24 414.83 345.874 414.83 347.89C414.83 349.906 416.464 351.54 418.48 351.54Z" fill="#39D0FF"/>
<path d="M384.83 351.54C386.846 351.54 388.48 349.906 388.48 347.89C388.48 345.874 386.846 344.24 384.83 344.24C382.814 344.24 381.18 345.874 381.18 347.89C381.18 349.906 382.814 351.54 384.83 351.54Z" fill="#39D0FF"/>
<path opacity="0.3" d="M389.46 282.82H380.21V289.52H389.46V282.82Z" fill="black"/>
<path d="M421.4 221.37H391.26C386.35 221.37 382.25 225.11 381.79 229.99L379.25 257.23C378.67 263.43 373.62 268.27 367.4 268.59L338.31 270.06C334.77 270.24 332 273.16 332 276.7V277.31C332 280.35 334.47 282.82 337.51 282.82H426.1L430.87 231.77C431.39 226.19 427 221.38 421.4 221.38V221.37Z" fill="#39D0FF"/>
<path opacity="0.3" d="M421.4 221.37H391.26C386.35 221.37 382.25 225.11 381.79 229.99L379.25 257.23C378.67 263.43 373.62 268.27 367.4 268.59L338.31 270.06C334.77 270.24 332 273.16 332 276.7V277.31C332 280.35 334.47 282.82 337.51 282.82H426.1L430.87 231.77C431.39 226.19 427 221.38 421.4 221.38V221.37Z" fill="white"/>
<path d="M352.22 252.09H356.37V273.8C356.37 274.9 355.47 275.8 354.37 275.8H354.22C353.12 275.8 352.22 274.9 352.22 273.8V252.09Z" fill="#263238"/>
<path opacity="0.2" d="M352.22 252.09H356.37V273.8C356.37 274.9 355.47 275.8 354.37 275.8H354.22C353.12 275.8 352.22 274.9 352.22 273.8V252.09Z" fill="white"/>
<path d="M372.23 245.82H362.98V253.48H372.23C374.34 253.48 376.06 251.77 376.06 249.65C376.06 247.53 374.35 245.82 372.23 245.82Z" fill="#39D0FF"/>
<path opacity="0.5" d="M372.23 245.82H362.98V253.48H372.23C374.34 253.48 376.06 251.77 376.06 249.65C376.06 247.53 374.35 245.82 372.23 245.82Z" fill="white"/>
<path d="M368.54 245.82H336.21C334.172 245.82 332.52 247.472 332.52 249.51V249.79C332.52 251.828 334.172 253.48 336.21 253.48H368.54C370.578 253.48 372.23 251.828 372.23 249.79V249.51C372.23 247.472 370.578 245.82 368.54 245.82Z" fill="#39D0FF"/>
<path opacity="0.3" d="M368.54 245.82H336.21C334.172 245.82 332.52 247.472 332.52 249.51V249.79C332.52 251.828 334.172 253.48 336.21 253.48H368.54C370.578 253.48 372.23 251.828 372.23 249.79V249.51C372.23 247.472 370.578 245.82 368.54 245.82Z" fill="white"/>
<path d="M428.18 282.82H383.87L388.81 230C389.27 225.11 393.37 221.38 398.28 221.38H428.42C434.02 221.38 438.41 226.2 437.89 231.77L433.58 277.91C433.32 280.69 430.98 282.82 428.19 282.82H428.18Z" fill="#39D0FF"/>
<path opacity="0.5" d="M428.18 282.82H383.87L388.81 230C389.27 225.11 393.37 221.38 398.28 221.38H428.42C434.02 221.38 438.41 226.2 437.89 231.77L433.58 277.91C433.32 280.69 430.98 282.82 428.19 282.82H428.18Z" fill="white"/>
<path d="M324.67 351.13H281.57C277.95 351.13 275.02 348.2 275.02 344.58V245.51C275.02 241.89 277.95 238.96 281.57 238.96H324.67C325.64 238.96 326.42 239.74 326.42 240.71C326.42 241.68 325.64 242.46 324.67 242.46H281.57C279.89 242.46 278.52 243.82 278.52 245.51V344.58C278.52 346.26 279.88 347.63 281.57 347.63H324.67C325.64 347.63 326.42 348.41 326.42 349.38C326.42 350.35 325.64 351.13 324.67 351.13Z" fill="#263238"/>
<g opacity="0.5">
<path d="M324.67 351.13H281.57C277.95 351.13 275.02 348.2 275.02 344.58V245.51C275.02 241.89 277.95 238.96 281.57 238.96H324.67C325.64 238.96 326.42 239.74 326.42 240.71C326.42 241.68 325.64 242.46 324.67 242.46H281.57C279.89 242.46 278.52 243.82 278.52 245.51V344.58C278.52 346.26 279.88 347.63 281.57 347.63H324.67C325.64 347.63 326.42 348.41 326.42 349.38C326.42 350.35 325.64 351.13 324.67 351.13Z" fill="white"/>
</g>
<path d="M296.19 186.83L293.16 184.82C292.84 184.6 292.84 184.13 293.16 183.91L296.19 181.9C296.42 181.75 296.72 181.81 296.87 182.04C297.02 182.27 296.96 182.57 296.73 182.72L294.25 184.37L296.73 186.02C296.96 186.17 297.02 186.48 296.87 186.7C296.72 186.93 296.41 186.99 296.19 186.84V186.83Z" fill="white"/>
<path d="M302.83 186.7C302.68 186.47 302.74 186.17 302.97 186.02L305.45 184.37L302.97 182.72C302.74 182.57 302.68 182.26 302.83 182.04C302.98 181.81 303.29 181.75 303.51 181.9L306.54 183.91C306.87 184.13 306.87 184.6 306.54 184.82L303.51 186.83C303.28 186.98 302.98 186.92 302.83 186.69V186.7Z" fill="white"/>
<path d="M298.72 188.01C298.46 187.93 298.32 187.65 298.4 187.39L300.47 180.85C300.55 180.59 300.83 180.45 301.09 180.53C301.35 180.61 301.49 180.89 301.41 181.15L299.34 187.69C299.26 187.95 298.98 188.09 298.72 188.01Z" fill="white"/>
<path d="M315.7 193.05H293.43C293.14 193.05 292.91 192.82 292.91 192.53C292.91 192.24 293.14 192.01 293.43 192.01H315.7C315.99 192.01 316.22 192.24 316.22 192.53C316.22 192.82 315.99 193.05 315.7 193.05Z" fill="white"/>
<path d="M341.28 193.05H319.01C318.72 193.05 318.49 192.82 318.49 192.53C318.49 192.24 318.72 192.01 319.01 192.01H341.28C341.57 192.01 341.8 192.24 341.8 192.53C341.8 192.82 341.57 193.05 341.28 193.05Z" fill="white"/>
<path d="M306.16 197.63H293.44C293.15 197.63 292.92 197.4 292.92 197.11C292.92 196.82 293.15 196.59 293.44 196.59H306.16C306.45 196.59 306.68 196.82 306.68 197.11C306.68 197.4 306.45 197.63 306.16 197.63Z" fill="white"/>
<path d="M330.32 197.63H309.48C309.19 197.63 308.96 197.4 308.96 197.11C308.96 196.82 309.19 196.59 309.48 196.59H330.32C330.61 196.59 330.84 196.82 330.84 197.11C330.84 197.4 330.61 197.63 330.32 197.63Z" fill="white"/>
<path d="M327.35 202.21H293.43C293.14 202.21 292.91 201.98 292.91 201.69C292.91 201.4 293.14 201.17 293.43 201.17H327.35C327.64 201.17 327.87 201.4 327.87 201.69C327.87 201.98 327.64 202.21 327.35 202.21Z" fill="white"/>
<path d="M337.75 202.21H330.67C330.38 202.21 330.15 201.98 330.15 201.69C330.15 201.4 330.38 201.17 330.67 201.17H337.75C338.04 201.17 338.27 201.4 338.27 201.69C338.27 201.98 338.04 202.21 337.75 202.21Z" fill="white"/>
<path d="M309.27 206.8H293.43C293.14 206.8 292.91 206.57 292.91 206.28C292.91 205.99 293.14 205.76 293.43 205.76H309.27C309.56 205.76 309.79 205.99 309.79 206.28C309.79 206.57 309.56 206.8 309.27 206.8Z" fill="white"/>
<path d="M332.3 206.8H312.58C312.29 206.8 312.06 206.57 312.06 206.28C312.06 205.99 312.29 205.76 312.58 205.76H332.3C332.59 205.76 332.82 205.99 332.82 206.28C332.82 206.57 332.59 206.8 332.3 206.8Z" fill="white"/>
<path d="M315.7 211.38H293.43C293.14 211.38 292.91 211.15 292.91 210.86C292.91 210.57 293.14 210.34 293.43 210.34H315.7C315.99 210.34 316.22 210.57 316.22 210.86C316.22 211.15 315.99 211.38 315.7 211.38Z" fill="white"/>
<path d="M334.73 211.38H319.02C318.73 211.38 318.5 211.15 318.5 210.86C318.5 210.57 318.73 210.34 319.02 210.34H334.73C335.02 210.34 335.25 210.57 335.25 210.86C335.25 211.15 335.02 211.38 334.73 211.38Z" fill="white"/>
<path d="M141.47 121.87C141.88 126.58 140.86 135.11 137.3 137.84C143.1 139.93 149.23 143.53 153.16 148.28C157.05 142.62 152.62 139.39 152.62 139.39C147.61 137.61 148.16 133.82 149.44 130.33L141.46 121.87H141.47Z" fill="#B97964"/>
<path d="M160.4 117.81C160.34 118.4 160.62 118.91 161.01 118.95C161.4 118.99 161.76 118.53 161.81 117.94C161.87 117.35 161.59 116.83 161.2 116.8C160.81 116.76 160.47 117.22 160.4 117.81Z" fill="#263238"/>
<path d="M161.05 116.81L162.51 116.53C162.51 116.53 161.68 117.61 161.05 116.81Z" fill="#263238"/>
<path d="M160.6 118.44C161.01 119.84 161.6 121.18 162.37 122.42C161.72 122.8 160.93 122.88 160.22 122.62L160.61 118.43L160.6 118.44Z" fill="#A24E3F"/>
<path d="M162.08 114.69C162.17 114.68 162.26 114.64 162.32 114.57C162.44 114.42 162.43 114.2 162.28 114.07C161.45 113.31 160.3 113 159.19 113.25C159.02 113.35 158.97 113.57 159.07 113.73C159.13 113.84 159.25 113.9 159.37 113.9C160.25 113.73 161.15 113.98 161.81 114.59C161.88 114.66 161.97 114.7 162.07 114.7L162.08 114.69Z" fill="#263238"/>
<path d="M140.97 114.05C140.74 121.37 140.49 124.48 143.75 128.55C148.66 134.68 157.55 133.34 159.92 126.22C162.06 119.81 162.08 108.9 155.36 105.35C148.63 101.81 141.21 106.71 140.97 114.05Z" fill="#B97964"/>
<path d="M141.32 127.86C134.13 126.63 136.19 122.1 136.19 122.1C129.11 120.67 134.58 117.21 134.58 117.21C128.69 114.67 134.58 112.4 134.58 112.4C128.9 107.69 137.04 106.09 137.04 106.09C135.03 98.74 142.01 101.76 142.01 101.76C145.82 95.45 149.09 101.48 149.09 101.48C155.75 92.43 157.38 100.07 157.38 100.07C164.18 98.28 161.57 105.44 161.57 105.44C167.17 106.94 162.78 109.78 162.78 109.78C164.94 112.51 157.13 112.98 157.13 112.98C157.13 112.98 160.85 118.94 157.1 120.63L147.64 127.88C147.64 127.88 143.3 126.07 141.33 127.88L141.32 127.86Z" fill="#263238"/>
<path d="M148.39 121.96C148.39 121.96 153.34 109.99 149.48 99.7201L152.78 98.5901C152.78 98.5901 157.09 113.48 148.38 121.96H148.39Z" fill="#39D0FF"/>
<path d="M153.38 120.64C154.21 122.36 154.52 123.1 155.7 123.68C156.74 124.26 158.05 123.89 158.63 122.86C158.9 122.39 158.97 121.83 158.85 121.3C158.54 119.58 157.21 117.05 155.39 116.99C153.56 116.94 152.53 118.94 153.39 120.64H153.38Z" fill="#B97964"/>
<path d="M148.21 145.62C148.21 145.62 154.98 150.59 157.73 152.59L177.32 143.35C177.27 141.13 178.58 139.1 180.63 138.23L182.02 137.64L184.97 136.33C186.09 135.83 187.39 135.97 188.38 136.69C189.55 137.54 190.06 139.04 189.65 140.43C188.81 143.29 186.53 145.5 183.65 146.25L180.79 147C180.79 147 163.99 159.75 158.01 160.08C152.03 160.41 143.22 154.49 143.22 154.49L148.2 145.61L148.21 145.62Z" fill="#B97964"/>
<path d="M131.93 137.19C137.1 137.17 142.88 140.41 151.98 146.31C151.98 146.31 150.26 152.78 144.97 157.39C144.97 157.39 139.98 156.05 133.34 149.79C125.3 142.22 128.77 137.2 131.94 137.18L131.93 137.19Z" fill="#263238"/>
<path d="M230.13 152.17H181.14C179.36 152.17 178.05 150.73 178.2 148.95L181.89 106.76C182.05 104.98 183.61 103.54 185.39 103.54H234.38C236.16 103.54 237.47 104.98 237.32 106.76L233.63 148.95C233.47 150.73 231.91 152.17 230.13 152.17Z" fill="#39D0FF"/>
<path opacity="0.4" d="M230.13 152.17H181.14C179.36 152.17 178.05 150.73 178.2 148.95L181.89 106.76C182.05 104.98 183.61 103.54 185.39 103.54H234.38C236.16 103.54 237.47 104.98 237.32 106.76L233.63 148.95C233.47 150.73 231.91 152.17 230.13 152.17Z" fill="white"/>
<path opacity="0.7" d="M230.31 150.17C230.98 150.17 231.58 149.62 231.64 148.95L235.33 106.76C235.39 106.09 234.89 105.54 234.22 105.54H185.23C184.56 105.54 183.96 106.09 183.9 106.76L180.21 148.95C180.15 149.62 180.65 150.17 181.32 150.17H230.31Z" fill="white"/>
<path d="M196.26 125.36L180.24 148.53L180.2 148.95C180.14 149.62 180.64 150.17 181.31 150.17H209.07L196.26 125.36Z" fill="#39D0FF"/>
<path opacity="0.3" d="M196.26 125.36L180.24 148.53L180.2 148.95C180.14 149.62 180.64 150.17 181.31 150.17H209.07L196.26 125.36Z" fill="white"/>
<path d="M231.77 147.33L218.36 121.86L198.5 150.17H230.31C230.98 150.17 231.58 149.62 231.64 148.95L231.78 147.33H231.77Z" fill="#39D0FF"/>
<path d="M213.18 117.36C212.96 119.85 210.77 121.86 208.28 121.86C205.79 121.86 203.95 119.84 204.17 117.36C204.39 114.87 206.58 112.86 209.07 112.86C211.56 112.86 213.4 114.88 213.18 117.36Z" fill="#39D0FF"/>
<path opacity="0.4" d="M213.18 117.36C212.96 119.85 210.77 121.86 208.28 121.86C205.79 121.86 203.95 119.84 204.17 117.36C204.39 114.87 206.58 112.86 209.07 112.86C211.56 112.86 213.4 114.88 213.18 117.36Z" fill="white"/>
<path d="M90.9 322.42L85.92 337.18L93.55 340.29L99.52 326.67L90.9 322.42Z" fill="#B97964"/>
<path d="M96.29 339.92C96.21 339.88 96.17 339.79 96.17 339.7C96.18 339.61 96.25 339.53 96.34 339.51C96.5 339.47 100.1 338.67 101.44 339.53C101.69 339.69 101.87 339.93 101.94 340.22C102.05 340.55 101.94 340.91 101.68 341.13C101.17 341.49 99.98 341.34 98.89 341C97.99 340.72 97.12 340.36 96.28 339.92H96.29ZM97.05 339.85C98.62 340.56 100.84 341.23 101.42 340.78C101.5 340.73 101.59 340.62 101.52 340.31C101.48 340.13 101.37 339.98 101.2 339.89C101.08 339.81 100.95 339.75 100.82 339.72C99.57 339.52 98.29 339.57 97.05 339.85Z" fill="#39D0FF"/>
<path d="M96.18 339.88C96.13 339.82 96.12 339.74 96.14 339.66C96.19 339.55 97.15 337.26 98.55 336.68C98.96 336.51 99.41 336.51 99.82 336.68C100.38 336.91 100.46 337.26 100.41 337.5C100.29 338.55 97.59 339.8 96.4 339.94C96.37 339.94 96.34 339.94 96.31 339.92C96.26 339.92 96.21 339.9 96.17 339.87L96.18 339.88ZM99.57 337.04C99.31 336.96 99.02 336.97 98.77 337.08C97.88 337.63 97.18 338.45 96.77 339.41C98.06 339.1 99.9 338.04 100.03 337.43C100.03 337.37 100.05 337.21 99.69 337.07L99.57 337.04Z" fill="#39D0FF"/>
<path d="M95.77 338.42L86.19 335.46C85.83 335.35 85.44 335.5 85.25 335.83L81.11 343.09C80.74 343.73 80.96 344.55 81.6 344.92C81.68 344.97 81.77 345.01 81.86 345.04C85.33 346.05 88.46 346.81 92.76 348.14C97.84 349.71 96.36 349.92 102.3 351.85C105.88 353.01 107.8 349.12 106.34 348.45C99.63 345.42 99.56 343.09 97.64 339.76C97.2 339.1 96.54 338.62 95.77 338.42Z" fill="#263238"/>
<path opacity="0.2" d="M88.51 329.5L96.51 333.54L99.52 326.67L90.9 322.42L88.51 329.5Z" fill="#263238"/>
<path d="M124.72 185.9C124.72 185.9 113.97 194.11 116.27 219.83C116.48 222.21 117.25 224.7 117.26 227.42C117.26 229.23 116.76 230.5 116.17 234.56C115.31 240.49 113.73 262.56 112.06 265.43C110.41 268.27 109.71 267.8 105.02 275.71C99.97 284.23 93.52 299.17 88.5 324.5C88.5 324.5 92.87 327.91 99.73 329.2C99.73 329.2 127.2 285.88 133.04 269.75C138.26 255.32 144.49 209.27 144.49 209.27L144.99 189.3L124.7 185.88L124.72 185.9Z" fill="#39D0FF"/>
<path opacity="0.1" d="M136.48 219.83H128.69C128.69 219.83 126.13 244.31 134.59 264.73C135.47 261.45 136.37 257.52 137.24 253.27L140.6 231.71C140.12 228.07 139.75 225.29 139.69 225.11C139.52 224.54 136.47 219.83 136.47 219.83H136.48Z" fill="black"/>
<path d="M135.2 328.36L135.25 344.05L144.1 343.45L145.46 328.36H135.2Z" fill="#B97964"/>
<path d="M145.12 343.19C145.03 343.17 144.96 343.11 144.94 343.02C144.92 342.93 144.96 342.84 145.04 342.79C145.18 342.7 148.32 340.76 149.86 341.13C150.15 341.19 150.4 341.37 150.56 341.61C150.78 341.88 150.8 342.26 150.61 342.56C150.25 343.06 149.08 343.32 147.94 343.36C147 343.39 146.05 343.34 145.12 343.2V343.19ZM145.82 342.87C147.54 343.02 149.85 342.92 150.26 342.31C150.32 342.23 150.37 342.1 150.2 341.84C150.11 341.68 149.94 341.58 149.76 341.55C149.62 341.52 149.48 341.5 149.34 341.51C148.09 341.74 146.9 342.2 145.82 342.87Z" fill="#39D0FF"/>
<path d="M145.01 343.18C144.94 343.14 144.9 343.07 144.91 342.99C144.91 342.87 145.07 340.39 146.21 339.39C146.54 339.09 146.97 338.94 147.41 338.98C148.01 339.02 148.21 339.31 148.24 339.56C148.47 340.59 146.34 342.66 145.26 343.18C145.23 343.19 145.2 343.2 145.17 343.19C145.12 343.21 145.07 343.21 145.02 343.19L145.01 343.18ZM147.27 339.39C146.99 339.39 146.73 339.5 146.53 339.69C145.87 340.51 145.48 341.5 145.41 342.55C146.52 341.84 147.92 340.23 147.84 339.61C147.82 339.55 147.79 339.4 147.4 339.38L147.28 339.4L147.27 339.39Z" fill="#39D0FF"/>
<path d="M144.14 341.94L134.12 342.3C133.74 342.31 133.42 342.59 133.35 342.96L131.83 351.18C131.69 351.91 132.17 352.61 132.89 352.75C132.98 352.77 133.08 352.78 133.17 352.77C136.78 352.58 139.99 352.27 144.49 352.11C149.8 351.92 148.47 352.61 154.72 352.47C158.48 352.39 159.02 348.09 157.42 347.93C150.09 347.27 149.25 345.1 146.34 342.58C145.71 342.1 144.93 341.87 144.14 341.93V341.94Z" fill="#263238"/>
<path opacity="0.2" d="M135.23 336.47L144.75 336.27L145.46 328.36H135.2L135.23 336.47Z" fill="#263238"/>
<path d="M130.71 183.02C130.71 183.02 119.98 197.23 127.93 225.05L136.9 265.63C136.9 265.63 128.36 284.09 132.87 332.79C132.87 332.79 139.65 333.88 146.12 332.49C146.12 332.49 156.11 281.06 157.63 263.68C159.3 244.55 158.3 186.85 158.3 186.85L130.72 183L130.71 183.02Z" fill="#39D0FF"/>
<path d="M137.19 136.99C137.19 136.99 135.53 129.89 146.18 132.99C156.84 136.1 155.95 142.17 155.95 142.17L137.19 136.99Z" fill="#263238"/>
<path opacity="0.4" d="M137.19 136.99C137.19 136.99 135.53 129.89 146.18 132.99C156.84 136.1 155.95 142.17 155.95 142.17L137.19 136.99Z" fill="black"/>
<path d="M163.63 154.75C163.63 157.24 162.58 160.84 161.64 164.87C161.18 166.78 160.76 168.77 160.48 170.79C158.97 181.8 158.48 193.38 158.48 193.38C158.48 193.38 141.06 198.27 124.14 186.57C124.14 186.57 128.33 183.02 127.47 158.43C127.08 147.35 123.08 134.18 141.39 136.25C156.85 138 162.05 142.8 163.3 150.31C163.3 150.4 163.33 150.5 163.35 150.6C163.38 150.83 163.41 151.06 163.44 151.3C163.57 152.39 163.63 153.55 163.63 154.75Z" fill="#263238"/>
<path opacity="0.4" d="M163.63 154.75C163.63 157.24 162.58 160.84 161.64 164.87C157.46 159.84 153.27 150.42 153.27 150.42L156.72 145.34L162.8 148.17C163.01 148.86 163.17 149.57 163.3 150.31C163.3 150.4 163.33 150.5 163.35 150.6C163.38 150.83 163.41 151.06 163.44 151.3C163.57 152.39 163.63 153.55 163.63 154.75Z" fill="black"/>
<path d="M169.95 150.4C169.95 150.4 175.9 156.32 178.32 158.71L199.06 152.49C199.34 150.28 200.94 148.47 203.09 147.92L204.56 147.55L207.68 146.69C208.86 146.36 210.13 146.69 211 147.55C212.03 148.57 212.31 150.12 211.7 151.44C210.44 154.14 207.86 155.99 204.9 156.31L201.96 156.63C201.96 156.63 183.44 166.74 177.48 166.18C171.52 165.62 163.69 158.45 163.69 158.45L169.94 150.41L169.95 150.4Z" fill="#B97964"/>
<path d="M155.1 139.64C160.22 140.39 165.45 144.46 173.57 151.64C173.57 151.64 170.91 157.78 164.99 161.56C164.99 161.56 160.25 159.49 154.62 152.32C147.8 143.64 151.97 139.19 155.11 139.65L155.1 139.64Z" fill="#263238"/>
</g>
<defs>
<clipPath id="clip0_570_5740">
<rect width="500" height="368.76" fill="white"/>
</clipPath>
</defs>
</svg>
