<svg width="333" height="198" viewBox="0 0 333 198" fill="none" xmlns="http://www.w3.org/2000/svg">
<g clip-path="url(#clip0_570_6174)">
<path d="M66.075 169.641C66.075 169.641 43.1559 141.183 70.8995 114.974C98.643 88.762 75.724 44.2059 113.72 34.0952C151.716 23.9845 147.799 70.0425 188.809 64.4239C229.819 58.8053 259.676 68.5578 261.183 97.5705C262.69 126.583 253.645 146.426 272.943 169.641H66.075Z" fill="#EBEBEB"/>
<path d="M275.819 169.641H57.1812V170.905H275.819V169.641Z" fill="#070707"/>
<path d="M93.9634 141.741C93.9634 141.741 89.3182 140.277 85.1903 138.093L84.9764 136.377L83.6281 137.211C80.4416 135.288 78.0449 132.949 79.2519 130.603C80.4795 128.223 83.2315 127.782 86.0283 128.967L86.2317 131.051L87.6215 129.815C90.8148 131.878 93.6909 136.019 93.9599 141.741H93.9634Z" fill="#FC8D2A"/>
<path d="M80.1416 131.051C80.1416 131.051 92.2632 132.364 95.5669 146.426" stroke="#080808" stroke-width="1.24" stroke-miterlimit="10"/>
<path d="M96.5015 136.039C96.5015 136.039 92.208 130.927 86.8318 125.195L87.856 122.67C87.856 122.67 86.211 122.856 84.8592 123.035C80.1761 117.399 82.5142 113.444 83.5212 112.335C84.4143 111.357 89.0147 108.749 93.7254 113.362L93.4392 115.849H95.7635C96.0152 116.214 96.2635 116.603 96.5049 117.02C102.019 126.394 96.5049 136.036 96.5049 136.036L96.5015 136.039Z" fill="#FC8D2A"/>
<path d="M84.6902 112.339C84.6902 112.339 95.2807 120.613 96.1359 131.051C96.9877 141.489 97.0119 148.875 97.0119 148.875" stroke="#080808" stroke-width="1.24" stroke-miterlimit="10"/>
<path d="M109.368 132.812L107.795 132.543L108.223 133.783C102.405 138.592 101.709 138.099 99.3672 141.107C99.3672 141.107 96.7187 131.465 102.702 126.049L104.454 126.645L104.223 124.885C111.658 120.103 115.513 127.296 109.368 132.808V132.812Z" fill="#FC8D2A"/>
<path d="M111.03 125.012C111.03 125.012 99.5155 129.594 98.5533 147.063" stroke="#080808" stroke-width="1.24" stroke-miterlimit="10"/>
<path d="M107.509 144.542H86.4696C86.4696 144.542 85.5385 152.572 87.3904 159.275V168.528C87.3904 169.417 87.9111 170.24 88.7181 170.619C89.1319 170.816 89.5216 170.912 89.8768 170.912C90.232 170.912 90.5458 170.819 90.8252 170.636C91.6218 170.109 92.0873 168.842 92.2149 166.857C93.5116 167.691 95.0841 168.184 96.9877 168.187C99.1982 168.191 100.967 167.56 102.385 166.499C102.478 168.69 102.95 170.075 103.792 170.636C104.074 170.819 104.392 170.912 104.74 170.912C105.102 170.912 105.492 170.816 105.906 170.619C106.709 170.24 107.226 169.417 107.226 168.528V156.967H107.213C108.309 150.863 107.513 144.538 107.513 144.538L107.509 144.542ZM90.5907 170.285C90.1527 170.574 89.5802 170.561 88.9009 170.237C88.2456 169.927 87.818 169.252 87.818 168.528V160.643C88.6595 163.058 89.9251 165.2 91.8045 166.575C91.6907 169 91.1079 169.941 90.5907 170.285ZM106.799 168.528C106.799 169.252 106.378 169.927 105.719 170.237C105.037 170.561 104.471 170.574 104.026 170.285C103.474 169.92 102.867 168.897 102.802 166.165C104.833 164.436 106.064 161.776 106.799 158.903V168.528Z" fill="#070707"/>
<path d="M108.647 142.767H85.3316V146.319H108.647V142.767Z" fill="#2A2832"/>
<path d="M269.108 146.739C269.108 146.739 267.594 144.948 264.27 142.661V141.613L263.535 142.127C260.804 139.963 260.932 137.8 263.601 137.497C264.363 137.411 265.097 137.521 265.766 137.865L265.704 138.885L266.794 138.633C268.094 139.974 268.994 142.547 269.108 146.739Z" fill="#39D0FF"/>
<path d="M279.433 135.609C279.123 136.046 278.647 136.539 278.074 137.063L276.484 136.587L276.736 138.186C273.864 140.442 270.036 142.747 270.036 142.747C269.863 138.857 270.632 134.207 273.984 132.167L275.157 132.729L274.795 131.744C275.036 131.637 275.295 131.544 275.56 131.461C280.25 130.045 281.278 133.022 279.44 135.609H279.433Z" fill="#39D0FF"/>
<path d="M269.025 133.914C269.025 133.914 266.404 132.615 264.266 130.876V129.601L263.37 130.094C262.007 128.795 261.114 127.341 261.769 126.039C262.511 124.572 264.18 124.458 265.749 125.395L265.815 126.625L266.739 126.146C268.373 127.668 269.605 130.4 269.022 133.914H269.025Z" fill="#39D0FF"/>
<path d="M278.802 128.471L277.216 127.996V129.081C274.664 129.997 271.529 130.896 271.529 130.896C272.094 127.934 273.47 125.274 276.295 124.416L276.926 125.019L277.353 124.193C277.55 124.165 277.747 124.151 277.957 124.137C281.902 123.941 281.378 127.386 278.809 128.471H278.802Z" fill="#39D0FF"/>
<path d="M270.346 127.513C270.346 127.513 267.656 124.527 264.49 121.375L264.932 119.762L263.239 120.148C263.208 120.117 263.173 120.086 263.142 120.055C259.428 116.473 261.259 111.591 266.794 113.741C267.318 113.944 267.784 114.192 268.198 114.492L267.998 115.859L269.367 115.567C272.005 118.726 271.308 124.258 270.349 127.517L270.346 127.513Z" fill="#39D0FF"/>
<path d="M280.819 118.863C280.543 119.459 280.064 120.038 279.471 120.579L277.998 120.737L278.15 121.616C275.702 123.307 272.612 124.451 272.612 124.451C272.612 124.451 272.674 119.942 275.702 117.058C275.743 117.017 275.788 116.976 275.829 116.941L277.053 117.351L276.947 116.125C279.598 114.64 282.057 116.207 280.819 118.863Z" fill="#39D0FF"/>
<path d="M276.922 147.373H261.773L264.218 162.934V168.707C264.218 168.728 264.221 169.207 264.594 169.551C264.832 169.772 265.159 169.885 265.566 169.885C265.625 169.885 265.684 169.885 265.746 169.878C266.987 169.785 266.946 167.346 266.911 165.386C266.908 165.183 266.904 164.987 266.901 164.801H272.643C272.643 164.987 272.639 165.183 272.632 165.386C272.598 167.346 272.553 169.785 273.798 169.878C273.86 169.882 273.919 169.885 273.977 169.885C274.384 169.885 274.712 169.775 274.95 169.551C275.322 169.207 275.326 168.728 275.326 168.707V163.168L276.919 147.373H276.922ZM266.522 165.393C266.549 166.999 266.594 169.424 265.718 169.489C265.342 169.517 265.053 169.444 264.863 169.269C264.615 169.041 264.608 168.711 264.608 168.707V164.801H266.511C266.511 164.99 266.518 165.19 266.522 165.393ZM274.688 169.265C274.498 169.441 274.208 169.513 273.829 169.489C272.953 169.424 272.998 166.999 273.026 165.393C273.029 165.19 273.032 164.99 273.036 164.801H274.939V168.707C274.939 168.707 274.933 169.041 274.688 169.265Z" fill="#070707"/>
<path d="M277.705 146.154H260.894V148.596H277.705V146.154Z" fill="#252728"/>
<path d="M280.343 117.058C280.343 117.058 269.887 121.354 269.349 136.584C268.811 151.813 269.349 154.156 269.349 154.156" stroke="#252728" stroke-width="1.13" stroke-miterlimit="10"/>
<path d="M262.294 138.475C262.294 138.475 268.298 139.973 269.108 146.743" stroke="#252728" stroke-width="1.13" stroke-miterlimit="10"/>
<path d="M279.433 132.03C279.433 132.03 269.215 137.235 269.111 148.041" stroke="#252728" stroke-width="1.13" stroke-miterlimit="10"/>
<path d="M262.294 126.335C262.294 126.335 269.205 128.516 269.346 136.587" stroke="#252728" stroke-width="1.13" stroke-miterlimit="10"/>
<path d="M263.142 114.523C263.142 114.523 271.439 120.276 270.346 129.866" stroke="#252728" stroke-width="1.13" stroke-miterlimit="10"/>
<path d="M280.343 125.65C280.343 125.65 269.887 126.69 269.349 137.886" stroke="#252728" stroke-width="1.13" stroke-miterlimit="10"/>
<path d="M193.357 94.2219H189.888V170.295H193.357V94.2219Z" fill="#37539A"/>
<path d="M238.437 51.6191H144.809V127.692H238.437V51.6191Z" fill="#CEDBEA"/>
<path d="M239.088 52.6561H144.35C143.612 52.6561 143.015 52.0601 143.015 51.3229C143.015 50.5857 143.612 49.9897 144.35 49.9897H239.088C239.826 49.9897 240.423 50.5857 240.423 51.3229C240.423 52.0601 239.826 52.6561 239.088 52.6561Z" fill="#344B7E"/>
<path d="M229.229 91.8589H221.797C220.864 91.8589 220.108 92.6146 220.108 93.5469V100.833C220.108 101.765 220.864 102.521 221.797 102.521H229.229C230.162 102.521 230.919 101.765 230.919 100.833V93.5469C230.919 92.6146 230.162 91.8589 229.229 91.8589Z" fill="#93B1CE"/>
<path d="M225.739 95.7446L225.405 95.686C225.367 95.5413 225.308 95.4001 225.232 95.2692L225.425 94.9902C225.498 94.8868 225.484 94.749 225.398 94.6629L225.198 94.4631C225.108 94.377 224.97 94.3666 224.87 94.439L224.591 94.6319C224.46 94.5561 224.322 94.4975 224.173 94.4597L224.115 94.1186C224.094 93.998 223.991 93.9085 223.867 93.905H223.577C223.453 93.905 223.346 93.9946 223.325 94.1186L223.266 94.4528C223.122 94.4907 222.98 94.5492 222.849 94.625L222.573 94.439C222.47 94.3666 222.332 94.3804 222.246 94.4665L222.046 94.6663C221.956 94.7559 221.946 94.8937 222.018 94.9936L222.211 95.2726C222.135 95.4035 222.077 95.5413 222.039 95.6895L221.704 95.748C221.58 95.7687 221.49 95.8755 221.49 95.9995V96.282C221.49 96.406 221.58 96.5128 221.704 96.5335L222.039 96.592C222.077 96.7367 222.135 96.878 222.211 97.0089L222.018 97.2879C221.946 97.3912 221.959 97.529 222.046 97.6152L222.246 97.815C222.335 97.9045 222.473 97.9149 222.573 97.8425L222.853 97.6496C222.984 97.7254 223.122 97.784 223.27 97.8219L223.329 98.156C223.349 98.28 223.456 98.3696 223.58 98.3696H223.867C223.991 98.3696 224.098 98.28 224.118 98.156L224.177 97.8219C224.322 97.784 224.463 97.7254 224.594 97.6496L224.867 97.8391C224.97 97.9114 225.108 97.8976 225.194 97.8115L225.394 97.6117C225.484 97.5221 225.494 97.3844 225.422 97.2845L225.229 97.0054C225.305 96.8745 225.363 96.7367 225.401 96.5886L225.736 96.53C225.86 96.5094 225.949 96.4026 225.949 96.2786V95.9961C225.949 95.8721 225.86 95.7653 225.736 95.7446H225.739ZM223.725 96.9021C223.304 96.9021 222.96 96.561 222.96 96.1373C222.96 95.7136 223.301 95.3725 223.725 95.3725C224.146 95.3725 224.491 95.7136 224.491 96.1373C224.491 96.561 224.146 96.9021 223.725 96.9021Z" fill="white"/>
<path d="M229.36 94.253L229.091 94.2048C229.06 94.0877 229.012 93.9774 228.953 93.8706L229.108 93.6467C229.167 93.5641 229.157 93.4538 229.084 93.3815L228.922 93.2196C228.85 93.1507 228.739 93.1438 228.657 93.2023L228.432 93.3574C228.329 93.2953 228.215 93.2506 228.098 93.2196L228.053 92.944C228.036 92.8475 227.953 92.7752 227.853 92.7717H227.622C227.522 92.7717 227.436 92.8441 227.419 92.944L227.37 93.2127C227.253 93.2437 227.143 93.2919 227.036 93.3505L226.815 93.2023C226.732 93.1438 226.622 93.1541 226.549 93.2265L226.387 93.3884C226.315 93.4607 226.308 93.5709 226.363 93.6536L226.518 93.8775C226.456 93.9809 226.412 94.0946 226.381 94.2117L226.112 94.2599C226.012 94.2771 225.939 94.3633 225.939 94.4632V94.6905C225.939 94.7904 226.012 94.8766 226.112 94.8938L226.381 94.942C226.412 95.0591 226.46 95.1694 226.518 95.2762L226.363 95.5001C226.305 95.5827 226.315 95.693 226.387 95.7653L226.549 95.9272C226.622 95.9996 226.732 96.0065 226.815 95.9513L227.039 95.7963C227.143 95.8583 227.256 95.9031 227.374 95.9341L227.422 96.2028C227.439 96.3027 227.525 96.3751 227.625 96.3751H227.856C227.956 96.3751 228.043 96.3027 228.06 96.2028L228.108 95.9341C228.225 95.9031 228.336 95.8549 228.443 95.7963L228.66 95.9479C228.743 96.0065 228.853 95.9961 228.926 95.9238L229.088 95.7619C229.16 95.693 229.167 95.5793 229.112 95.4966L228.957 95.2727C229.019 95.1694 229.063 95.0557 229.095 94.9386L229.363 94.8903C229.463 94.8731 229.536 94.787 229.536 94.6871V94.4597C229.536 94.3598 229.463 94.2737 229.363 94.2565L229.36 94.253ZM227.739 95.1831C227.401 95.1831 227.125 94.9076 227.125 94.57C227.125 94.2324 227.401 93.9568 227.739 93.9568C228.077 93.9568 228.353 94.2324 228.353 94.57C228.353 94.911 228.077 95.1831 227.739 95.1831Z" fill="white"/>
<path d="M227.96 99.4859L227.691 99.4377C227.66 99.3206 227.612 99.2103 227.553 99.1036L227.708 98.8796C227.767 98.797 227.756 98.6867 227.684 98.6144L227.522 98.4525C227.45 98.3836 227.339 98.3767 227.256 98.4352L227.032 98.5903C226.929 98.5283 226.815 98.4835 226.698 98.4525L226.653 98.1769C226.636 98.0804 226.553 98.0081 226.453 98.0046H226.222C226.122 98.0046 226.036 98.077 226.018 98.1769L225.97 98.4456C225.853 98.4766 225.743 98.5248 225.636 98.5834L225.415 98.4352C225.332 98.3767 225.222 98.387 225.149 98.4594L224.987 98.6213C224.915 98.6936 224.908 98.8038 224.963 98.8865L225.118 99.1104C225.056 99.2138 225.011 99.3275 224.98 99.4446L224.711 99.4928C224.611 99.51 224.539 99.5962 224.539 99.6961V99.9234C224.539 100.023 224.611 100.109 224.711 100.127L224.98 100.175C225.011 100.292 225.06 100.402 225.118 100.509L224.963 100.733C224.905 100.816 224.915 100.926 224.987 100.998L225.149 101.16C225.222 101.232 225.332 101.239 225.415 101.184L225.639 101.029C225.743 101.091 225.856 101.136 225.974 101.167L226.022 101.436C226.039 101.536 226.125 101.608 226.225 101.608H226.456C226.556 101.608 226.643 101.536 226.66 101.436L226.708 101.167C226.825 101.136 226.936 101.088 227.043 101.029L227.26 101.181C227.343 101.239 227.453 101.229 227.525 101.157L227.687 100.995C227.76 100.926 227.767 100.812 227.712 100.73L227.556 100.506C227.619 100.402 227.663 100.289 227.694 100.171L227.963 100.123C228.063 100.106 228.136 100.02 228.136 99.92V99.6926C228.136 99.5927 228.063 99.5066 227.963 99.4894L227.96 99.4859ZM226.339 100.416C226.001 100.416 225.725 100.14 225.725 99.8029C225.725 99.4653 226.001 99.1897 226.339 99.1897C226.677 99.1897 226.953 99.4653 226.953 99.8029C226.953 100.144 226.677 100.416 226.339 100.416Z" fill="white"/>
<path d="M229.229 77.1594H221.797C220.864 77.1594 220.108 77.9152 220.108 78.8474V86.1333C220.108 87.0656 220.864 87.8213 221.797 87.8213H229.229C230.162 87.8213 230.919 87.0656 230.919 86.1333V78.8474C230.919 77.9152 230.162 77.1594 229.229 77.1594Z" fill="#93B1CE"/>
<path d="M226.825 85.6581C226.825 85.7856 226.715 85.8923 226.584 85.8923H226.546C226.491 86.0405 226.346 86.1438 226.18 86.1473C226.156 86.4194 225.925 86.6261 225.646 86.6192H225.453C225.174 86.6089 224.949 86.3884 224.939 86.1163C224.777 86.1025 224.646 85.9922 224.598 85.8441H224.553C224.422 85.8407 224.315 85.7304 224.318 85.5995C224.322 85.4686 224.429 85.3653 224.56 85.3653H224.584L224.591 85.1172H224.57C224.439 85.1138 224.332 85.0036 224.336 84.8692C224.339 84.7418 224.446 84.635 224.573 84.635H224.601L224.611 84.2664L226.608 84.3111L226.598 84.6832H226.605C226.739 84.6866 226.843 84.7969 226.839 84.9278C226.839 85.0587 226.732 85.162 226.601 85.162H226.587L226.581 85.4101H226.587C226.722 85.4135 226.825 85.5237 226.825 85.6581Z" fill="#F2F8FC"/>
<path d="M228.529 81.0488C228.563 79.6019 227.319 78.3962 225.749 78.3618C224.18 78.3239 222.88 79.471 222.849 80.9179C222.829 81.786 223.266 82.5645 223.96 83.0606C223.96 83.0606 224.284 83.25 224.311 83.7427L224.304 84.094C224.301 84.2594 224.442 84.3972 224.622 84.4006L226.605 84.4454C226.784 84.4489 226.932 84.3179 226.936 84.1526L226.943 83.7978C226.991 83.3086 227.319 83.1398 227.319 83.1398C228.036 82.6782 228.512 81.9203 228.529 81.0522V81.0488Z" fill="#C2DDEF"/>
<path d="M225.308 84.4145L225.377 81.4588C225.38 81.2418 225.208 81.0592 224.991 81.0523C224.773 81.0489 224.591 81.2211 224.584 81.4381V81.6586C224.573 81.8756 224.746 82.0582 224.967 82.0651L225.649 82.0823" stroke="white" stroke-width="0.24" stroke-miterlimit="10"/>
<path d="M225.891 84.4284L225.96 81.4727C225.963 81.2557 226.146 81.08 226.367 81.0869C226.584 81.0903 226.76 81.2729 226.753 81.4934V81.7138C226.743 81.9309 226.56 82.1066 226.343 82.0997L225.605 82.0859" stroke="white" stroke-width="0.24" stroke-miterlimit="10"/>
<path d="M229.229 62.4602H221.797C220.864 62.4602 220.108 63.2159 220.108 64.1482V71.4341C220.108 72.3664 220.864 73.1221 221.797 73.1221H229.229C230.162 73.1221 230.919 72.3664 230.919 71.4341V64.1482C230.919 63.2159 230.162 62.4602 229.229 62.4602Z" fill="#93B1CE"/>
<path d="M229.481 68.7329C230.002 66.5412 228.645 64.3427 226.451 63.8226C224.257 63.3025 222.056 64.6576 221.536 66.8494C221.015 69.0411 222.371 71.2395 224.566 71.7596C226.76 72.2798 228.96 70.9247 229.481 68.7329Z" fill="white"/>
<path d="M225.511 70.7969C227.172 70.7969 228.519 69.452 228.519 67.793C228.519 66.134 227.172 64.7891 225.511 64.7891C223.851 64.7891 222.504 66.134 222.504 67.793C222.504 69.452 223.851 70.7969 225.511 70.7969Z" fill="#93B1CE"/>
<path d="M225.511 69.9941C226.728 69.9941 227.715 69.0086 227.715 67.7928C227.715 66.5771 226.728 65.5916 225.511 65.5916C224.294 65.5916 223.308 66.5771 223.308 67.7928C223.308 69.0086 224.294 69.9941 225.511 69.9941Z" fill="white"/>
<path d="M225.511 69.2329C226.308 69.2329 226.953 68.5883 226.953 67.793C226.953 66.9977 226.308 66.353 225.511 66.353C224.715 66.353 224.07 66.9977 224.07 67.793C224.07 68.5883 224.715 69.2329 225.511 69.2329Z" fill="#93B1CE"/>
<path d="M225.511 68.5851C225.95 68.5851 226.305 68.2304 226.305 67.7928C226.305 67.3552 225.95 67.0005 225.511 67.0005C225.073 67.0005 224.718 67.3552 224.718 67.7928C224.718 68.2304 225.073 68.5851 225.511 68.5851Z" fill="white"/>
<path d="M168.676 103.985H162.469V114.981H168.676V103.985Z" fill="#93B1CE"/>
<path d="M182.936 93.519H176.728V114.981H182.936V93.519Z" fill="#93B1CE"/>
<path d="M197.196 83.2878H190.988V114.981H197.196V83.2878Z" fill="#93B1CE"/>
<path d="M211.452 74.3311H205.244V114.981H211.452V74.3311Z" fill="#93B1CE"/>
<path d="M165.572 99.8818L201.668 69.6392L204.658 72.0679V62.5049L195.23 63.652L198.392 66.6387L165.572 99.8818Z" fill="#344B7E"/>
<path d="M153.437 63.5383V114.981H220.29" stroke="#93B1CE" stroke-miterlimit="10"/>
<path d="M125.149 115.852H80.5382L66.2095 52.656H110.82L125.149 115.852Z" fill="#344B7E"/>
<path d="M128.538 165.007H67.7061V169.599H128.538V165.007Z" fill="#344B7E"/>
<path d="M80.9555 90.467H76.9V167.305H80.9555V90.467Z" fill="#344B7E"/>
<path d="M121.241 94.1978H117.186V167.305H121.241V94.1978Z" fill="#344B7E"/>
<path d="M128.359 115.852H78.9277V119.452H128.359V115.852Z" fill="#344B7E"/>
<path d="M89.4699 97.3533H71.0857V100.595H89.4699V97.3533Z" fill="#344B7E"/>
<path d="M75.0964 48.2432H78.9277L81.5865 54.9951H77.8L75.0964 48.2432Z" fill="#344B7E"/>
<path d="M97.5395 48.2432H101.367L104.026 54.9951H100.243L97.5395 48.2432Z" fill="#344B7E"/>
<path d="M126.649 115.852H82.0383L67.7061 52.656H112.317L126.649 115.852Z" fill="white"/>
<path d="M126.649 115.856H82.0383L80.8727 110.709C82.928 103.816 91.0873 100.392 104.026 99.1344C114.22 98.1457 117.482 88.1487 118.324 79.1472L126.649 115.856Z" fill="#FAFBFC"/>
<path d="M102.983 103.439C111.357 100.345 115.24 89.9906 111.656 80.3121C108.072 70.6336 98.3781 65.2962 90.004 68.3905C81.6299 71.4849 77.7468 81.8394 81.3308 91.5179C84.9148 101.196 94.6087 106.534 102.983 103.439Z" fill="#CE6363"/>
<path d="M103.845 102.234C112.219 99.1395 116.102 88.7851 112.518 79.1066C108.934 69.4281 99.2404 64.0906 90.8663 67.185C82.4922 70.2794 78.609 80.6338 82.193 90.3123C85.777 99.9908 95.471 105.328 103.845 102.234Z" fill="#F99595"/>
<path d="M102.135 97.6168C108.303 95.3376 111.164 87.7111 108.524 80.5825C105.884 73.4539 98.744 69.5227 92.576 71.8019C86.408 74.0811 83.5477 81.7076 86.1875 88.8362C88.8272 95.9648 95.9674 99.896 102.135 97.6168Z" fill="white"/>
<path d="M100.507 93.2197C104.573 91.7174 106.458 86.6894 104.717 81.9893C102.977 77.2893 98.2699 74.697 94.2043 76.1993C90.1387 77.7016 88.2538 82.7296 89.9943 87.4297C91.7348 92.1297 96.4415 94.722 100.507 93.2197Z" fill="#F99595"/>
<path d="M99.3992 90.2278C102.036 89.2536 103.258 85.9931 102.13 82.9454C101.001 79.8977 97.9488 78.2168 95.3122 79.191C92.6756 80.1653 91.4532 83.4258 92.5818 86.4735C93.7104 89.5212 96.7626 91.2021 99.3992 90.2278Z" fill="white"/>
<path d="M99.3189 83.9803C99.781 85.2308 99.281 86.5708 98.1981 86.9704C97.1153 87.37 95.86 86.6811 95.3979 85.4271C94.9358 84.1732 95.4359 82.8366 96.5187 82.437C97.6015 82.0374 98.8568 82.7263 99.3189 83.9803Z" fill="#F99595"/>
<path d="M97.1774 84.7347L118 73.2529" stroke="#344B7E" stroke-width="2" stroke-miterlimit="10" stroke-linecap="round"/>
<path d="M114.896 72.7224V74.965L116.793 76.1122" stroke="#344B7E" stroke-width="2" stroke-miterlimit="10" stroke-linecap="round"/>
<path d="M117.051 71.5581V73.8007L118.948 74.9479" stroke="#344B7E" stroke-width="2" stroke-miterlimit="10" stroke-linecap="round"/>
<path d="M98.0843 82.1614C98.0119 82.375 96.498 85.0757 96.498 85.0757L99.7224 85.2411L98.0843 82.1614Z" fill="#344B7E"/>
<path d="M141.867 91.0528L140.736 89.761L141.088 82.9126L142.322 83.3329L142.815 88.4003L141.867 91.0528Z" fill="#BC610F"/>
<path d="M128.88 82.0548L141.012 89.6473C142.381 90.5051 144.195 89.9574 144.857 88.483C145.481 87.1016 144.822 85.479 143.412 84.9175L130.104 79.6227L129.518 78.4653C129.166 77.7728 128.666 77.1631 128.052 76.6843L126.535 75.5061C126.197 75.9815 126.28 76.6326 126.721 77.0115L126.849 77.1218L125.442 76.5189C124.845 76.2605 124.207 76.1055 123.559 76.0504C122.655 75.9781 121.817 76.5189 121.514 77.3732C121.131 78.448 121.731 79.6262 122.824 79.9534L123.79 80.2428L125.476 81.2212C126.507 81.8206 127.69 82.1099 128.88 82.0583V82.0548Z" fill="#F0BF9C"/>
<path d="M126.849 77.1252C126.621 78.4136 127.114 79.7261 128.138 80.5426L128.538 80.8629L128.142 80.7217C126.673 80.1981 126.045 78.4619 126.849 77.1252Z" fill="#EBA588"/>
<path d="M141.115 90.0813L142.815 91.2284L142.253 84.3283L140.967 83.8323L141.115 90.0813Z" fill="#BC825B"/>
<path d="M141.088 83.1365V82.9126C141.088 82.9126 150.809 86.2886 151.909 85.9992L158.144 84.3491L162.072 83.9771L168.383 85.4653C170.059 85.8614 171.421 87.074 172.004 88.6931L175.473 98.294L169.686 99.6719L170.749 113.724H151.109L151.799 100.151L150.895 95.2728L141.86 91.0563L141.881 89.8265C141.919 87.4977 142.605 84.9072 141.084 83.1434L141.088 83.1365Z" fill="#FF901B"/>
<path d="M150.902 95.2693L149.947 89.823L149.768 91.0287C149.571 92.3515 149.716 93.7019 150.185 94.9524L150.902 95.2693Z" fill="#DD700E"/>
<path d="M169.69 99.6686L168.497 99.9201L166.745 91.6489L168.455 87.2739C167.224 88.2282 166.503 89.6957 166.503 91.2493V91.642C165.921 92.8202 165.755 94.1637 166.034 95.4486L167.31 101.315C167.407 101.763 167.631 102.17 167.955 102.493C168.355 102.893 168.6 103.42 168.645 103.982L169.366 113.713H170.749L169.686 99.6617L169.69 99.6686Z" fill="#DD700E"/>
<path d="M170.386 164.801C170.052 164.467 169.597 164.277 169.121 164.277H167.066C167.466 163.485 167.576 162.565 167.345 161.687L167.228 161.242H172.152L172.835 165.324H171.649C171.173 165.324 170.718 165.135 170.383 164.801H170.386Z" fill="#F0BF9C"/>
<path d="M163.055 167.533L164.227 167.074C164.783 166.857 165.279 166.509 165.669 166.058L166.565 165.025C166.766 164.794 166.934 164.542 167.069 164.277H169.124C169.6 164.277 170.055 164.467 170.39 164.801C170.724 165.135 171.18 165.324 171.656 165.324H172.842L173.449 168.955H161.313C161.727 168.321 162.331 167.815 163.058 167.533H163.055Z" fill="#070707"/>
<path d="M173.445 168.955L173.669 170.295H160.772C160.862 169.81 161.048 169.358 161.31 168.955H173.445Z" fill="white"/>
<path d="M156.892 164.801C156.558 164.467 156.103 164.277 155.627 164.277H153.837C154.258 163.623 154.471 162.851 154.423 162.066L154.375 161.242H159.282L159.182 163.457L159.503 165.328H158.161C157.685 165.328 157.23 165.138 156.896 164.804L156.892 164.801Z" fill="#F0BF9C"/>
<path d="M149.733 167.533L150.906 167.074C151.461 166.857 151.957 166.509 152.347 166.058L153.53 164.694C153.644 164.563 153.744 164.422 153.837 164.277H155.627C156.103 164.277 156.558 164.467 156.892 164.801C157.227 165.135 157.682 165.324 158.158 165.324H159.499L160.12 168.955H147.988C148.402 168.321 149.006 167.815 149.733 167.533Z" fill="#070707"/>
<path d="M160.12 168.955L160.348 170.295H147.45C147.54 169.81 147.726 169.358 147.988 168.955H160.12Z" fill="white"/>
<path d="M170.752 113.72L170.852 114.158C171.583 117.355 171.921 120.624 171.862 123.903L171.624 137.156L173.252 163.013H166.69L161.458 138.851L160.344 163.013H153.561L151.585 137.263L150.602 123.776C150.385 120.817 150.499 117.84 150.933 114.905L151.109 113.72H170.749H170.752Z" fill="#39D0FF"/>
<path d="M161.462 138.851L160.21 120.19L154.961 118.97L159.393 121.144L159.02 133.525L160.506 138.64L159.499 143.253L160.506 145.375L159.658 147.601L160.348 163.013L161.462 138.851Z" fill="#2897B9"/>
<path d="M158.582 113.72L158.279 116.597C158.234 117.034 158.265 117.479 158.375 117.906L158.889 119.883L157.913 119.373C157.42 119.115 157.051 118.674 156.882 118.147L156.654 117.43C156.585 117.217 156.568 116.989 156.603 116.765L157.068 113.724H158.582V113.72Z" fill="#2897B9"/>
<path d="M161.186 82.5887C161.658 82.0995 161.979 81.4829 162.207 80.8421C162.248 80.7215 162.286 80.601 162.32 80.4804L162.655 80.4253L163.214 85.224L162.338 85.7752C160.882 86.6846 159.034 86.6777 157.589 85.7545L157.354 83.4706C157.727 83.6084 158.117 83.6876 158.513 83.6945C159.506 83.7152 160.5 83.3052 161.186 82.5887Z" fill="#F0BF9C"/>
<path d="M162.32 80.4805C162.282 80.601 162.248 80.7216 162.207 80.8422C161.979 81.4829 161.658 82.0996 161.186 82.5887C160.5 83.3053 159.506 83.7152 158.513 83.6945C158.117 83.6877 157.727 83.605 157.354 83.4706L157.137 81.352L162.32 80.4805Z" fill="#422C4F"/>
<path d="M158.861 82.3856C161.851 82.3856 164.276 79.9638 164.276 76.9771V73.4702C164.276 70.4835 161.851 68.0618 158.861 68.0618C155.872 68.0618 153.447 70.4835 153.447 73.4702V76.9771C153.447 79.9638 155.872 82.3856 158.861 82.3856Z" fill="#F0BF9C"/>
<path d="M156.937 66.3117C158.168 65.4643 159.724 65.1026 161.203 65.3162C162.682 65.5297 164.072 66.3186 165.014 67.4761C166.093 68.8024 166.559 70.5455 166.628 72.2507C166.697 73.9594 166.586 75.7266 166.293 77.4111H164.3C163.386 77.1218 162.762 76.2709 162.762 75.3132V73.0775C158.703 73.0775 158.013 71.9476 156.551 70.1838C154.237 70.1838 153.447 72.4677 153.447 74.5105V76.9771C153.447 76.9771 151.702 71.9751 151.668 70.6729C151.637 69.3708 152.092 68.0376 153.02 67.1247C153.951 66.2118 155.685 65.9362 156.93 66.3117H156.937Z" fill="#070707"/>
<path d="M163.479 77.4111C163.479 78.5169 164.376 79.4126 165.483 79.4126C166.59 79.4126 167.486 78.5169 167.486 77.4111C167.486 76.3053 166.59 75.4097 165.483 75.4097C164.376 75.4097 163.479 76.3053 163.479 77.4111Z" fill="#F0BF9C"/>
<path d="M164.3 77.4111C164.3 78.0656 164.831 78.5927 165.483 78.5927C166.134 78.5927 166.666 78.0622 166.666 77.4111C166.666 76.76 166.134 76.2295 165.483 76.2295C164.831 76.2295 164.3 76.76 164.3 77.4111Z" fill="#EBA588"/>
<path d="M174.318 98.5696L169.128 99.8442L170.39 106.779L168.842 119.676L166.945 122.071C166.631 122.467 166.531 123.004 166.683 123.493L167.786 127.072L168.076 127.128C169.362 127.365 170.487 126.204 170.266 124.861C171.818 122.794 171.776 120.565 171.776 120.565L175.439 108.205C175.759 107.123 175.811 105.976 175.587 104.867L174.318 98.5696Z" fill="#F0BF9C"/>
<path d="M174.304 98.5696L169.176 99.7787L169.528 101.636L174.414 99.0932L174.304 98.5696Z" fill="#BC825B"/>
<path d="M159.013 73.4668C159.668 73.4668 160.248 73.7803 160.617 74.2626H157.41C157.779 73.7803 158.358 73.4668 159.013 73.4668Z" fill="#7C4756"/>
<path d="M158.561 75.5096C158.561 75.7576 158.761 75.9574 159.01 75.9574C159.258 75.9574 159.458 75.7576 159.458 75.5096C159.458 75.2616 159.258 75.0618 159.01 75.0618C158.761 75.0618 158.561 75.2616 158.561 75.5096Z" fill="#422C4F"/>
<path d="M154.413 73.4668C153.868 73.4668 153.389 73.7803 153.082 74.2626H155.744C155.437 73.7803 154.958 73.4668 154.413 73.4668Z" fill="#7C4756"/>
<path d="M154.789 75.5096C154.789 75.7576 154.623 75.9574 154.416 75.9574C154.209 75.9574 154.044 75.7576 154.044 75.5096C154.044 75.2616 154.209 75.0618 154.416 75.0618C154.623 75.0618 154.789 75.2616 154.789 75.5096Z" fill="#422C4F"/>
<path d="M156.247 77.7798H157.917C157.772 78.0623 157.444 78.2724 157.127 78.2931C156.81 78.3137 156.427 78.0382 156.247 77.7798Z" fill="#EBA588"/>
<path d="M155.427 78.9717C156.727 79.23 158.065 79.3058 159.389 79.1922C159.024 79.9259 158.213 80.4668 157.392 80.4426C156.572 80.4185 155.751 79.7261 155.43 78.9717H155.427Z" fill="white"/>
<path d="M212.531 125.698H215.049L206.207 169.593H203.693L212.531 125.698Z" fill="#37539A"/>
<path d="M211.534 161.725L210.09 167.488H205.21L206.431 161.725H211.534Z" fill="#F99D87"/>
<path d="M201.482 167.419L202.61 166.978C203.144 166.768 203.62 166.434 203.996 166L204.858 165.008C205.051 164.787 205.21 164.546 205.341 164.291H207.317C207.772 164.291 208.21 164.474 208.534 164.794C208.855 165.118 209.293 165.297 209.752 165.297H210.893L211.476 168.787H199.813C200.21 168.177 200.789 167.691 201.489 167.419H201.482Z" fill="#070707"/>
<path d="M211.469 168.787L211.683 170.072H199.289C199.375 169.607 199.554 169.169 199.806 168.787H211.469Z" fill="white"/>
<path d="M214.531 161.725L215.528 168.818H220.521L220.321 161.725H214.531Z" fill="#F99D87"/>
<path d="M211.041 167.419L212.169 166.978C212.704 166.768 213.179 166.434 213.555 166L214.418 165.008C214.611 164.787 214.769 164.546 214.9 164.291H216.876C217.332 164.291 217.769 164.474 218.094 164.794C218.418 165.118 218.852 165.297 219.311 165.297H220.452L221.035 168.787H209.372C209.769 168.177 210.348 167.691 211.048 167.419H211.041Z" fill="#070707"/>
<path d="M221.028 168.787L221.242 170.072H208.848C208.934 169.607 209.114 169.169 209.365 168.787H221.028Z" fill="white"/>
<path d="M210.79 137.776C210.79 137.776 203.786 163.327 204.903 163.578C206.02 163.829 211.941 162.796 211.941 162.796L216.231 145.355L210.79 137.776Z" fill="#E36B85"/>
<path d="M220.373 162.796L219.487 144.765C219.487 144.765 238.426 149.199 248.634 145.802C258.842 142.402 254.255 130.728 254.255 130.728L219.487 132.946C219.487 132.946 208.389 131.761 210.314 144.769C212.238 157.777 213.421 162.799 213.421 162.799H220.373V162.796Z" fill="#E68799"/>
<path d="M251.593 148.586C254.021 147.449 257.597 144.641 259.138 137.783C261.58 126.921 260.249 119.824 253.7 119.935C247.155 120.045 251.369 131.757 247.413 138.113C243.454 144.469 234.209 138.261 233.691 143.728C233.295 147.9 236.261 148.975 237.685 149.251V150.38H239.023L231.064 169.596H233.605L237.402 160.433H252.003L255.8 169.596H258.342L250.382 150.38H251.589V148.586H251.593ZM251.117 158.286H238.292L241.568 150.38H247.844L251.12 158.286H251.117Z" fill="#252728"/>
<path d="M228.846 125.698H226.329L235.171 169.593H237.685L228.846 125.698Z" fill="#37539A"/>
<path d="M254.738 135.178C254.821 136.467 253.976 137.951 253.252 138.837C250.62 137.714 248.437 135.812 245.61 135.061C242.316 134.186 238.854 134.186 235.488 133.842C233.16 133.594 235.581 129.735 236.126 128.664C237.071 126.811 237.802 124.158 237.619 122.074C241.013 123.945 245.713 125.763 247.81 129.105C248.565 130.311 249.4 131.988 250.717 132.691C251.9 133.325 253.431 132.784 254.334 134.014C254.59 134.365 254.714 134.761 254.741 135.178H254.738Z" fill="#DD9A05"/>
<path d="M218.68 109.001C218.68 109.001 215.635 105.587 216.866 104.998C218.101 104.405 219.418 104.267 219.639 104.364C219.859 104.464 218.456 100.929 219.27 100.864C220.083 100.798 221.315 104.96 221.401 107.388C221.487 109.817 218.676 109.001 218.676 109.001H218.68Z" fill="#E9B98A"/>
<path d="M217.373 108.26L221.894 107.285L225.07 116.683C225.07 116.683 235.447 103.124 239.726 102.879L237.168 113.875C237.168 113.875 227.881 123.397 226.536 123.641C225.191 123.886 221.649 124.375 220.304 123.032C218.959 121.688 217.373 108.263 217.373 108.263V108.26Z" fill="#33AED4"/>
<path d="M247.386 90.1605C248.972 93.9671 250.544 97.7771 252.11 101.591C252.445 102.404 253.283 103.671 253.317 104.539C253.345 105.221 252.748 105.449 252.082 105.707C250.689 106.255 249.162 106.272 247.703 106.517C245.992 106.806 244.272 107.192 242.547 107.385C240.44 107.623 238.692 105.917 238.095 103.999C237.564 102.293 237.733 100.461 237.909 98.6831C238.085 96.8952 238.254 95.1039 238.385 93.3126C238.464 92.2378 238.547 91.1595 238.557 90.0813C238.568 89.0202 237.512 88.1211 238.426 87.1118C238.971 86.5089 239.813 86.2988 240.602 86.1162C241.695 85.8647 242.851 85.6133 243.923 85.9405C245.723 86.4917 246.654 88.4208 247.375 90.157L247.386 90.1605Z" fill="#1F2326"/>
<path d="M233.847 116.242C233.743 112.184 236.392 108.587 237.233 104.615C236.943 109.359 236.916 114.123 237.15 118.87C237.223 120.32 236.371 122.039 235.085 120.52C234.195 119.473 233.881 117.558 233.85 116.238L233.847 116.242Z" fill="#2D7FC9"/>
<path d="M254.272 129.608C254.372 131.334 254.421 133.063 254.414 134.792C254.4 137.404 252.217 137.876 250.093 136.646C247.889 135.371 245.592 134.124 243.009 133.876C239.292 133.521 239.05 132.605 239.078 128.588C239.109 124.658 237.333 121.092 236.257 117.396C235.754 115.67 235.178 113.589 235.298 111.774C235.429 109.8 236.585 107.716 237.323 105.866C238.875 101.99 244.258 102.194 247.655 102.655C249.558 102.914 251.689 103.031 252.876 104.619C254.486 106.775 254.669 109.831 254.079 112.359C253.334 115.542 251.962 118.739 252.541 121.953C252.917 124.041 253.983 125.577 254.148 127.717C254.196 128.344 254.238 128.974 254.276 129.601L254.272 129.608Z" fill="#F4B516"/>
<path d="M243.144 103.217C243.096 103.527 240.464 104.254 240.175 105.156C239.888 106.059 237.94 111.96 237.94 111.96L239.013 124.12L237.337 134.493L233.191 133.38L235.978 121.116L234.998 110.971L238.002 103.668C238.002 103.668 239.688 102.483 242.489 102.414C245.292 102.345 243.144 103.213 243.144 103.213V103.217Z" fill="#33AED4"/>
<path d="M246.834 102.062C246.834 102.062 243.151 108.756 243.292 112.972C243.492 118.932 242.123 125.501 243.882 131.461C244.558 133.752 246.244 135.281 247.989 136.794C248.765 137.469 250.058 138.285 250.524 139.229C251.058 140.314 250.448 141.52 251.469 142.578C252.151 143.284 253.141 143.625 254.121 143.711C255.1 143.794 256.083 143.646 257.052 143.494C255.51 143.732 255.262 132.977 255.138 131.895C254.528 126.5 253.89 121.089 253.138 115.732C252.983 114.623 252.958 103.685 252.314 103.516L246.834 102.066V102.062Z" fill="#39D0FF"/>
<path d="M251.796 109.769C250.938 113.279 250.065 116.803 248.786 120.186C248.137 121.902 247.382 123.586 246.475 125.181C245.782 126.401 245.365 127.775 244.685 128.933C244.651 128.995 243.082 124.971 243.009 124.399C242.74 122.291 243.675 121.647 244.954 120.031C247.513 116.807 249.803 113.369 251.796 109.765V109.769Z" fill="#33B7E0"/>
<path d="M243.882 131.458C243.854 131.544 245.358 133.955 245.475 134.145C246.203 135.34 247.099 136.432 248.134 137.373C248.248 137.476 251.138 132.505 251.358 132.033C252.334 129.966 252.989 127.823 253.565 125.615C254.259 122.949 253.776 120.52 253.424 117.826C253.424 117.826 244.027 131.244 243.878 131.454L243.882 131.458Z" fill="#33B7E0"/>
<path d="M247.951 101.859C247.665 103.1 246.517 103.861 245.372 104.229C244.651 104.467 242.185 105.001 241.63 104.415C241.247 104.016 241.499 103.365 241.702 102.848C241.885 102.376 241.995 101.901 242.044 101.425C242.202 99.9371 241.744 98.4834 240.906 97.2191C240.906 97.2191 240.906 97.2168 240.906 97.2122C240.782 97.0159 240.647 96.8367 240.509 96.6507C240.502 96.6507 240.502 96.6473 240.502 96.6473L240.751 96.4785C240.837 96.4302 240.923 96.3958 241.016 96.3614C241.609 96.1237 242.268 96.1305 242.902 95.979C244.027 95.7172 245.147 95.2487 246.248 94.8353C246.448 94.756 246.644 94.6837 246.841 94.6079C245.406 95.1246 248.189 100.843 247.951 101.866V101.859Z" fill="#E9B98A"/>
<path d="M246.637 95.1865C245.965 98.7037 243.361 101.043 242.433 101.78C242.592 100.292 242.133 98.8381 241.295 97.5738C241.295 97.5738 241.295 97.5715 241.295 97.5669C241.095 97.1294 240.94 97.0261 240.899 97.0054C240.892 97.0054 240.892 97.002 240.892 97.002L241.14 96.8332C241.226 96.785 241.313 96.7505 241.406 96.7161C241.999 96.4784 242.658 96.4852 243.292 96.3337C244.416 96.0719 245.537 95.6034 246.637 95.19V95.1865Z" fill="#CA876F"/>
<path d="M247.989 87.036C249.21 88.7688 248.996 90.4464 248.803 92.4031C248.679 93.6398 247.786 96.0237 246.041 95.4828C245.999 95.5862 245.982 95.6861 245.954 95.7929C245.251 98.3834 241.333 101.422 238.854 99.1551C236.933 97.4016 236.371 94.0429 236.392 91.5729C236.392 91.3628 236.402 91.1595 236.416 90.9769C236.509 89.7747 236.554 88.2934 236.985 87.1566C237.274 86.3952 237.937 85.9061 238.647 85.4789C241.516 83.7634 245.982 84.1802 247.989 87.036Z" fill="#E9B98A"/>
<path d="M249.855 103.062C248.806 102.879 248.32 102.328 247.675 101.494C246.399 99.8682 246.158 98.1044 246.01 96.1478C245.868 94.2634 246.723 92.2895 246.196 90.4465C246.058 89.9711 245.892 89.5543 245.854 89.0685C245.851 88.979 245.854 88.886 245.854 88.7895C245.854 88.8791 245.844 88.9721 245.844 89.0651C245.806 90.1158 245.772 91.1665 245.734 92.2137C245.037 91.883 244.347 91.7728 243.627 91.511C242.568 91.1389 242.844 91.4593 242.609 90.3948C242.506 89.9194 242.527 89.3579 242.558 88.8067C242.575 88.4416 242.606 88.0764 242.602 87.7526C242.54 88.0971 242.478 88.4381 242.42 88.7826C242.285 89.537 242.147 90.2984 242.013 91.0562C241.199 90.9253 240.395 90.7944 239.588 90.6635C239.561 89.7816 239.53 88.9066 239.502 88.0247C239.488 87.6079 239.475 87.1842 239.461 86.7639C239.361 87.1428 239.264 87.5252 239.164 87.9042C238.95 88.7309 238.73 89.5508 238.519 90.3741C237.405 90.2777 236.292 90.1812 235.178 90.0848C234.967 88.7688 235.195 87.4012 235.774 86.2058C235.857 86.0336 235.95 85.8579 236.047 85.6926C236.795 84.4317 237.547 84.1734 238.581 83.6704C238.781 83.574 238.985 83.4672 239.209 83.3431C240.282 82.7472 241.123 82.227 242.333 82.0065C244.258 81.6586 247.461 82.1099 247.627 84.6074C247.855 84.5454 248.089 84.5247 248.32 84.5489C248.644 84.5799 248.965 84.6901 249.255 84.8589C249.5 85.0001 249.72 85.1827 249.903 85.3963C250.575 86.1852 250.703 87.2772 250.807 88.3176C250.834 88.6552 250.862 88.9824 250.91 89.2959C251.12 90.8048 251.445 92.2964 251.882 93.7501C252.317 95.2039 252.858 96.63 253.507 98.008C253.827 98.6935 254.11 99.4135 254.548 100.03C256.021 102.101 251.22 103.292 249.869 103.058L249.855 103.062Z" fill="#1F2326"/>
<path d="M240.757 92.1516C240.757 92.1516 239.588 94.8903 238.74 95.4277C237.895 95.9651 240.151 96.5335 240.944 95.4863C240.944 95.4863 240.144 95.848 240.109 95.159C240.075 94.47 240.757 92.1516 240.757 92.1516Z" fill="#CA876F"/>
<path d="M237.975 92.7614C237.943 93.2265 238.106 93.6157 238.337 93.6295C238.564 93.6433 238.775 93.2781 238.806 92.8131C238.837 92.348 238.675 91.9587 238.444 91.945C238.216 91.9312 238.006 92.2963 237.975 92.7614Z" fill="#1F2326"/>
<path d="M241.854 92.8371C241.823 93.3021 241.985 93.6914 242.216 93.7052C242.444 93.719 242.654 93.3538 242.685 92.8887C242.716 92.4237 242.554 92.0344 242.323 92.0206C242.096 92.0069 241.885 92.372 241.854 92.8371Z" fill="#1F2326"/>
<path d="M238.661 96.668C238.661 96.668 240.164 97.2915 241.761 96.4819C241.761 96.4819 241.151 97.4637 239.961 97.4568C238.771 97.4499 238.661 96.668 238.661 96.668Z" fill="white"/>
<path d="M237.592 120.379C237.592 120.379 236.105 119.387 234.578 118.343C233.053 117.303 231.602 117.31 230.322 117.361C229.643 117.389 228.184 118.56 230.129 118.453C232.074 118.346 228.243 119.091 230.405 120.603C232.722 122.225 234.498 121.202 235.35 122.58C236.205 123.958 237.588 120.376 237.588 120.376L237.592 120.379Z" fill="#E9B98A"/>
<path d="M249.765 110.544C249.765 110.544 248.824 119.563 247.461 119.828C246.099 120.093 236.633 118.601 236.633 118.601L233.847 122.894C233.847 122.894 253.593 132.212 254.831 126.638C256.066 121.061 257.669 109.293 252.317 103.509C251.265 102.373 249.769 110.54 249.769 110.54L249.765 110.544Z" fill="#39D0FF"/>
<path d="M168.035 125.698H165.521L174.359 169.593H176.877L168.035 125.698Z" fill="#37539A"/>
<path d="M151.723 125.698H154.237L145.398 169.593H142.881L151.723 125.698Z" fill="#37539A"/>
<path d="M231.619 123.703H144.767V127.693H231.619V123.703Z" fill="#F7F7F7"/>
<path d="M225.26 121.75H203.662V123.4H225.26V121.75Z" fill="#304573"/>
<path d="M183.991 123.297L177.128 107.795C176.863 107.195 177.304 106.52 177.96 106.52H207.496C207.862 106.52 208.193 106.741 208.334 107.078L215.256 123.566L183.988 123.3L183.991 123.297Z" fill="#304573"/>
<path d="M182.45 123.297L175.587 107.795C175.321 107.195 175.763 106.52 176.418 106.52H205.955C206.32 106.52 206.651 106.741 206.793 107.078L213.714 123.566L182.446 123.3L182.45 123.297Z" fill="#344B7E"/>
<path d="M196.551 113.679C197.051 115.191 196.413 116.758 195.126 117.186C193.84 117.613 192.388 116.731 191.888 115.222C191.388 113.71 192.026 112.142 193.312 111.715C194.599 111.288 196.051 112.17 196.551 113.679Z" fill="white"/>
<path d="M140.501 67.0972H125.99C124.052 67.0972 122.483 65.5298 122.483 63.5938C122.483 61.6578 124.052 60.0903 125.99 60.0903H140.501C142.44 60.0903 144.009 61.6578 144.009 63.5938C144.009 65.5298 142.44 67.0972 140.501 67.0972Z" fill="#FF901B"/>
<path d="M130.294 63.6007C130.294 64.0968 129.894 64.4998 129.401 64.4998C128.904 64.4998 128.5 64.1002 128.5 63.6076C128.5 63.115 128.901 62.7085 129.394 62.7085C129.887 62.7085 130.294 63.1081 130.294 63.6007Z" fill="white"/>
<path d="M134.142 63.5902C134.142 64.0863 133.742 64.4893 133.249 64.4893C132.753 64.4893 132.349 64.0897 132.349 63.5971C132.349 63.101 132.749 62.698 133.242 62.698C133.739 62.698 134.142 63.0976 134.142 63.5902Z" fill="white"/>
<path d="M137.991 63.5765C137.991 64.0726 137.591 64.4757 137.098 64.4757C136.601 64.4757 136.198 64.0761 136.198 63.5834C136.198 63.0874 136.598 62.6843 137.091 62.6843C137.587 62.6843 137.991 63.0839 137.991 63.5765Z" fill="white"/>
<path d="M256.814 76.9014C261.055 76.9014 264.494 73.4666 264.494 69.2296C264.494 64.9926 261.055 61.5579 256.814 61.5579C252.572 61.5579 249.134 64.9926 249.134 69.2296C249.134 73.4666 252.572 76.9014 256.814 76.9014Z" fill="#F99595"/>
<path d="M259.424 67.2557C258.793 66.6391 257.786 66.6494 257.173 67.2798L256.766 67.6932L256.348 67.2833C255.721 66.6666 254.714 66.6735 254.096 67.3005C253.479 67.9275 253.486 68.9334 254.114 69.55L255.662 71.0761C255.662 71.0761 255.669 71.083 255.672 71.0864C255.921 71.3276 256.224 71.4723 256.545 71.5205C257.035 71.5963 257.552 71.4412 257.928 71.0623L259.452 69.5087C260.066 68.8817 260.056 67.8724 259.428 67.2592L259.424 67.2557Z" fill="white"/>
<path d="M209.29 32.6379H221.221C222.018 32.6379 222.663 33.2821 222.663 34.0779V44.354C222.663 45.1497 222.018 45.7939 221.221 45.7939H209.693C208.672 45.7939 207.848 44.9672 207.848 43.9509V34.0813C207.848 33.2856 208.493 32.6414 209.29 32.6414V32.6379Z" fill="#39D0FF"/>
<path d="M214.031 42.0529C215.287 42.0736 216.559 42.0908 217.714 42.0116C218.08 41.9875 218.397 41.4053 217.952 41.2227C218.138 41.1262 218.328 41.0332 218.411 40.8265C218.487 40.6267 218.394 40.358 218.19 40.3064C218.625 40.4132 218.797 39.7242 218.459 39.5003C218.638 39.3487 218.79 39.1454 218.828 38.9112C218.866 38.6769 218.77 38.4151 218.563 38.3014C218.428 38.2291 218.266 38.2257 218.111 38.2222C217.587 38.2188 217.066 38.2153 216.542 38.2119C216.683 37.3954 216.725 36.5032 216.311 35.7867C216.187 35.5697 215.849 35.3113 215.583 35.4766C215.331 35.6317 215.404 36.0209 215.414 36.2655C215.466 37.2818 214.886 38.3049 213.99 38.7837C213.99 38.7837 214.048 40.9471 214.035 42.0529H214.031Z" fill="#F9F9F9"/>
<path d="M213.579 38.7837H211.679V42.0494H213.579V38.7837Z" fill="#F9F9F9"/>
<path d="M276.774 95.6242L266.287 95.6483C265.59 95.6483 265.025 95.0868 265.021 94.3875C265.021 93.6916 265.584 93.1267 266.284 93.1232L276.771 93.0991C277.467 93.0991 278.033 93.6606 278.036 94.3599C278.036 95.0558 277.474 95.6208 276.774 95.6242Z" fill="#B1DCFB"/>
<path d="M69.1097 94.0292L47.6632 94.0534C46.9666 94.0534 46.401 93.4918 46.3976 92.7925C46.3976 92.0967 46.9597 91.5317 47.6597 91.5283L69.1062 91.5042C69.8028 91.5042 70.3684 92.0657 70.3718 92.765C70.3718 93.4608 69.8097 94.0258 69.1097 94.0292Z" fill="#B1DCFB"/>
<path d="M249.422 48.96L247.419 48.9628C246.893 48.9635 246.467 49.3898 246.468 49.9149L246.471 51.7924C246.471 52.3175 246.898 52.7425 247.424 52.7418L249.427 52.739C249.953 52.7383 250.379 52.312 250.378 51.7869L250.375 49.9094C250.375 49.3843 249.948 48.9593 249.422 48.96Z" fill="#B1DCFB"/>
<path d="M67.2103 136.845L65.2067 136.848C64.6811 136.848 64.2555 137.275 64.2563 137.8L64.2589 139.677C64.2596 140.202 64.6864 140.627 65.212 140.627L67.2156 140.624C67.7413 140.623 68.1668 140.197 68.1661 139.672L68.1635 137.794C68.1627 137.269 67.736 136.844 67.2103 136.845Z" fill="#B1DCFB"/>
<path d="M135.018 99.1978L133.263 99.2002C132.8 99.2009 132.425 99.5762 132.426 100.039L132.428 101.685C132.429 102.147 132.805 102.522 133.267 102.521L135.023 102.519C135.486 102.518 135.86 102.143 135.86 101.68L135.857 100.034C135.857 99.5714 135.481 99.1972 135.018 99.1978Z" fill="white"/>
<path d="M127.704 47.034H117.255C116.569 47.034 116.013 46.4794 116.013 45.7939C116.013 45.1083 116.569 44.5537 117.255 44.5537H127.704C128.39 44.5537 128.945 45.1083 128.945 45.7939C128.945 46.4794 128.39 47.034 127.704 47.034Z" fill="white"/>
<path d="M175.177 39.9893H164.727C164.041 39.9893 163.486 39.4347 163.486 38.7492C163.486 38.0637 164.041 37.509 164.727 37.509H175.177C175.863 37.509 176.418 38.0637 176.418 38.7492C176.418 39.4347 175.863 39.9893 175.177 39.9893Z" fill="#39D0FF"/>
<path d="M151.137 32.1902H138.487C137.219 32.1902 136.191 33.2174 136.191 34.4845V44.1646C136.191 45.4317 137.219 46.4589 138.487 46.4589H151.137C152.405 46.4589 153.433 45.4317 153.433 44.1646V34.4845C153.433 33.2174 152.405 32.1902 151.137 32.1902Z" fill="#F99595"/>
<path d="M141.057 40.4407H138.994V43.1483H141.057V40.4407Z" fill="#F7F7F7"/>
<path d="M144.247 38.6011H142.184V43.1518H144.247V38.6011Z" fill="#F7F7F7"/>
<path d="M147.436 37.1921H145.374V43.1518H147.436V37.1921Z" fill="#F7F7F7"/>
<path d="M150.626 35.0803H148.564V43.1517H150.626V35.0803Z" fill="#F7F7F7"/>
<path d="M80.1347 57.5891C85.3018 57.5891 89.4906 53.4048 89.4906 48.2432C89.4906 43.0815 85.3018 38.8972 80.1347 38.8972C74.9676 38.8972 70.7788 43.0815 70.7788 48.2432C70.7788 53.4048 74.9676 57.5891 80.1347 57.5891Z" fill="#DD9E10"/>
<path d="M85.5087 53.6136C88.4769 50.6485 88.4769 45.8412 85.5087 42.8762C82.5405 39.9111 77.7281 39.9111 74.7598 42.8762C71.7916 45.8412 71.7916 50.6485 74.7598 53.6136C77.7281 56.5786 82.5405 56.5786 85.5087 53.6136Z" fill="#F4B516"/>
<path d="M80.7416 52.1808V53.4864H79.576V52.2152C78.4207 52.1463 77.3138 51.7846 76.6723 51.2851L77.3138 49.8658C77.8966 50.2964 78.7346 50.6099 79.576 50.6926V48.7462C78.2828 48.4328 76.8344 48.0022 76.8344 46.3348C76.8344 45.1016 77.731 44.0405 79.576 43.8304V42.5386H80.7416V43.8097C81.6175 43.8786 82.4659 44.1129 83.1073 44.5194L82.5245 45.9524C81.9314 45.6149 81.3244 45.415 80.7416 45.3462V47.327C82.0348 47.6301 83.4591 48.0607 83.4591 49.7039C83.4591 50.9165 82.5728 51.9638 80.7416 52.1842V52.1808ZM79.5726 47.0341V45.3806C78.9553 45.5218 78.7104 45.8594 78.7104 46.2418C78.7104 46.6483 79.0587 46.8722 79.5726 47.0341ZM81.5796 49.8417C81.5796 49.4352 81.2417 49.2113 80.7416 49.0391V50.6478C81.3244 50.5204 81.5796 50.2172 81.5796 49.8452V49.8417Z" fill="#F7F7F7"/>
<mask id="mask0_570_6174" style="mask-type:luminance" maskUnits="userSpaceOnUse" x="0" y="-6" width="333" height="210">
<path d="M333 -5.63403H0V203.634H333V-5.63403Z" fill="white"/>
</mask>
<g mask="url(#mask0_570_6174)">
<path d="M278.681 27.1228L276.022 26.6577C275.712 25.5003 275.25 24.391 274.65 23.3507L276.198 21.1425C276.767 20.3329 276.671 19.2306 275.971 18.5313L274.381 16.9432C273.67 16.2542 272.567 16.1784 271.767 16.7572L269.556 18.3039C268.518 17.7045 267.404 17.2463 266.246 16.9329L265.787 14.2183C265.621 13.2537 264.794 12.5441 263.814 12.5269H261.521C260.528 12.5269 259.676 13.2399 259.507 14.2183L259.042 16.864C257.883 17.174 256.773 17.6356 255.731 18.235L253.531 16.7537C252.72 16.1853 251.617 16.2818 250.917 16.9811L249.327 18.5692C248.627 19.2685 248.531 20.3708 249.1 21.1804L250.648 23.3886C250.048 24.4255 249.589 25.5382 249.275 26.6956L246.627 27.1607C245.648 27.3295 244.934 28.1804 244.934 29.1725V31.422C244.934 32.4141 245.648 33.265 246.627 33.4338L249.275 33.8989C249.586 35.0564 250.048 36.1656 250.648 37.206L249.1 39.4141C248.531 40.2237 248.627 41.326 249.327 42.0253L250.917 43.6134C251.617 44.3127 252.72 44.4092 253.531 43.8408L255.741 42.294C256.779 42.8935 257.893 43.3516 259.052 43.6651L259.518 46.3108C259.687 47.2891 260.538 48.0022 261.532 48.0022H263.818C264.811 48.0022 265.663 47.2891 265.832 46.3108L266.297 43.6651C267.456 43.3551 268.567 42.8935 269.608 42.294L271.767 43.8063C272.577 44.3748 273.681 44.2783 274.381 43.579L275.971 41.9909C276.671 41.2916 276.767 40.1892 276.198 39.3797L274.65 37.1577C275.25 36.1208 275.708 35.0081 276.022 33.8507L278.681 33.3856C279.661 33.2168 280.374 32.3659 280.374 31.3738V29.1243C280.374 28.1356 279.657 27.2882 278.681 27.1194V27.1228ZM262.652 36.3206C259.297 36.3206 256.576 33.6026 256.576 30.2508C256.576 26.8989 259.297 24.1809 262.652 24.1809C266.008 24.1809 268.729 26.8989 268.729 30.2508V30.2852C268.711 33.6233 265.994 36.3206 262.652 36.3206Z" fill="#EBEBEB"/>
<path d="M307.463 15.2758L305.328 14.9037C305.08 13.9736 304.707 13.0814 304.228 12.2512L305.473 10.4805C305.932 9.82941 305.852 8.94408 305.29 8.38256L304.014 7.10796C303.442 6.55678 302.559 6.49477 301.914 6.95983L300.141 8.20343C299.307 7.72115 298.414 7.35254 297.486 7.10451L297.12 4.92735C296.986 4.1557 296.324 3.58385 295.538 3.57007H293.696C292.899 3.57007 292.213 4.14192 292.079 4.92735L291.706 7.05284C290.775 7.30087 289.882 7.67292 289.051 8.15176L287.285 6.96327C286.633 6.5051 285.747 6.58434 285.185 7.14585L283.909 8.42046C283.347 8.98197 283.268 9.86731 283.726 10.5184L284.971 12.2891C284.488 13.1227 284.119 14.0149 283.871 14.9416L281.743 15.3137C280.957 15.448 280.381 16.1301 280.385 16.9293V18.7344C280.385 19.5302 280.957 20.2157 281.743 20.3501L283.871 20.7221C284.119 21.6522 284.492 22.5445 284.971 23.3747L283.726 25.1453C283.268 25.7964 283.347 26.6818 283.909 27.2433L285.185 28.5179C285.747 29.0794 286.633 29.1586 287.285 28.7005L289.058 27.4569C289.892 27.9391 290.786 28.3077 291.713 28.5558L292.086 30.6813C292.22 31.4667 292.903 32.042 293.703 32.0385H295.538C296.334 32.0385 297.02 31.4667 297.155 30.6813L297.527 28.5558C298.459 28.3077 299.352 27.9357 300.183 27.4569L301.914 28.6729C302.566 29.1311 303.452 29.0518 304.014 28.4903L305.29 27.2157C305.852 26.6542 305.932 25.7689 305.473 25.1178L304.228 23.3333C304.711 22.4997 305.08 21.6074 305.328 20.6808L307.463 20.3087C308.249 20.1744 308.825 19.4923 308.821 18.6931V16.888C308.821 16.0922 308.245 15.4136 307.463 15.2792V15.2758ZM294.596 22.6581C291.903 22.6581 289.716 20.4775 289.716 17.7836C289.716 15.0897 291.899 12.9126 294.596 12.9126C297.289 12.9126 299.476 15.0932 299.476 17.7871V17.8146C299.462 20.4948 297.283 22.6616 294.596 22.6616V22.6581Z" fill="#EBEBEB"/>
<path d="M296.324 56.8761L294.189 56.5041C293.941 55.5739 293.568 54.6817 293.089 53.8515L294.334 52.0808C294.793 51.4298 294.713 50.5444 294.151 49.9829L292.875 48.7083C292.303 48.1571 291.42 48.0917 290.775 48.5602L289.003 49.8038C288.168 49.3215 287.275 48.9529 286.347 48.7049L285.982 46.5277C285.847 45.756 285.185 45.1842 284.399 45.1704H282.557C281.761 45.1704 281.074 45.7423 280.94 46.5277L280.567 48.6532C279.636 48.9012 278.743 49.2733 277.912 49.7521L276.146 48.5636C275.495 48.1054 274.608 48.1847 274.046 48.7462L272.77 50.0208C272.208 50.5823 272.129 51.4676 272.588 52.1187L273.832 53.8894C273.35 54.7231 272.981 55.6153 272.732 56.542L270.605 56.914C269.818 57.0484 269.242 57.7304 269.246 58.5296V60.3348C269.246 61.1305 269.818 61.8161 270.605 61.9504L272.732 62.3225C272.981 63.2526 273.353 64.1448 273.832 64.975L272.588 66.7457C272.129 67.3968 272.208 68.2821 272.77 68.8436L274.046 70.1182C274.608 70.6797 275.495 70.759 276.146 70.3008L277.919 69.0572C278.754 69.5395 279.647 69.9081 280.574 70.1561L280.947 72.2816C281.081 73.067 281.764 73.6423 282.564 73.6389H284.399C285.195 73.6389 285.882 73.067 286.016 72.2816L286.389 70.1561C287.32 69.9081 288.213 69.536 289.044 69.0572L290.775 70.2732C291.427 70.7314 292.313 70.6522 292.875 70.0907L294.151 68.8161C294.713 68.2545 294.793 67.3692 294.334 66.7181L293.089 64.9337C293.572 64.1 293.941 63.2078 294.189 62.2811L296.324 61.9091C297.11 61.7747 297.686 61.0926 297.683 60.2934V58.4883C297.683 57.6925 297.107 57.0139 296.324 56.8796V56.8761ZM283.454 64.2585C280.761 64.2585 278.574 62.0779 278.574 59.384C278.574 56.6901 280.757 54.5095 283.454 54.5095C286.147 54.5095 288.334 56.6901 288.334 59.384V59.4115C288.32 62.0917 286.14 64.2585 283.454 64.2585Z" fill="#EBEBEB"/>
<path d="M38.9798 81.3865L36.3209 80.9214C36.0106 79.7639 35.5484 78.6547 34.9484 77.6143L36.4968 75.4062C37.0658 74.5966 36.9692 73.4943 36.2692 72.7949L34.6794 71.2069C33.969 70.5179 32.8655 70.4421 32.0654 71.0208L29.8549 72.5676C28.8169 71.9682 27.703 71.51 26.5443 71.1965L26.0856 68.482C25.9201 67.5174 25.0925 66.8078 24.1131 66.7905H21.8198C20.8266 66.7905 19.9748 67.5036 19.8058 68.482L19.3403 71.1276C18.1816 71.4377 17.0711 71.8993 16.0297 72.4987L13.8295 71.0174C13.0191 70.449 11.9156 70.5454 11.2155 71.2448L9.62574 72.8328C8.92569 73.5322 8.82913 74.6345 9.39814 75.4441L10.9465 77.6522C10.3465 78.6891 9.88783 79.8018 9.57402 80.9593L6.92553 81.4244C5.94615 81.5932 5.2323 82.4441 5.2323 83.4362V85.6857C5.2323 86.6778 5.94615 87.5287 6.92553 87.6975L9.57402 88.1625C9.88438 89.32 10.3465 90.4293 10.9465 91.4696L9.39814 93.6778C8.82913 94.4873 8.92569 95.5897 9.62574 96.289L11.2155 97.8771C11.9156 98.5764 13.0191 98.6729 13.8295 98.1045L16.04 96.5577C17.078 97.1571 18.1919 97.6153 19.3506 97.9288L19.8162 100.574C19.9852 101.553 20.837 102.266 21.8301 102.266H24.1165C25.1097 102.266 25.9615 101.553 26.1305 100.574L26.596 97.9288C27.7547 97.6187 28.8652 97.1571 29.9066 96.5577L32.0654 98.07C32.8758 98.6384 33.9794 98.542 34.6794 97.8427L36.2692 96.2546C36.9692 95.5553 37.0658 94.4529 36.4968 93.6433L34.9484 91.4214C35.5484 90.3845 36.0071 89.2718 36.3209 88.1143L38.9798 87.6493C39.9591 87.4805 40.673 86.6296 40.673 85.6375V83.3879C40.673 82.3993 39.9557 81.5518 38.9798 81.383V81.3865ZM22.9509 90.5843C19.5955 90.5843 16.8746 87.8663 16.8746 84.5144C16.8746 81.1626 19.5955 78.4445 22.9509 78.4445C26.3064 78.4445 29.0273 81.1626 29.0273 84.5144V84.5489C29.01 87.887 26.2926 90.5843 22.9509 90.5843Z" fill="#EBEBEB"/>
<path d="M67.7647 69.536L65.6301 69.164C65.3818 68.2339 65.0094 67.3416 64.53 66.5114L65.7749 64.7407C66.2336 64.0897 66.1543 63.2043 65.5922 62.6428L64.3162 61.3682C63.7437 60.817 62.8609 60.7516 62.216 61.2201L60.4435 62.4637C59.6089 61.9814 58.7158 61.6128 57.7881 61.3648L57.4226 59.1876C57.2881 58.4159 56.626 57.8441 55.8397 57.8303H53.9982C53.2015 57.8303 52.5153 58.4022 52.3808 59.1876L52.0084 61.3131C51.0772 61.5611 50.1841 61.9332 49.353 62.412L47.5873 61.2235C46.9355 60.7654 46.0493 60.8446 45.4872 61.4061L44.2112 62.6807C43.6491 63.2422 43.5698 64.1276 44.0284 64.7786L45.2733 66.5493C44.7905 67.383 44.4216 68.2752 44.1733 69.2019L42.0455 69.5739C41.2592 69.7083 40.6833 70.3903 40.6868 71.1896V72.9947C40.6868 73.7904 41.2592 74.476 42.0455 74.6103L44.1733 74.9824C44.4216 75.9125 44.794 76.8047 45.2733 77.6349L44.0284 79.4056C43.5698 80.0567 43.6491 80.942 44.2112 81.5035L45.4872 82.7781C46.0493 83.3396 46.9355 83.4189 47.5873 82.9607L49.3599 81.7171C50.1944 82.1994 51.0876 82.568 52.0152 82.816L52.3877 84.9415C52.5222 85.7269 53.205 86.3022 54.0051 86.2988H55.8397C56.6363 86.2988 57.3226 85.7269 57.4571 84.9415L57.8295 82.816C58.7606 82.568 59.6538 82.1959 60.4849 81.7171L62.216 82.9331C62.8678 83.3913 63.7541 83.3121 64.3162 82.7506L65.5922 81.476C66.1543 80.9144 66.2336 80.0291 65.7749 79.378L64.53 77.5936C65.0128 76.7599 65.3818 75.8677 65.6301 74.941L67.7647 74.569C68.551 74.4346 69.1269 73.7525 69.1235 72.9533V71.1482C69.1235 70.3524 68.5476 69.6738 67.7647 69.5395V69.536ZM54.8948 76.9218C52.2015 76.9218 50.0151 74.7412 50.0151 72.0473C50.0151 69.3534 52.198 67.1728 54.8948 67.1728C57.5881 67.1728 59.7745 69.3534 59.7745 72.0473V72.0749C59.7607 74.755 57.5812 76.9218 54.8948 76.9218Z" fill="#EBEBEB"/>
<path d="M56.6225 111.136L54.4879 110.764C54.2396 109.834 53.8671 108.942 53.3878 108.112L54.6327 106.341C55.0914 105.69 55.012 104.805 54.4499 104.243L53.174 102.969C52.6015 102.417 51.7187 102.352 51.0738 102.82L49.3012 104.064C48.4667 103.582 47.5735 103.213 46.6459 102.965L46.2803 100.788C46.1458 100.016 45.4837 99.4444 44.6974 99.4307H42.8559C42.0593 99.4307 41.373 100.003 41.2386 100.788L40.8661 102.913C39.935 103.161 39.0418 103.534 38.2107 104.012L36.4451 102.824C35.7933 102.366 34.907 102.445 34.3449 103.006L33.069 104.281C32.5068 104.843 32.4275 105.728 32.8862 106.379L34.1311 108.15C33.6483 108.983 33.2793 109.876 33.031 110.802L30.9033 111.174C30.117 111.309 29.5411 111.991 29.5445 112.79V114.595C29.5445 115.391 30.117 116.076 30.9033 116.211L33.031 116.583C33.2793 117.513 33.6518 118.405 34.1311 119.235L32.8862 121.006C32.4275 121.657 32.5068 122.542 33.069 123.104L34.3449 124.378C34.907 124.94 35.7933 125.019 36.4451 124.561L38.2176 123.317C39.0522 123.8 39.9453 124.168 40.873 124.416L41.2454 126.542C41.3799 127.327 42.0628 127.903 42.8628 127.899H44.6974C45.4941 127.899 46.1803 127.327 46.3148 126.542L46.6873 124.416C47.6184 124.168 48.5115 123.796 49.3426 123.317L51.0738 124.533C51.7256 124.992 52.6118 124.912 53.174 124.351L54.4499 123.076C55.012 122.515 55.0914 121.629 54.6327 120.978L53.3878 119.194C53.8706 118.36 54.2396 117.468 54.4879 116.541L56.6225 116.169C57.4088 116.035 57.9847 115.353 57.9812 114.554V112.749C57.9812 111.953 57.4053 111.274 56.6225 111.14V111.136ZM43.756 118.522C41.0627 118.522 38.8763 116.342 38.8763 113.648C38.8763 110.954 41.0592 108.773 43.756 108.773C46.4493 108.773 48.6357 110.954 48.6357 113.648V113.675C48.6219 116.355 46.4424 118.522 43.756 118.522Z" fill="#EBEBEB"/>
</g>
</g>
<defs>
<clipPath id="clip0_570_6174">
<rect width="333" height="198" fill="white"/>
</clipPath>
</defs>
</svg>
