<svg width="328" height="272" viewBox="0 0 328 272" fill="none" xmlns="http://www.w3.org/2000/svg">
<path style="mix-blend-mode:screen" d="M258.545 59.4238V176.631C258.545 178.697 256.868 180.372 254.799 180.372H78.2389C76.1702 180.372 74.4935 178.697 74.4935 176.631V59.4238C74.4935 54.6829 78.339 50.8418 83.0854 50.8418H249.953C254.699 50.8418 258.545 54.6829 258.545 59.4238Z" fill="url(#paint0_linear_569_11)"/>
<path d="M258.545 59.4238V61.1569H74.4935V59.4238C74.4935 54.6829 78.339 50.8418 83.0854 50.8418H249.953C254.699 50.8418 258.545 54.6829 258.545 59.4238Z" fill="url(#paint1_linear_569_11)"/>
<path d="M235.689 55.9992C235.689 56.7908 235.046 57.424 234.262 57.424C233.478 57.424 232.836 56.7825 232.836 55.9992C232.836 55.216 233.478 54.5745 234.262 54.5745C235.046 54.5745 235.689 55.216 235.689 55.9992Z" fill="url(#paint2_linear_569_11)"/>
<path d="M242.32 55.9992C242.32 56.7908 241.678 57.424 240.894 57.424C240.11 57.424 239.467 56.7825 239.467 55.9992C239.467 55.216 240.11 54.5745 240.894 54.5745C241.678 54.5745 242.32 55.216 242.32 55.9992Z" fill="url(#paint3_linear_569_11)"/>
<path d="M248.518 55.9992C248.518 56.7908 247.876 57.424 247.092 57.424C246.308 57.424 245.665 56.7825 245.665 55.9992C245.665 55.216 246.308 54.5745 247.092 54.5745C247.876 54.5745 248.518 55.216 248.518 55.9992Z" fill="url(#paint4_linear_569_11)"/>
<g filter="url(#filter0_d_569_11)">
<path d="M139.392 76.7378H91.0601C89.0054 76.7378 87.3397 78.4016 87.3397 80.4539V161.308C87.3397 163.361 89.0054 165.024 91.0601 165.024H139.392C141.447 165.024 143.112 163.361 143.112 161.308V80.4539C143.112 78.4016 141.447 76.7378 139.392 76.7378Z" fill="white"/>
</g>
<path d="M137.657 85.3614V110.483C137.657 111.999 136.422 113.232 134.904 113.232H95.5396C94.0214 113.232 92.7868 111.999 92.7868 110.483V85.3614C92.7868 83.8366 94.0214 82.6118 95.5396 82.6118H134.904C136.422 82.6118 137.657 83.8366 137.657 85.3614Z" fill="#A4BBFC"/>
<path d="M137.657 104.3V110.491C137.657 112.007 136.414 113.24 134.904 113.24H95.5396C94.0214 113.24 92.7868 111.999 92.7868 110.491V104.3L105.066 92.4269C105.925 91.5937 107.301 91.627 108.119 92.4935L118.88 103.85C119.572 104.583 120.732 104.625 121.482 103.95L127.922 98.101C128.94 97.1762 130.5 97.2095 131.476 98.176L137.657 104.3Z" fill="url(#paint5_linear_569_11)"/>
<path d="M129.04 94.1019C130.804 94.1019 132.235 92.6731 132.235 90.9107C132.235 89.1482 130.804 87.7195 129.04 87.7195C127.275 87.7195 125.845 89.1482 125.845 90.9107C125.845 92.6731 127.275 94.1019 129.04 94.1019Z" fill="url(#paint6_linear_569_11)"/>
<path d="M114.484 125.639H95.1726C93.8546 125.639 92.7868 124.572 92.7868 123.256C92.7868 121.939 93.8546 120.873 95.1726 120.873H114.484C115.802 120.873 116.869 121.939 116.869 123.256C116.869 124.572 115.802 125.639 114.484 125.639Z" fill="url(#paint7_linear_569_11)"/>
<path d="M109.729 132.029H93.6961C93.1956 132.029 92.7952 131.621 92.7952 131.129C92.7952 130.629 93.2039 130.229 93.6961 130.229H109.729C110.229 130.229 110.63 130.638 110.63 131.129C110.63 131.629 110.221 132.029 109.729 132.029Z" fill="#BCCAFC"/>
<path d="M128.131 136.379H93.6961C93.1956 136.379 92.7952 135.97 92.7952 135.479C92.7952 134.979 93.2039 134.579 93.6961 134.579H128.131C128.631 134.579 129.032 134.987 129.032 135.479C129.032 135.979 128.623 136.379 128.131 136.379Z" fill="#BCCAFC"/>
<path d="M128.131 140.72H93.6961C93.1956 140.72 92.7952 140.311 92.7952 139.82C92.7952 139.32 93.2039 138.92 93.6961 138.92H128.131C128.631 138.92 129.032 139.328 129.032 139.82C129.032 140.32 128.623 140.72 128.131 140.72Z" fill="#BCCAFC"/>
<path d="M121.374 145.069H93.6961C93.1956 145.069 92.7952 144.661 92.7952 144.169C92.7952 143.669 93.2039 143.269 93.6961 143.269H121.374C121.874 143.269 122.275 143.678 122.275 144.169C122.275 144.669 121.866 145.069 121.374 145.069Z" fill="#BCCAFC"/>
<path d="M125.636 159.042H104.807C103.189 159.042 101.888 157.734 101.888 156.126C101.888 154.509 103.197 153.209 104.807 153.209H125.636C127.255 153.209 128.556 154.518 128.556 156.126C128.556 157.742 127.246 159.042 125.636 159.042Z" fill="url(#paint8_linear_569_11)"/>
<g filter="url(#filter1_d_569_11)">
<path d="M180.108 79.5874V118.032C180.108 119.606 178.832 120.889 177.255 120.889H153.014C151.437 120.889 150.153 119.606 150.153 118.032V79.5874C150.153 78.0126 151.437 76.7378 153.014 76.7378H177.255C178.832 76.7378 180.108 78.0126 180.108 79.5874Z" fill="white"/>
</g>
<path d="M150.169 112.374H180.116V118.031C180.116 119.606 178.84 120.889 177.263 120.889H153.022C151.446 120.889 150.161 119.606 150.161 118.031V112.374H150.169Z" fill="url(#paint9_linear_569_11)"/>
<path d="M165.143 84.6282C159.704 84.6282 155.3 89.0358 155.3 94.4684C155.3 97.5596 156.726 100.317 158.962 102.117C160.655 103.484 162.807 104.3 165.143 104.3C170.582 104.3 174.986 99.8925 174.986 94.4684C174.986 89.0442 170.582 84.6282 165.143 84.6282ZM165.143 102.042C163.333 102.042 161.673 101.409 160.38 100.359C158.661 98.9677 157.56 96.843 157.56 94.46C157.56 90.269 160.955 86.8695 165.151 86.8695C169.347 86.8695 172.742 90.2607 172.742 94.46C172.742 98.6594 169.347 102.042 165.151 102.042H165.143Z" fill="#A4BBFC"/>
<path d="M174.978 94.4684C174.978 99.8925 170.573 104.3 165.135 104.3C162.799 104.3 160.647 103.484 158.953 102.117L160.371 100.367C161.673 101.417 163.333 102.051 165.135 102.051C169.322 102.051 172.725 98.6594 172.725 94.4684C172.725 90.2773 169.33 86.8778 165.135 86.8778V84.6282C170.573 84.6282 174.978 89.0358 174.978 94.4684Z" fill="url(#paint10_linear_569_11)"/>
<path d="M168.354 95.5181H161.923V96.4596H168.354V95.5181Z" fill="#A4BBFC"/>
<path d="M170.106 93.0935H160.171V94.035H170.106V93.0935Z" fill="#A4BBFC"/>
<g filter="url(#filter2_d_569_11)">
<path d="M214.317 79.5874V118.032C214.317 119.606 213.041 120.889 211.464 120.889H187.223C185.647 120.889 184.362 119.606 184.362 118.032V79.5874C184.362 78.0126 185.647 76.7378 187.223 76.7378H211.464C213.041 76.7378 214.317 78.0126 214.317 79.5874Z" fill="white"/>
</g>
<path d="M184.37 112.374H214.317V118.031C214.317 119.606 213.041 120.889 211.464 120.889H187.223C185.647 120.889 184.362 119.606 184.362 118.031V112.374H184.37Z" fill="url(#paint11_linear_569_11)"/>
<path d="M199.344 84.6282C193.905 84.6282 189.501 89.0358 189.501 94.4684C189.501 97.5596 190.927 100.317 193.163 102.117C194.856 103.484 197.008 104.3 199.344 104.3C202.706 104.3 205.675 102.617 207.452 100.051C208.545 98.4677 209.187 96.543 209.187 94.4767C209.187 89.0442 204.783 84.6365 199.344 84.6365V84.6282ZM199.344 102.042C197.534 102.042 195.874 101.409 194.581 100.359C192.862 98.9677 191.761 96.843 191.761 94.46C191.761 90.269 195.156 86.8695 199.352 86.8695C203.548 86.8695 206.943 90.2607 206.943 94.46C206.943 96.0598 206.451 97.5429 205.6 98.7594C204.24 100.751 201.946 102.042 199.352 102.042H199.344Z" fill="#A4BBFC"/>
<path d="M209.179 94.4684C209.179 96.5347 208.536 98.4678 207.444 100.043L205.583 98.7594C206.426 97.5429 206.926 96.0681 206.926 94.46C206.926 90.269 203.531 86.8695 199.335 86.8695V84.6199C204.774 84.6199 209.179 89.0275 209.179 94.46V94.4684Z" fill="url(#paint12_linear_569_11)"/>
<path d="M202.555 95.5181H196.124V96.4596H202.555V95.5181Z" fill="#A4BBFC"/>
<path d="M204.307 93.0935H194.372V94.035H204.307V93.0935Z" fill="#A4BBFC"/>
<g style="mix-blend-mode:multiply">
<g filter="url(#filter3_d_569_11)">
<path d="M248.518 79.5874V118.032C248.518 119.606 247.242 120.889 245.657 120.889H221.424C219.839 120.889 218.563 119.606 218.563 118.032V79.5874C218.563 78.0126 219.839 76.7378 221.424 76.7378H245.657C247.242 76.7378 248.518 78.0126 248.518 79.5874Z" fill="url(#paint13_linear_569_11)"/>
</g>
</g>
<g filter="url(#filter4_d_569_11)">
<path d="M260.639 64.2064V111.241C260.639 113.166 259.079 114.732 257.144 114.732H227.497C225.562 114.732 224.002 113.166 224.002 111.241V64.2064C224.002 62.2817 225.562 60.7236 227.497 60.7236H257.144C259.079 60.7236 260.639 62.2817 260.639 64.2064Z" fill="white"/>
</g>
<path d="M260.639 104.317V111.241C260.639 113.166 259.079 114.732 257.144 114.732H227.497C225.562 114.732 224.002 113.166 224.002 111.241V104.317H260.639Z" fill="url(#paint14_linear_569_11)"/>
<path d="M242.32 70.3721C235.664 70.3721 230.283 75.7629 230.283 82.4119V82.5036C230.308 86.2447 232.052 89.5858 234.763 91.7688C236.831 93.4436 239.459 94.4434 242.329 94.4434C246.441 94.4434 250.07 92.3854 252.247 89.2442C253.582 87.3112 254.366 84.9532 254.366 82.4202C254.366 75.7713 248.977 70.3804 242.329 70.3804L242.32 70.3721ZM249.961 87.6695C248.293 90.1024 245.49 91.6855 242.32 91.6855C240.11 91.6855 238.074 90.9106 236.489 89.6275C234.404 87.9361 233.053 85.3615 233.036 82.4702V82.4119C233.036 77.2794 237.19 73.13 242.32 73.13C247.45 73.13 251.605 77.2794 251.605 82.4119C251.605 84.37 250.996 86.178 249.961 87.6695Z" fill="#A4BBFC"/>
<path d="M254.357 82.4119C254.357 84.9448 253.573 87.3028 252.239 89.2358C250.061 92.377 246.433 94.4351 242.32 94.4351C239.459 94.4351 236.823 93.4352 234.754 91.7605C232.043 89.5775 230.3 86.2363 230.275 82.4952L233.028 82.4702C233.044 85.3531 234.396 87.9277 236.481 89.6275C238.066 90.9106 240.101 91.6855 242.312 91.6855C245.49 91.6855 248.285 90.1024 249.953 87.6694C250.987 86.178 251.596 84.3699 251.596 82.4119C251.596 77.2793 247.442 73.13 242.312 73.13V70.3804C248.969 70.3804 254.349 75.7712 254.349 82.4202L254.357 82.4119Z" fill="url(#paint15_linear_569_11)"/>
<path d="M246.249 83.6951H238.383V84.8449H246.249V83.6951Z" fill="#A4BBFC"/>
<path d="M248.401 80.7371H236.239V81.8869H248.401V80.7371Z" fill="#A4BBFC"/>
<g style="mix-blend-mode:multiply" filter="url(#filter5_d_569_11)">
<path d="M244.114 130.355H154.574C152.141 130.355 150.169 132.324 150.169 134.754V160.617C150.169 163.046 152.141 165.016 154.574 165.016H244.114C246.546 165.016 248.518 163.046 248.518 160.617V134.754C248.518 132.324 246.546 130.355 244.114 130.355Z" fill="url(#paint16_linear_569_11)" style="mix-blend-mode:multiply"/>
</g>
<path d="M187.59 133.388H186.673V161.242H187.59V133.388Z" fill="white"/>
<path d="M215.093 141.711H197.167C195.623 141.711 194.364 140.462 194.364 138.92C194.364 137.379 195.615 136.121 197.167 136.121H215.093C216.636 136.121 217.896 137.37 217.896 138.92C217.896 140.462 216.645 141.711 215.093 141.711Z" fill="url(#paint17_linear_569_11)"/>
<path d="M218.98 147.319H194.372V148.96H218.98V147.319Z" fill="#A4BBFC"/>
<path d="M234.304 152.118H194.372V153.76H234.304V152.118Z" fill="#A4BBFC"/>
<path d="M177.088 136.179H158.711C157.412 136.179 156.359 137.231 156.359 138.529V156.884C156.359 158.182 157.412 159.234 158.711 159.234H177.088C178.387 159.234 179.441 158.182 179.441 156.884V138.529C179.441 137.231 178.387 136.179 177.088 136.179Z" fill="white"/>
<path d="M174.727 147.702C174.727 151.468 171.674 154.518 167.904 154.518C164.134 154.518 161.08 151.468 161.08 147.702C161.08 143.936 164.134 140.887 167.904 140.887V147.702H174.727Z" fill="#A4BBFC"/>
<path d="M175.954 147.702H167.904V139.662C172.35 139.662 175.954 143.261 175.954 147.702Z" fill="url(#paint18_linear_569_11)"/>
<g style="mix-blend-mode:multiply" filter="url(#filter6_d_569_11)">
<path d="M58.8694 49.3171H14.0745C10.1585 49.3171 6.98401 52.488 6.98401 56.3994V125.422C6.98401 129.334 10.1585 132.505 14.0745 132.505H58.8694C62.7854 132.505 65.9599 129.334 65.9599 125.422V56.3994C65.9599 52.488 62.7854 49.3171 58.8694 49.3171Z" fill="url(#paint19_linear_569_11)" style="mix-blend-mode:multiply"/>
</g>
<path d="M47.6749 109.791H25.269C23.6007 109.791 22.2493 108.442 22.2493 106.775C22.2493 105.109 23.6007 103.759 25.269 103.759H47.6749C49.3432 103.759 50.6946 105.109 50.6946 106.775C50.6946 108.442 49.3432 109.791 47.6749 109.791Z" fill="url(#paint20_linear_569_11)"/>
<path d="M55.8497 59.4407H17.0942C15.6844 59.4407 14.5416 60.5822 14.5416 61.9903V95.3769C14.5416 96.785 15.6844 97.9265 17.0942 97.9265H55.8497C57.2595 97.9265 58.4023 96.785 58.4023 95.3769V61.9903C58.4023 60.5822 57.2595 59.4407 55.8497 59.4407Z" fill="url(#paint21_linear_569_11)"/>
<path d="M44.0805 86.2846C48.2829 82.0871 48.2829 75.2816 44.0805 71.0841C39.8782 66.8866 33.0648 66.8866 28.8625 71.0841C24.6601 75.2816 24.6601 82.0871 28.8625 86.2846C33.0648 90.4821 39.8782 90.4821 44.0805 86.2846Z" fill="white"/>
<path d="M41.0015 79.5461L34.7285 83.4705C34.0529 83.8954 33.1686 83.4122 33.1686 82.6123V74.7635C33.1686 73.9636 34.0445 73.4803 34.7285 73.9053L41.0015 77.8297C41.6355 78.2296 41.6355 79.1545 41.0015 79.5544V79.5461Z" fill="url(#paint22_linear_569_11)"/>
<g style="mix-blend-mode:screen" opacity="0.53">
<path d="M48.9261 114.791H24.0261V117.232H48.9261V114.791Z" fill="#BEABFB"/>
<path d="M55.1741 120.131H17.7698V122.573H55.1741V120.131Z" fill="#BEABFB"/>
</g>
<g style="mix-blend-mode:multiply" filter="url(#filter7_d_569_11)">
<path d="M197.709 4.29053H142.503C139.228 4.29053 136.572 6.94284 136.572 10.2146V49.6253C136.572 52.8971 139.228 55.5494 142.503 55.5494H197.709C200.984 55.5494 203.64 52.8971 203.64 49.6253V10.2146C203.64 6.94284 200.984 4.29053 197.709 4.29053Z" fill="url(#paint23_linear_569_11)" style="mix-blend-mode:multiply"/>
</g>
<path d="M179.991 21.8128C179.991 24.6291 178.815 27.162 176.93 28.9701C175.153 30.6615 172.75 31.703 170.106 31.703C167.462 31.703 165.068 30.6698 163.291 28.9701C161.397 27.1787 160.221 24.6374 160.221 21.8128C160.221 16.3637 164.651 11.9393 170.106 11.9393C175.562 11.9393 179.991 16.3637 179.991 21.8128Z" fill="url(#paint24_linear_569_11)"/>
<path d="M173.351 18.055C173.351 19.8464 171.9 21.2962 170.114 21.2962C168.329 21.2962 166.87 19.8464 166.87 18.055C166.87 16.2636 168.321 14.8138 170.114 14.8138C171.908 14.8138 173.351 16.2636 173.351 18.055Z" fill="#F5F7F9"/>
<path d="M176.93 28.9618C175.153 30.6532 172.75 31.6947 170.106 31.6947C167.462 31.6947 165.068 30.6615 163.291 28.9618C164.092 25.9539 166.845 23.7292 170.106 23.7292C173.368 23.7292 176.121 25.9539 176.93 28.9618Z" fill="#F5F7F9"/>
<path d="M151.696 39.4686L152.447 40.9933C152.513 41.1183 152.63 41.21 152.772 41.2266L154.457 41.4683C154.816 41.5183 154.958 41.9599 154.699 42.2098L153.481 43.393C153.381 43.493 153.331 43.6346 153.356 43.7762L153.64 45.451C153.698 45.8093 153.331 46.0759 153.006 45.9093L151.504 45.1177C151.379 45.0511 151.229 45.0511 151.104 45.1177L149.602 45.9093C149.285 46.0759 148.91 45.8093 148.968 45.451L149.252 43.7762C149.277 43.6346 149.227 43.493 149.127 43.393L147.909 42.2098C147.65 41.9599 147.792 41.5183 148.151 41.4683L149.836 41.2266C149.978 41.21 150.103 41.1183 150.161 40.9933L150.912 39.4686C151.07 39.1436 151.529 39.1436 151.688 39.4686H151.696Z" fill="url(#paint25_linear_569_11)"/>
<path d="M161.289 39.4686L162.04 40.9933C162.106 41.1183 162.223 41.21 162.365 41.2266L164.05 41.4683C164.409 41.5183 164.551 41.9599 164.292 42.2098L163.074 43.393C162.974 43.493 162.924 43.6346 162.949 43.7762L163.233 45.451C163.291 45.8093 162.924 46.0759 162.599 45.9093L161.097 45.1177C160.972 45.0511 160.822 45.0511 160.697 45.1177L159.195 45.9093C158.878 46.0759 158.503 45.8093 158.561 45.451L158.845 43.7762C158.87 43.6346 158.82 43.493 158.72 43.393L157.502 42.2098C157.243 41.9599 157.385 41.5183 157.744 41.4683L159.429 41.2266C159.571 41.21 159.696 41.1183 159.754 40.9933L160.505 39.4686C160.663 39.1436 161.122 39.1436 161.281 39.4686H161.289Z" fill="url(#paint26_linear_569_11)"/>
<path d="M170.523 39.4686L171.274 40.9933C171.341 41.1183 171.457 41.21 171.599 41.2266L173.284 41.4683C173.643 41.5183 173.785 41.9599 173.526 42.2098L172.308 43.393C172.208 43.493 172.158 43.6346 172.183 43.7762L172.467 45.451C172.525 45.8093 172.158 46.0759 171.833 45.9093L170.331 45.1177C170.206 45.0511 170.056 45.0511 169.931 45.1177L168.429 45.9093C168.112 46.0759 167.737 45.8093 167.795 45.451L168.079 43.7762C168.104 43.6346 168.054 43.493 167.954 43.393L166.736 42.2098C166.477 41.9599 166.619 41.5183 166.978 41.4683L168.663 41.2266C168.805 41.21 168.93 41.1183 168.988 40.9933L169.739 39.4686C169.898 39.1436 170.356 39.1436 170.515 39.4686H170.523Z" fill="url(#paint27_linear_569_11)"/>
<path d="M180.108 39.4686L180.859 40.9933C180.925 41.1183 181.042 41.21 181.184 41.2266L182.869 41.4683C183.228 41.5183 183.369 41.9599 183.111 42.2098L181.893 43.393C181.793 43.493 181.743 43.6346 181.768 43.7762L182.051 45.451C182.11 45.8093 181.743 46.0759 181.418 45.9093L179.916 45.1177C179.791 45.0511 179.641 45.0511 179.516 45.1177L178.014 45.9093C177.697 46.0759 177.322 45.8093 177.38 45.451L177.664 43.7762C177.689 43.6346 177.639 43.493 177.539 43.393L176.321 42.2098C176.062 41.9599 176.204 41.5183 176.563 41.4683L178.248 41.2266C178.389 41.21 178.515 41.1183 178.573 40.9933L179.324 39.4686C179.482 39.1436 179.941 39.1436 180.1 39.4686H180.108Z" fill="url(#paint28_linear_569_11)"/>
<path d="M189.309 39.4686L190.06 40.9933C190.126 41.1183 190.243 41.21 190.385 41.2266L192.07 41.4683C192.429 41.5183 192.57 41.9599 192.312 42.2098L191.094 43.393C190.994 43.493 190.944 43.6346 190.969 43.7762L191.252 45.451C191.311 45.8093 190.944 46.0759 190.618 45.9093L189.117 45.1177C188.992 45.0511 188.842 45.0511 188.717 45.1177L187.215 45.9093C186.898 46.0759 186.523 45.8093 186.581 45.451L186.865 43.7762C186.89 43.6346 186.84 43.493 186.74 43.393L185.522 42.2098C185.263 41.9599 185.405 41.5183 185.764 41.4683L187.449 41.2266C187.59 41.21 187.716 41.1183 187.774 40.9933L188.525 39.4686C188.683 39.1436 189.142 39.1436 189.3 39.4686H189.309Z" fill="url(#paint29_linear_569_11)"/>
<g style="mix-blend-mode:multiply" filter="url(#filter8_d_569_11)">
<path d="M191.786 189.621H77.655C73.4442 189.621 70.0306 193.03 70.0306 197.236V225.865C70.0306 230.071 73.4442 233.481 77.655 233.481H191.786C195.997 233.481 199.411 230.071 199.411 225.865V197.236C199.411 193.03 195.997 189.621 191.786 189.621Z" fill="url(#paint30_linear_569_11)" style="mix-blend-mode:multiply"/>
</g>
<g filter="url(#filter9_d_569_11)">
<path d="M102.88 197.553H86.5639C83.2791 197.553 80.6163 200.213 80.6163 203.494V219.791C80.6163 223.072 83.2791 225.732 86.5639 225.732H102.88C106.165 225.732 108.828 223.072 108.828 219.791V203.494C108.828 200.213 106.165 197.553 102.88 197.553Z" fill="url(#paint31_linear_569_11)"/>
</g>
<path d="M101.679 210.426L94.9807 204.619C94.8389 204.494 94.622 204.494 94.4719 204.619L87.7735 210.426C87.5065 210.659 87.6734 211.101 88.0237 211.101H89.4585C89.6754 211.101 89.8422 211.276 89.8422 211.484V218.375C89.8422 218.592 90.0174 218.758 90.2259 218.758H92.8202C93.0371 218.758 93.2039 218.583 93.2039 218.375V215.409C93.2039 215.192 93.3791 215.025 93.5876 215.025H95.8399C96.0568 215.025 96.2236 215.2 96.2236 215.409V218.375C96.2236 218.592 96.3988 218.758 96.6073 218.758H99.2099C99.4268 218.758 99.5937 218.583 99.5937 218.375V211.484C99.5937 211.268 99.7688 211.101 99.9774 211.101H101.412C101.771 211.101 101.938 210.659 101.662 210.426H101.679Z" fill="white"/>
<g filter="url(#filter10_d_569_11)">
<path d="M141.294 197.553H124.977C121.693 197.553 119.03 200.213 119.03 203.494V219.791C119.03 223.072 121.693 225.732 124.977 225.732H141.294C144.579 225.732 147.242 223.072 147.242 219.791V203.494C147.242 200.213 144.579 197.553 141.294 197.553Z" fill="url(#paint32_linear_569_11)"/>
</g>
<path d="M133.136 203.677C130.45 203.677 128.264 205.852 128.264 208.543C128.264 211.442 130.717 216.4 132.143 219.025C132.568 219.825 133.711 219.825 134.137 219.025C135.563 216.425 137.991 211.551 137.991 208.543C137.991 205.852 135.813 203.677 133.136 203.677ZM133.136 211.109C131.809 211.109 130.75 210.034 130.75 208.726C130.75 207.418 131.809 206.335 133.136 206.335C134.462 206.335 135.521 207.41 135.521 208.726C135.521 210.043 134.462 211.109 133.136 211.109Z" fill="white"/>
<g filter="url(#filter11_d_569_11)">
<path d="M180.6 197.553H164.284C160.999 197.553 158.336 200.213 158.336 203.494V219.791C158.336 223.072 160.999 225.732 164.284 225.732H180.6C183.885 225.732 186.548 223.072 186.548 219.791V203.494C186.548 200.213 183.885 197.553 180.6 197.553Z" fill="url(#paint33_linear_569_11)"/>
</g>
<path d="M172.6 205.777C173.159 204.619 173.935 203.644 175.011 202.936C175.879 202.361 177.063 202.661 177.572 203.56L178.473 205.16C179.933 207.743 180.108 210.876 178.857 213.559C178.314 214.734 177.622 215.792 176.738 216.75C174.302 219.408 170.44 220.241 167.045 219.025L166.661 218.891C165.218 218.375 164.701 216.558 165.702 215.392C166.119 214.909 166.578 214.484 167.095 214.134C167.729 213.701 168.58 213.742 169.147 214.259L169.906 214.95C170.615 215.592 171.683 215.667 172.467 215.117C173.985 214.059 175.078 212.784 175.553 211.201C175.812 210.334 175.436 209.393 174.677 208.91L173.218 207.976C172.484 207.51 172.217 206.568 172.592 205.785L172.6 205.777Z" fill="white"/>
<g style="mix-blend-mode:multiply" filter="url(#filter12_d_569_11)">
<path d="M314.234 34.2361H279.616C277.626 34.2361 276.012 35.8476 276.012 37.8355V60.9737C276.012 62.9616 277.626 64.5732 279.616 64.5732H314.234C316.224 64.5732 317.838 62.9616 317.838 60.9737V37.8355C317.838 35.8476 316.224 34.2361 314.234 34.2361Z" fill="url(#paint34_linear_569_11)" style="mix-blend-mode:multiply"/>
</g>
<path d="M283.979 49.134L291.678 45.2346V47.376L286.148 50.0672L291.678 52.8335V54.9915L283.979 51.0337V49.134Z" fill="#F5F7F9"/>
<path d="M293.597 55.708L298.251 43.1099H300.245L295.607 55.708H293.597Z" fill="#F5F7F9"/>
<path d="M309.863 51.0838L302.164 54.9832V52.8252L307.686 50.1339L302.164 47.3677V45.2263L309.863 49.1841V51.0838Z" fill="#F5F7F9"/>
<path d="M257.41 109.133C257.41 109.133 254.165 109.524 254.341 110.033C254.507 110.541 257.719 110.391 257.978 110.424C258.236 110.458 260.605 111.607 260.605 111.607L257.41 109.133Z" fill="#D481A0"/>
<path d="M258.854 108.525C258.854 108.525 254.599 106.533 253.949 106.792C253.181 107.1 256.401 108.791 256.401 108.791L260.13 111.216L258.854 108.516V108.525Z" fill="#D481A0"/>
<path d="M280.592 132.846L274.795 136.512L266.445 116.773C266.445 116.773 261.756 109.683 259.855 107.308C257.953 104.934 257.169 103.2 256.56 103.309C255.951 103.417 257.31 106.833 258.119 108.125C258.937 109.416 260.288 112.441 260.288 113.382C260.288 114.324 259.513 114.499 256.626 113.091C254.416 112.007 255.492 113.899 256.626 114.982C257.352 115.682 262.707 119.29 262.707 119.29C262.707 119.29 266.745 143.644 269.906 146.694C273.068 149.743 286.915 141.303 286.915 141.303L280.592 132.854V132.846Z" fill="url(#paint35_linear_569_11)"/>
<path d="M286.915 141.295C286.915 141.295 282.36 144.078 277.873 145.869C274.544 147.202 271.249 147.985 269.906 146.686C268.622 145.444 267.187 140.67 265.936 135.446C265.56 133.837 265.193 132.204 264.86 130.613C265.443 130.155 266.228 129.555 267.137 128.847C267.279 128.73 267.437 128.622 267.587 128.497C268.472 127.813 269.447 127.063 270.457 126.28L274.786 136.512L280.584 132.846L286.907 141.295H286.915Z" fill="url(#paint36_linear_569_11)"/>
<path d="M236.606 122.681C236.606 122.681 236.898 121.214 236.606 119.956C236.314 118.698 236.448 117.715 236.673 117.615C236.898 117.515 237.541 119.04 238.225 121.106C238.9 123.172 238.8 126.28 238.8 126.28L236.606 122.672V122.681Z" fill="#E098B1"/>
<path d="M264.326 131.296L257.152 135.945L239.409 125.972C239.409 125.972 235.388 119.048 234.262 118.181C233.144 117.315 229.933 114.565 229.115 114.724C228.298 114.874 229.524 116.407 229.524 116.407C229.524 116.407 227.489 114.882 227.03 115.24C226.571 115.598 227.948 117.323 227.948 117.323C227.948 117.323 226.93 116.715 226.571 116.965C226.212 117.223 227.23 118.59 227.23 118.59C227.23 118.59 226.521 118.181 226.496 119.098C226.471 120.014 230.191 123.014 231.001 124.389C231.818 125.764 233.303 128.247 234.271 129.113C235.238 129.98 236.656 130.496 236.656 130.496C236.656 130.496 251.263 144.261 255.425 145.936C259.588 147.61 269.264 140.211 269.264 140.211L264.326 131.313V131.296Z" fill="url(#paint37_linear_569_11)"/>
<path d="M263.825 131.629L267.137 141.711L268.78 140.57L263.825 131.629Z" fill="url(#paint38_linear_569_11)"/>
<path d="M283.053 263.834L280.3 265.459L276.046 263.543L276.596 256.769H284.054L283.053 263.834Z" fill="#E098B1"/>
<path d="M283.261 272H264.543C263.583 272 262.899 271.05 263.225 270.142C263.241 270.1 263.258 270.05 263.275 270.008C263.517 269.384 263.925 268.759 264.618 268.334C266.453 267.217 275.437 263.318 275.437 263.318C275.437 263.318 275.562 262.535 275.612 261.593C275.654 260.801 276.279 260.81 276.279 260.81C276.279 260.81 277.205 263.334 279.032 263.843C280.859 264.351 283.02 263.418 283.02 263.418L283.328 261.951C284.554 263.459 284.646 267.542 284.863 270.008C284.863 270.092 284.88 270.167 284.88 270.25C284.955 271.192 284.212 272 283.27 272H283.261Z" fill="#39D0FF"/>
<path d="M283.52 272H263.867C263.325 272 262.908 271.517 262.999 270.983C263.049 270.683 263.133 270.35 263.266 270.009H284.855C284.871 270.184 284.888 270.358 284.896 270.517C284.963 271.317 284.329 271.992 283.528 271.992L283.52 272Z" fill="#0089B3"/>
<path d="M274.503 267.209C274.419 267.209 274.336 267.167 274.277 267.101C273.018 265.468 271.8 265.234 271.792 265.226C271.633 265.201 271.533 265.051 271.558 264.893C271.583 264.734 271.725 264.634 271.883 264.659C271.942 264.668 273.318 264.918 274.728 266.742C274.828 266.867 274.803 267.042 274.678 267.142C274.628 267.184 274.561 267.201 274.503 267.201V267.209Z" fill="#0089B3"/>
<path d="M277.489 266.217C277.414 266.217 277.347 266.192 277.289 266.134C275.295 264.184 273.769 264.268 273.744 264.268C273.585 264.284 273.452 264.159 273.435 264.009C273.427 263.851 273.535 263.718 273.693 263.701C273.769 263.701 275.479 263.576 277.681 265.726C277.798 265.834 277.798 266.017 277.681 266.126C277.622 266.184 277.547 266.209 277.472 266.209L277.489 266.217Z" fill="#0089B3"/>
<path d="M301.488 163.475C301.488 163.475 303.29 169.482 303.29 175.581C303.29 181.68 289.71 224.557 289.71 224.557L285.63 259.293H275.036C275.036 259.293 275.854 221.574 276.938 213.975C278.023 206.376 283.462 163.466 283.462 163.466H301.496L301.488 163.475Z" fill="url(#paint39_linear_569_11)"/>
<path style="mix-blend-mode:multiply" opacity="0.5" d="M301.488 163.475C301.488 163.475 303.29 169.482 303.29 175.581C303.29 181.68 289.71 224.557 289.71 224.557L285.63 259.293H275.036C275.036 259.293 275.854 221.574 276.938 213.975C278.023 206.376 283.462 163.466 283.462 163.466H301.496L301.488 163.475Z" fill="url(#paint40_linear_569_11)"/>
<path d="M303.624 263.834L300.871 265.459L297.276 263.834L295.557 256.769H302.965L303.624 263.834Z" fill="#E9A8BC"/>
<path d="M303.832 272H285.113C284.154 272 283.47 271.05 283.795 270.142C283.812 270.1 283.829 270.05 283.845 270.008C284.087 269.384 284.496 268.759 285.188 268.334C287.024 267.217 296.008 263.318 296.008 263.318C296.008 263.318 295.841 262.343 295.799 261.601C295.757 260.81 296.733 260.802 296.733 260.802C296.733 260.802 297.768 263.326 299.594 263.834C301.421 264.343 303.582 263.409 303.582 263.409L303.448 261.943C304.675 263.451 305.208 267.534 305.425 270.008C305.425 270.092 305.442 270.167 305.442 270.25C305.517 271.192 304.775 272 303.832 272Z" fill="#39D0FF"/>
<path d="M304.091 272H284.438C283.895 272 283.478 271.517 283.57 270.983C283.62 270.683 283.704 270.35 283.837 270.009H305.425C305.442 270.184 305.459 270.358 305.467 270.517C305.534 271.317 304.9 271.992 304.099 271.992L304.091 272Z" fill="#0089B3"/>
<path d="M294.323 267.384C294.239 267.384 294.156 267.342 294.097 267.276C292.838 265.643 291.62 265.409 291.611 265.401C291.453 265.376 291.353 265.226 291.378 265.068C291.403 264.909 291.545 264.809 291.703 264.834C291.762 264.843 293.138 265.093 294.548 266.917C294.648 267.042 294.623 267.217 294.498 267.317C294.448 267.359 294.381 267.376 294.323 267.376V267.384Z" fill="#0089B3"/>
<path d="M297.309 266.392C297.234 266.392 297.167 266.367 297.109 266.309C295.115 264.359 293.588 264.443 293.563 264.443C293.405 264.459 293.271 264.334 293.255 264.184C293.246 264.026 293.355 263.893 293.513 263.876C293.588 263.876 295.298 263.751 297.501 265.901C297.617 266.009 297.617 266.192 297.501 266.301C297.442 266.359 297.367 266.384 297.3 266.384L297.309 266.392Z" fill="#0089B3"/>
<path d="M305 259.293H293.363C293.363 259.293 282.227 222.666 281.276 216.017C280.801 212.7 278.507 193.487 277.314 183.48C277.172 182.263 277.055 181.047 276.947 179.822C276.738 177.264 276.621 174.706 276.596 172.14C276.596 171.873 276.596 171.598 276.596 171.332V167.207L291.186 165.024L299.286 163.808C299.486 165.291 299.645 166.616 299.77 167.849C300.437 174.231 300.245 177.797 299.102 185.496L297.592 215.883L305.017 259.302L305 259.293Z" fill="url(#paint41_linear_569_11)"/>
<path d="M299.795 259.293H299.202C298.502 256.544 292.037 231.248 290.51 224.074C288.9 216.517 284.638 168.999 284.588 168.516L285.163 168.466C285.205 168.949 289.476 216.425 291.078 223.949C292.629 231.264 299.336 257.469 299.803 259.285L299.795 259.293Z" fill="#39D0FF"/>
<path style="mix-blend-mode:multiply" opacity="0.5" d="M299.761 167.841C299.761 167.841 290.619 172.623 276.596 172.14C276.596 171.873 276.596 171.598 276.596 171.332V167.207L291.186 165.024C295.882 166.558 299.77 167.849 299.77 167.849L299.761 167.841Z" fill="url(#paint42_linear_569_11)"/>
<path d="M282.319 96.8347C282.319 96.8347 280.442 93.6186 280.6 90.669C280.751 87.7194 285.539 86.0864 285.539 86.0864C285.539 86.0864 285.13 81.4537 293.23 82.4702C301.33 83.4868 302.856 91.8355 302.856 91.8355C302.856 91.8355 304.608 91.9271 304.641 95.6016C304.675 99.5177 303.824 101.342 300.462 104.4C297.284 107.291 296.917 109.349 296.917 109.349L282.319 96.8264V96.8347Z" fill="url(#paint43_linear_569_11)"/>
<path d="M298.602 102.789C302.241 99.1549 302.241 93.2621 298.602 89.6275C294.963 85.9929 289.064 85.9929 285.425 89.6275C281.786 93.2621 281.786 99.1549 285.425 102.789C289.064 106.424 294.963 106.424 298.602 102.789Z" fill="url(#paint44_linear_569_11)"/>
<path d="M282.986 93.8853C282.986 93.8853 281.518 96.9681 281.468 101.859C281.418 106.692 281.109 113.766 287.324 112.649L286.865 116.773H297.15L296.908 109.366L292.004 103.292C292.004 103.292 295.465 103.342 295.207 99.676C294.965 96.2682 291.336 98.1013 291.186 99.9343L289.609 102.326C289.609 102.326 287.874 101.209 288.033 96.9848L282.978 93.8936L282.986 93.8853Z" fill="url(#paint45_linear_569_11)"/>
<path d="M287.324 112.649C287.324 112.649 289.534 112.432 292.621 110.649C292.621 110.649 292.896 116.265 286.865 116.773L287.324 112.649Z" fill="url(#paint46_linear_569_11)"/>
<path d="M305.1 128.372V128.938C305.1 131.763 304.967 134.979 304.766 138.262C304.766 138.295 304.766 138.328 304.766 138.362C304.766 138.52 304.75 138.678 304.741 138.845C304.499 142.511 304.157 146.244 303.824 149.61C303.799 149.818 303.782 150.035 303.765 150.243C303.382 153.934 302.99 157.142 302.731 159.292C302.706 159.5 302.681 159.717 302.648 159.9C302.472 161.308 302.364 162.125 302.364 162.125C302.364 162.125 304.199 163.858 303.999 164.666C303.79 165.483 302.264 167.524 302.264 167.524C293.805 168.691 284.087 169.057 276.605 167.199L276.747 158V157.392L276.913 146.469V145.877L277.022 139.137V139.02L273.435 140.761L272.884 141.028L269.856 142.494L269.214 141.328L265.944 135.429L264.876 133.488L263.75 131.463C263.75 131.463 264.167 131.138 264.876 130.588C265.46 130.138 266.244 129.521 267.154 128.83C267.295 128.713 267.454 128.605 267.604 128.48C268.48 127.797 269.456 127.047 270.465 126.264C271.616 125.38 272.818 124.472 273.96 123.597C274.111 123.481 274.277 123.364 274.428 123.247C276.872 121.406 279.024 119.815 279.991 119.19C280.25 119.023 280.509 118.873 280.776 118.731C280.992 118.598 281.226 118.49 281.46 118.381C282.869 117.723 284.337 117.298 285.389 117.048C286.089 116.873 286.598 116.79 286.782 116.765C286.823 116.765 286.848 116.748 286.848 116.748C286.848 116.748 295.974 114.699 301.146 117.273C301.221 117.307 301.288 117.34 301.355 117.39C301.396 117.39 301.438 117.415 301.471 117.44C301.521 117.465 301.546 117.482 301.546 117.482C301.688 117.557 301.813 117.64 301.955 117.732C302.447 118.057 302.898 118.431 303.265 118.873C303.557 119.206 303.807 119.59 304.007 119.998C304.733 121.481 305.042 124.531 305.075 128.347L305.1 128.372Z" fill="url(#paint47_linear_569_11)"/>
<g style="mix-blend-mode:screen" opacity="0.45">
<path d="M301.972 117.748C301.713 117.573 301.446 117.423 301.163 117.282C295.524 118.015 290.569 117.532 286.79 116.773C286.615 116.798 286.098 116.89 285.397 117.057C288.108 117.682 291.561 118.207 295.532 118.207C297.551 118.207 299.703 118.073 301.964 117.74L301.972 117.748Z" fill="url(#paint48_linear_569_11)"/>
<path d="M267.587 128.488C267.437 128.605 267.279 128.722 267.137 128.838C269.456 131.338 272.342 135.479 272.876 141.036L273.427 140.77C272.826 135.196 269.948 131.03 267.596 128.488H267.587Z" fill="url(#paint49_linear_569_11)"/>
<path d="M280.951 137.17C281.068 129.78 277.114 125.389 274.428 123.264C274.277 123.381 274.119 123.497 273.969 123.614C276.58 125.655 280.592 130.005 280.375 137.445L280.951 137.17Z" fill="url(#paint50_linear_569_11)"/>
<path d="M288.125 127.255C288.183 127.464 288.241 127.664 288.283 127.88C288.675 129.513 288.875 131.321 288.875 133.313H289.451C289.451 131.38 289.267 129.613 288.909 128.005C290.936 128.43 295.207 129.18 300.245 129.18C301.813 129.18 303.448 129.105 305.117 128.93C305.117 128.738 305.117 128.547 305.117 128.355C297.884 129.13 291.194 127.913 288.767 127.38C288.083 124.747 286.89 122.581 285.197 120.898C284.004 119.706 282.703 118.915 281.493 118.382C281.268 118.482 281.026 118.598 280.809 118.723C282.094 119.231 283.52 120.04 284.813 121.306C286.365 122.848 287.482 124.831 288.15 127.23L288.125 127.255Z" fill="url(#paint51_linear_569_11)"/>
<path d="M286.089 136.97C284.796 136.637 283.804 136.329 283.186 136.121L282.436 136.471C282.836 136.612 283.987 137.012 285.672 137.462C288.7 138.27 293.472 139.253 298.76 139.253C300.679 139.253 302.681 139.137 304.725 138.845C304.741 138.654 304.75 138.462 304.766 138.27C297.351 139.353 290.21 138.037 286.089 136.97Z" fill="url(#paint52_linear_569_11)"/>
<path d="M277.597 146.094C277.406 146.036 277.205 145.977 277.013 145.919C276.98 145.911 276.938 145.894 276.905 145.886V146.477C277.055 146.536 277.214 146.577 277.372 146.619C287.049 149.477 294.614 150.368 300.295 150.368C301.53 150.368 302.681 150.327 303.74 150.252C303.765 150.043 303.782 149.827 303.807 149.61C297.926 150.043 289.284 149.527 277.589 146.086L277.597 146.094Z" fill="url(#paint53_linear_569_11)"/>
<path d="M276.73 157.401V158.009C280.776 159.317 286.957 160.85 293.772 160.85C296.633 160.85 299.594 160.583 302.564 159.917C302.589 159.725 302.614 159.525 302.648 159.309C292.529 161.642 282.411 159.267 276.73 157.409V157.401Z" fill="url(#paint54_linear_569_11)"/>
</g>
<path style="mix-blend-mode:multiply" opacity="0.5" d="M289.443 133.321L286.089 136.97L285.672 137.47L276.888 147.494L277.013 139.028L282.436 136.47L283.186 136.12L289.443 133.321Z" fill="url(#paint55_linear_569_11)"/>
<path style="mix-blend-mode:screen" d="M301.163 117.29C301.238 117.323 301.305 117.357 301.371 117.407C300.278 116.907 293.455 116.79 285.105 120.106C277.806 123.006 265.218 134.146 265.218 134.146L263.733 131.471C263.733 131.471 264.151 131.146 264.86 130.596C265.444 130.146 266.228 129.53 267.137 128.838C267.279 128.722 267.437 128.613 267.587 128.488C268.463 127.805 269.439 127.055 270.449 126.272C271.6 125.389 272.801 124.481 273.944 123.606C274.094 123.489 274.261 123.372 274.411 123.256C276.855 121.414 279.007 119.823 279.975 119.198C280.233 119.031 280.492 118.881 280.759 118.74C280.976 118.606 281.209 118.498 281.443 118.39C282.853 117.732 284.321 117.307 285.372 117.057C286.073 116.882 286.581 116.798 286.765 116.773C286.807 116.773 286.832 116.757 286.832 116.757C286.832 116.757 295.957 114.707 301.129 117.282L301.163 117.29Z" fill="url(#paint56_linear_569_11)"/>
<path d="M234.446 121.073C234.387 121.073 234.329 121.048 234.287 120.99C234.287 120.981 233.545 120.006 233.053 119.573C232.544 119.123 229.474 116.574 229.441 116.549C229.357 116.482 229.341 116.357 229.416 116.265C229.482 116.182 229.608 116.174 229.699 116.24C229.824 116.349 232.802 118.823 233.32 119.273C233.845 119.731 234.579 120.715 234.613 120.756C234.679 120.848 234.663 120.973 234.571 121.04C234.537 121.065 234.496 121.081 234.454 121.081L234.446 121.073Z" fill="#E4A2B6"/>
<path d="M232.586 121.815C232.519 121.815 232.452 121.781 232.419 121.723C232.419 121.723 231.91 120.923 231.418 120.39C230.917 119.856 227.897 117.49 227.872 117.465C227.789 117.399 227.772 117.274 227.839 117.182C227.906 117.099 228.031 117.082 228.123 117.149C228.248 117.249 231.192 119.557 231.718 120.115C232.244 120.673 232.752 121.473 232.769 121.506C232.827 121.598 232.802 121.723 232.702 121.781C232.669 121.798 232.636 121.815 232.594 121.815H232.586Z" fill="#E4A2B6"/>
<path d="M231.551 123.156C231.484 123.156 231.418 123.123 231.384 123.064C231.376 123.048 230.483 121.623 229.991 121.198C229.482 120.748 227.022 118.698 226.997 118.682C226.913 118.615 226.896 118.49 226.972 118.398C227.038 118.315 227.172 118.307 227.255 118.373C227.28 118.39 229.741 120.448 230.258 120.898C230.792 121.365 231.685 122.798 231.726 122.856C231.785 122.948 231.751 123.073 231.66 123.131C231.626 123.148 231.593 123.164 231.551 123.164V123.156Z" fill="#E4A2B6"/>
<defs>
<filter id="filter0_d_569_11" x="81.3397" y="71.7378" width="71.7727" height="104.287" filterUnits="userSpaceOnUse" color-interpolation-filters="sRGB">
<feFlood flood-opacity="0" result="BackgroundImageFix"/>
<feColorMatrix in="SourceAlpha" type="matrix" values="0 0 0 0 0 0 0 0 0 0 0 0 0 0 0 0 0 0 127 0" result="hardAlpha"/>
<feOffset dx="2" dy="3"/>
<feGaussianBlur stdDeviation="4"/>
<feColorMatrix type="matrix" values="0 0 0 0 0.313726 0 0 0 0 0.333333 0 0 0 0 0.835294 0 0 0 0.5 0"/>
<feBlend mode="normal" in2="BackgroundImageFix" result="effect1_dropShadow_569_11"/>
<feBlend mode="normal" in="SourceGraphic" in2="effect1_dropShadow_569_11" result="shape"/>
</filter>
<filter id="filter1_d_569_11" x="144.153" y="71.7378" width="45.9551" height="60.1516" filterUnits="userSpaceOnUse" color-interpolation-filters="sRGB">
<feFlood flood-opacity="0" result="BackgroundImageFix"/>
<feColorMatrix in="SourceAlpha" type="matrix" values="0 0 0 0 0 0 0 0 0 0 0 0 0 0 0 0 0 0 127 0" result="hardAlpha"/>
<feOffset dx="2" dy="3"/>
<feGaussianBlur stdDeviation="4"/>
<feColorMatrix type="matrix" values="0 0 0 0 0.313726 0 0 0 0 0.333333 0 0 0 0 0.835294 0 0 0 0.5 0"/>
<feBlend mode="normal" in2="BackgroundImageFix" result="effect1_dropShadow_569_11"/>
<feBlend mode="normal" in="SourceGraphic" in2="effect1_dropShadow_569_11" result="shape"/>
</filter>
<filter id="filter2_d_569_11" x="178.362" y="71.7378" width="45.9551" height="60.1516" filterUnits="userSpaceOnUse" color-interpolation-filters="sRGB">
<feFlood flood-opacity="0" result="BackgroundImageFix"/>
<feColorMatrix in="SourceAlpha" type="matrix" values="0 0 0 0 0 0 0 0 0 0 0 0 0 0 0 0 0 0 127 0" result="hardAlpha"/>
<feOffset dx="2" dy="3"/>
<feGaussianBlur stdDeviation="4"/>
<feColorMatrix type="matrix" values="0 0 0 0 0.313726 0 0 0 0 0.333333 0 0 0 0 0.835294 0 0 0 0.5 0"/>
<feBlend mode="normal" in2="BackgroundImageFix" result="effect1_dropShadow_569_11"/>
<feBlend mode="normal" in="SourceGraphic" in2="effect1_dropShadow_569_11" result="shape"/>
</filter>
<filter id="filter3_d_569_11" x="212.563" y="71.7378" width="45.9551" height="60.1516" filterUnits="userSpaceOnUse" color-interpolation-filters="sRGB">
<feFlood flood-opacity="0" result="BackgroundImageFix"/>
<feColorMatrix in="SourceAlpha" type="matrix" values="0 0 0 0 0 0 0 0 0 0 0 0 0 0 0 0 0 0 127 0" result="hardAlpha"/>
<feOffset dx="2" dy="3"/>
<feGaussianBlur stdDeviation="4"/>
<feColorMatrix type="matrix" values="0 0 0 0 0.313726 0 0 0 0 0.333333 0 0 0 0 0.835294 0 0 0 0.5 0"/>
<feBlend mode="normal" in2="BackgroundImageFix" result="effect1_dropShadow_569_11"/>
<feBlend mode="normal" in="SourceGraphic" in2="effect1_dropShadow_569_11" result="shape"/>
</filter>
<filter id="filter4_d_569_11" x="218.002" y="55.7236" width="52.6368" height="70.0085" filterUnits="userSpaceOnUse" color-interpolation-filters="sRGB">
<feFlood flood-opacity="0" result="BackgroundImageFix"/>
<feColorMatrix in="SourceAlpha" type="matrix" values="0 0 0 0 0 0 0 0 0 0 0 0 0 0 0 0 0 0 127 0" result="hardAlpha"/>
<feOffset dx="2" dy="3"/>
<feGaussianBlur stdDeviation="4"/>
<feColorMatrix type="matrix" values="0 0 0 0 0.313726 0 0 0 0 0.333333 0 0 0 0 0.835294 0 0 0 0.5 0"/>
<feBlend mode="normal" in2="BackgroundImageFix" result="effect1_dropShadow_569_11"/>
<feBlend mode="normal" in="SourceGraphic" in2="effect1_dropShadow_569_11" result="shape"/>
</filter>
<filter id="filter5_d_569_11" x="144.169" y="125.355" width="114.349" height="50.6614" filterUnits="userSpaceOnUse" color-interpolation-filters="sRGB">
<feFlood flood-opacity="0" result="BackgroundImageFix"/>
<feColorMatrix in="SourceAlpha" type="matrix" values="0 0 0 0 0 0 0 0 0 0 0 0 0 0 0 0 0 0 127 0" result="hardAlpha"/>
<feOffset dx="2" dy="3"/>
<feGaussianBlur stdDeviation="4"/>
<feColorMatrix type="matrix" values="0 0 0 0 0.313726 0 0 0 0 0.333333 0 0 0 0 0.835294 0 0 0 0.5 0"/>
<feBlend mode="normal" in2="BackgroundImageFix" result="effect1_dropShadow_569_11"/>
<feBlend mode="normal" in="SourceGraphic" in2="effect1_dropShadow_569_11" result="shape"/>
</filter>
<filter id="filter6_d_569_11" x="0.984009" y="45.3171" width="74.9759" height="99.1875" filterUnits="userSpaceOnUse" color-interpolation-filters="sRGB">
<feFlood flood-opacity="0" result="BackgroundImageFix"/>
<feColorMatrix in="SourceAlpha" type="matrix" values="0 0 0 0 0 0 0 0 0 0 0 0 0 0 0 0 0 0 127 0" result="hardAlpha"/>
<feOffset dx="2" dy="4"/>
<feGaussianBlur stdDeviation="4"/>
<feColorMatrix type="matrix" values="0 0 0 0 0.313726 0 0 0 0 0.333333 0 0 0 0 0.835294 0 0 0 0.5 0"/>
<feBlend mode="normal" in2="BackgroundImageFix" result="effect1_dropShadow_569_11"/>
<feBlend mode="normal" in="SourceGraphic" in2="effect1_dropShadow_569_11" result="shape"/>
</filter>
<filter id="filter7_d_569_11" x="130.572" y="0.290527" width="83.0673" height="67.2588" filterUnits="userSpaceOnUse" color-interpolation-filters="sRGB">
<feFlood flood-opacity="0" result="BackgroundImageFix"/>
<feColorMatrix in="SourceAlpha" type="matrix" values="0 0 0 0 0 0 0 0 0 0 0 0 0 0 0 0 0 0 127 0" result="hardAlpha"/>
<feOffset dx="2" dy="4"/>
<feGaussianBlur stdDeviation="4"/>
<feColorMatrix type="matrix" values="0 0 0 0 0.313726 0 0 0 0 0.333333 0 0 0 0 0.835294 0 0 0 0.5 0"/>
<feBlend mode="normal" in2="BackgroundImageFix" result="effect1_dropShadow_569_11"/>
<feBlend mode="normal" in="SourceGraphic" in2="effect1_dropShadow_569_11" result="shape"/>
</filter>
<filter id="filter8_d_569_11" x="64.0306" y="185.621" width="145.38" height="59.8601" filterUnits="userSpaceOnUse" color-interpolation-filters="sRGB">
<feFlood flood-opacity="0" result="BackgroundImageFix"/>
<feColorMatrix in="SourceAlpha" type="matrix" values="0 0 0 0 0 0 0 0 0 0 0 0 0 0 0 0 0 0 127 0" result="hardAlpha"/>
<feOffset dx="2" dy="4"/>
<feGaussianBlur stdDeviation="4"/>
<feColorMatrix type="matrix" values="0 0 0 0 0.313726 0 0 0 0 0.333333 0 0 0 0 0.835294 0 0 0 0.5 0"/>
<feBlend mode="normal" in2="BackgroundImageFix" result="effect1_dropShadow_569_11"/>
<feBlend mode="normal" in="SourceGraphic" in2="effect1_dropShadow_569_11" result="shape"/>
</filter>
<filter id="filter9_d_569_11" x="74.6163" y="193.553" width="44.2117" height="44.179" filterUnits="userSpaceOnUse" color-interpolation-filters="sRGB">
<feFlood flood-opacity="0" result="BackgroundImageFix"/>
<feColorMatrix in="SourceAlpha" type="matrix" values="0 0 0 0 0 0 0 0 0 0 0 0 0 0 0 0 0 0 127 0" result="hardAlpha"/>
<feOffset dx="2" dy="4"/>
<feGaussianBlur stdDeviation="4"/>
<feColorMatrix type="matrix" values="0 0 0 0 0.811765 0 0 0 0 0.392157 0 0 0 0 0.847059 0 0 0 0.5 0"/>
<feBlend mode="normal" in2="BackgroundImageFix" result="effect1_dropShadow_569_11"/>
<feBlend mode="normal" in="SourceGraphic" in2="effect1_dropShadow_569_11" result="shape"/>
</filter>
<filter id="filter10_d_569_11" x="113.03" y="193.553" width="44.2117" height="44.179" filterUnits="userSpaceOnUse" color-interpolation-filters="sRGB">
<feFlood flood-opacity="0" result="BackgroundImageFix"/>
<feColorMatrix in="SourceAlpha" type="matrix" values="0 0 0 0 0 0 0 0 0 0 0 0 0 0 0 0 0 0 127 0" result="hardAlpha"/>
<feOffset dx="2" dy="4"/>
<feGaussianBlur stdDeviation="4"/>
<feColorMatrix type="matrix" values="0 0 0 0 0.74902 0 0 0 0 0.431373 0 0 0 0 0.317647 0 0 0 0.5 0"/>
<feBlend mode="normal" in2="BackgroundImageFix" result="effect1_dropShadow_569_11"/>
<feBlend mode="normal" in="SourceGraphic" in2="effect1_dropShadow_569_11" result="shape"/>
</filter>
<filter id="filter11_d_569_11" x="152.336" y="193.553" width="44.2117" height="44.179" filterUnits="userSpaceOnUse" color-interpolation-filters="sRGB">
<feFlood flood-opacity="0" result="BackgroundImageFix"/>
<feColorMatrix in="SourceAlpha" type="matrix" values="0 0 0 0 0 0 0 0 0 0 0 0 0 0 0 0 0 0 127 0" result="hardAlpha"/>
<feOffset dx="2" dy="4"/>
<feGaussianBlur stdDeviation="4"/>
<feColorMatrix type="matrix" values="0 0 0 0 0.521569 0 0 0 0 0.819608 0 0 0 0 0.831373 0 0 0 0.5 0"/>
<feBlend mode="normal" in2="BackgroundImageFix" result="effect1_dropShadow_569_11"/>
<feBlend mode="normal" in="SourceGraphic" in2="effect1_dropShadow_569_11" result="shape"/>
</filter>
<filter id="filter12_d_569_11" x="270.012" y="30.2361" width="57.8253" height="46.3372" filterUnits="userSpaceOnUse" color-interpolation-filters="sRGB">
<feFlood flood-opacity="0" result="BackgroundImageFix"/>
<feColorMatrix in="SourceAlpha" type="matrix" values="0 0 0 0 0 0 0 0 0 0 0 0 0 0 0 0 0 0 127 0" result="hardAlpha"/>
<feOffset dx="2" dy="4"/>
<feGaussianBlur stdDeviation="4"/>
<feColorMatrix type="matrix" values="0 0 0 0 0.313726 0 0 0 0 0.333333 0 0 0 0 0.835294 0 0 0 0.5 0"/>
<feBlend mode="normal" in2="BackgroundImageFix" result="effect1_dropShadow_569_11"/>
<feBlend mode="normal" in="SourceGraphic" in2="effect1_dropShadow_569_11" result="shape"/>
</filter>
<linearGradient id="paint0_linear_569_11" x1="166.519" y1="204.76" x2="166.519" y2="-21.5472" gradientUnits="userSpaceOnUse">
<stop stop-color="#0083AC"/>
<stop offset="1" stop-color="#39D0FF"/>
</linearGradient>
<linearGradient id="paint1_linear_569_11" x1="225.228" y1="127.114" x2="117.289" y2="1.03434" gradientUnits="userSpaceOnUse">
<stop stop-color="#DE5D83"/>
<stop offset="1" stop-color="#EAAB71"/>
</linearGradient>
<linearGradient id="paint2_linear_569_11" x1="234.262" y1="58.3822" x2="234.262" y2="55.1244" gradientUnits="userSpaceOnUse">
<stop stop-color="#EBB02A"/>
<stop offset="0.17" stop-color="#ECB83C"/>
<stop offset="0.51" stop-color="#F0C75C"/>
<stop offset="0.8" stop-color="#F2D070"/>
<stop offset="1" stop-color="#F3D478"/>
</linearGradient>
<linearGradient id="paint3_linear_569_11" x1="240.886" y1="-3.00012" x2="240.886" y2="-3.00012" gradientUnits="userSpaceOnUse">
<stop stop-color="#EBB02A"/>
<stop offset="0.17" stop-color="#ECB83C"/>
<stop offset="0.51" stop-color="#F0C75C"/>
<stop offset="0.8" stop-color="#F2D070"/>
<stop offset="1" stop-color="#F3D478"/>
</linearGradient>
<linearGradient id="paint4_linear_569_11" x1="247.083" y1="-3.00012" x2="247.083" y2="-3.00012" gradientUnits="userSpaceOnUse">
<stop stop-color="#EBB02A"/>
<stop offset="0.17" stop-color="#ECB83C"/>
<stop offset="0.51" stop-color="#F0C75C"/>
<stop offset="0.8" stop-color="#F2D070"/>
<stop offset="1" stop-color="#F3D478"/>
</linearGradient>
<linearGradient id="paint5_linear_569_11" x1="115.226" y1="125.064" x2="115.226" y2="101.601" gradientUnits="userSpaceOnUse">
<stop stop-color="#39D0FF"/>
<stop offset="1" stop-color="#77DFFF"/>
</linearGradient>
<linearGradient id="paint6_linear_569_11" x1="129.04" y1="98.1596" x2="129.04" y2="89.6192" gradientUnits="userSpaceOnUse">
<stop stop-color="#EBB02A"/>
<stop offset="1" stop-color="#F3D478"/>
</linearGradient>
<linearGradient id="paint7_linear_569_11" x1="112.54" y1="131.704" x2="100.41" y2="118.384" gradientUnits="userSpaceOnUse">
<stop stop-color="#DE5D83"/>
<stop offset="1" stop-color="#EAAB71"/>
</linearGradient>
<linearGradient id="paint8_linear_569_11" x1="123.985" y1="166.224" x2="113.871" y2="154.531" gradientUnits="userSpaceOnUse">
<stop stop-color="#EBB02A"/>
<stop offset="1" stop-color="#F3D478"/>
</linearGradient>
<linearGradient id="paint9_linear_569_11" x1="165.143" y1="124.131" x2="165.143" y2="111.541" gradientUnits="userSpaceOnUse">
<stop stop-color="#DE5D83"/>
<stop offset="1" stop-color="#EAAB71"/>
</linearGradient>
<linearGradient id="paint10_linear_569_11" x1="166.97" y1="111.807" x2="166.97" y2="82.7118" gradientUnits="userSpaceOnUse">
<stop stop-color="#EBB02A"/>
<stop offset="1" stop-color="#F3D478"/>
</linearGradient>
<linearGradient id="paint11_linear_569_11" x1="199.344" y1="123.356" x2="199.344" y2="113.307" gradientUnits="userSpaceOnUse">
<stop stop-color="#39D0FF"/>
<stop offset="1" stop-color="#96E6FF"/>
</linearGradient>
<linearGradient id="paint12_linear_569_11" x1="204.257" y1="105.933" x2="204.257" y2="83.1284" gradientUnits="userSpaceOnUse">
<stop stop-color="#B666EA"/>
<stop offset="1" stop-color="#E9ABDC"/>
</linearGradient>
<linearGradient id="paint13_linear_569_11" x1="233.545" y1="129.921" x2="233.545" y2="74.0215" gradientUnits="userSpaceOnUse">
<stop stop-color="#8886FA"/>
<stop offset="1" stop-color="#8886FA" stop-opacity="0.3"/>
</linearGradient>
<linearGradient id="paint14_linear_569_11" x1="242.32" y1="122.206" x2="242.32" y2="103.301" gradientUnits="userSpaceOnUse">
<stop stop-color="#80C3E7"/>
<stop offset="1" stop-color="#A3FFEC"/>
</linearGradient>
<linearGradient id="paint15_linear_569_11" x1="242.32" y1="103.634" x2="242.32" y2="68.0307" gradientUnits="userSpaceOnUse">
<stop stop-color="#80C3E7"/>
<stop offset="1" stop-color="#A3FFEC"/>
</linearGradient>
<linearGradient id="paint16_linear_569_11" x1="199.344" y1="194.203" x2="199.344" y2="119.481" gradientUnits="userSpaceOnUse">
<stop stop-color="#8886FA"/>
<stop offset="1" stop-color="#8886FA" stop-opacity="0.3"/>
</linearGradient>
<linearGradient id="paint17_linear_569_11" x1="219.664" y1="162.383" x2="199.046" y2="126.543" gradientUnits="userSpaceOnUse">
<stop stop-color="#EBB02A"/>
<stop offset="1" stop-color="#F3D478"/>
</linearGradient>
<linearGradient id="paint18_linear_569_11" x1="173.735" y1="155.251" x2="170.564" y2="141.168" gradientUnits="userSpaceOnUse">
<stop stop-color="#80C3E7"/>
<stop offset="1" stop-color="#A3FFEC"/>
</linearGradient>
<linearGradient id="paint19_linear_569_11" x1="36.4719" y1="157.684" x2="36.4719" y2="-52.984" gradientUnits="userSpaceOnUse">
<stop stop-color="#8886FA"/>
<stop offset="1" stop-color="#8886FA" stop-opacity="0.3"/>
</linearGradient>
<linearGradient id="paint20_linear_569_11" x1="41.2351" y1="119.165" x2="34.9331" y2="102.738" gradientUnits="userSpaceOnUse">
<stop stop-color="#80C3E7"/>
<stop offset="1" stop-color="#A3FFEC"/>
</linearGradient>
<linearGradient id="paint21_linear_569_11" x1="60.8548" y1="108.858" x2="20.7207" y2="59.0787" gradientUnits="userSpaceOnUse">
<stop stop-color="#DF6891"/>
<stop offset="1" stop-color="#DF8CE0"/>
</linearGradient>
<linearGradient id="paint22_linear_569_11" x1="56.9675" y1="104.942" x2="22.6311" y2="62.3516" gradientUnits="userSpaceOnUse">
<stop stop-color="#DF6891"/>
<stop offset="1" stop-color="#DF8CE0"/>
</linearGradient>
<linearGradient id="paint23_linear_569_11" x1="170.106" y1="71.0554" x2="170.106" y2="-58.7416" gradientUnits="userSpaceOnUse">
<stop stop-color="#8886FA"/>
<stop offset="1" stop-color="#8886FA" stop-opacity="0.3"/>
</linearGradient>
<linearGradient id="paint24_linear_569_11" x1="170.106" y1="9.53136" x2="170.106" y2="39.6351" gradientUnits="userSpaceOnUse">
<stop stop-color="#BEABFB"/>
<stop offset="1" stop-color="#BEABFB" stop-opacity="0.1"/>
</linearGradient>
<linearGradient id="paint25_linear_569_11" x1="153.006" y1="45.7426" x2="150.291" y2="40.7741" gradientUnits="userSpaceOnUse">
<stop stop-color="#EBB02A"/>
<stop offset="1" stop-color="#F3D478"/>
</linearGradient>
<linearGradient id="paint26_linear_569_11" x1="162.599" y1="45.7426" x2="159.884" y2="40.7741" gradientUnits="userSpaceOnUse">
<stop stop-color="#EBB02A"/>
<stop offset="1" stop-color="#F3D478"/>
</linearGradient>
<linearGradient id="paint27_linear_569_11" x1="171.833" y1="45.7426" x2="169.118" y2="40.7741" gradientUnits="userSpaceOnUse">
<stop stop-color="#EBB02A"/>
<stop offset="1" stop-color="#F3D478"/>
</linearGradient>
<linearGradient id="paint28_linear_569_11" x1="181.418" y1="45.7426" x2="178.711" y2="40.7741" gradientUnits="userSpaceOnUse">
<stop stop-color="#EBB02A"/>
<stop offset="1" stop-color="#F3D478"/>
</linearGradient>
<linearGradient id="paint29_linear_569_11" x1="190.618" y1="45.7426" x2="187.904" y2="40.7741" gradientUnits="userSpaceOnUse">
<stop stop-color="#EBB02A"/>
<stop offset="1" stop-color="#F3D478"/>
</linearGradient>
<linearGradient id="paint30_linear_569_11" x1="134.721" y1="241.588" x2="134.721" y2="197.728" gradientUnits="userSpaceOnUse">
<stop stop-color="#8886FA"/>
<stop offset="1" stop-color="#8886FA" stop-opacity="0.3"/>
</linearGradient>
<linearGradient id="paint31_linear_569_11" x1="94.7221" y1="234.497" x2="94.7221" y2="199.744" gradientUnits="userSpaceOnUse">
<stop stop-color="#DF6891"/>
<stop offset="1" stop-color="#DF8CE0"/>
</linearGradient>
<linearGradient id="paint32_linear_569_11" x1="133.136" y1="234.497" x2="133.136" y2="199.744" gradientUnits="userSpaceOnUse">
<stop stop-color="#DE5D83"/>
<stop offset="1" stop-color="#EAAB71"/>
</linearGradient>
<linearGradient id="paint33_linear_569_11" x1="172.442" y1="234.497" x2="172.442" y2="199.744" gradientUnits="userSpaceOnUse">
<stop stop-color="#80C3E7"/>
<stop offset="1" stop-color="#A3FFEC"/>
</linearGradient>
<linearGradient id="paint34_linear_569_11" x1="296.925" y1="73.7634" x2="296.925" y2="-3.07493" gradientUnits="userSpaceOnUse">
<stop stop-color="#8886FA"/>
<stop offset="1" stop-color="#8886FA" stop-opacity="0.3"/>
</linearGradient>
<linearGradient id="paint35_linear_569_11" x1="262.999" y1="134.254" x2="269.396" y2="125.457" gradientUnits="userSpaceOnUse">
<stop stop-color="#E098B1"/>
<stop offset="1" stop-color="#ECB4C0"/>
</linearGradient>
<linearGradient id="paint36_linear_569_11" x1="276.254" y1="139.353" x2="277.478" y2="150.677" gradientUnits="userSpaceOnUse">
<stop stop-color="#D1719E"/>
<stop offset="1" stop-color="#E098B1" stop-opacity="0.3"/>
</linearGradient>
<linearGradient id="paint37_linear_569_11" x1="243.73" y1="138.245" x2="247.809" y2="128.477" gradientUnits="userSpaceOnUse">
<stop stop-color="#E9A8BC"/>
<stop offset="1" stop-color="#F0C6C7"/>
</linearGradient>
<linearGradient id="paint38_linear_569_11" x1="267.112" y1="131.738" x2="264.365" y2="146.545" gradientUnits="userSpaceOnUse">
<stop stop-color="#D1719E"/>
<stop offset="1" stop-color="#E098B1" stop-opacity="0.3"/>
</linearGradient>
<linearGradient id="paint39_linear_569_11" x1="290.51" y1="211.134" x2="273.268" y2="211.852" gradientUnits="userSpaceOnUse">
<stop stop-color="#0287B1"/>
<stop offset="1" stop-color="#39D0FF"/>
</linearGradient>
<linearGradient id="paint40_linear_569_11" x1="282.052" y1="216.85" x2="271.853" y2="239.355" gradientUnits="userSpaceOnUse">
<stop stop-color="#39D0FF"/>
<stop offset="1" stop-color="#39D0FF" stop-opacity="0.3"/>
</linearGradient>
<linearGradient id="paint41_linear_569_11" x1="302.414" y1="209.376" x2="284.275" y2="215.429" gradientUnits="userSpaceOnUse">
<stop stop-color="#028FBC"/>
<stop offset="1" stop-color="#39D0FF"/>
</linearGradient>
<linearGradient id="paint42_linear_569_11" x1="276.588" y1="168.599" x2="299.761" y2="168.599" gradientUnits="userSpaceOnUse">
<stop stop-color="#39D0FF"/>
<stop offset="1" stop-color="#39D0FF" stop-opacity="0.3"/>
</linearGradient>
<linearGradient id="paint43_linear_569_11" x1="293.997" y1="101.551" x2="290.984" y2="83.4273" gradientUnits="userSpaceOnUse">
<stop stop-color="#0092BF"/>
<stop offset="1" stop-color="#39D0FF"/>
</linearGradient>
<linearGradient id="paint44_linear_569_11" x1="292.933" y1="101.725" x2="289.92" y2="83.6095" gradientUnits="userSpaceOnUse">
<stop stop-color="#009CCD"/>
<stop offset="1" stop-color="#39D0FF"/>
</linearGradient>
<linearGradient id="paint45_linear_569_11" x1="297.109" y1="109.949" x2="283.124" y2="104.314" gradientUnits="userSpaceOnUse">
<stop stop-color="#E9A8BC"/>
<stop offset="1" stop-color="#F0C6C7"/>
</linearGradient>
<linearGradient id="paint46_linear_569_11" x1="290.293" y1="111.491" x2="287.962" y2="117.417" gradientUnits="userSpaceOnUse">
<stop stop-color="#D1719E"/>
<stop offset="1" stop-color="#E098B1" stop-opacity="0.3"/>
</linearGradient>
<linearGradient id="paint47_linear_569_11" x1="299.528" y1="146.561" x2="279.147" y2="138.262" gradientUnits="userSpaceOnUse">
<stop stop-color="#EBB040"/>
<stop offset="1" stop-color="#F3D478"/>
</linearGradient>
<linearGradient id="paint48_linear_569_11" x1="284.154" y1="110.533" x2="336.915" y2="148.693" gradientUnits="userSpaceOnUse">
<stop stop-color="#F3D35B"/>
<stop offset="1" stop-color="#EBB02A" stop-opacity="0.3"/>
</linearGradient>
<linearGradient id="paint49_linear_569_11" x1="261.948" y1="128.788" x2="308.083" y2="162.167" gradientUnits="userSpaceOnUse">
<stop stop-color="#F3D35B"/>
<stop offset="1" stop-color="#EBB02A" stop-opacity="0.3"/>
</linearGradient>
<linearGradient id="paint50_linear_569_11" x1="268.071" y1="123.622" x2="319.999" y2="161.191" gradientUnits="userSpaceOnUse">
<stop stop-color="#F3D35B"/>
<stop offset="1" stop-color="#EBB02A" stop-opacity="0.3"/>
</linearGradient>
<linearGradient id="paint51_linear_569_11" x1="273.293" y1="113.741" x2="371.314" y2="184.663" gradientUnits="userSpaceOnUse">
<stop stop-color="#F3D35B"/>
<stop offset="1" stop-color="#EBB02A" stop-opacity="0.3"/>
</linearGradient>
<linearGradient id="paint52_linear_569_11" x1="280.317" y1="127.78" x2="354.541" y2="181.487" gradientUnits="userSpaceOnUse">
<stop stop-color="#F3D35B"/>
<stop offset="1" stop-color="#EBB02A" stop-opacity="0.3"/>
</linearGradient>
<linearGradient id="paint53_linear_569_11" x1="273.585" y1="135.946" x2="366.346" y2="203.054" gradientUnits="userSpaceOnUse">
<stop stop-color="#F3D35B"/>
<stop offset="1" stop-color="#EBB02A" stop-opacity="0.3"/>
</linearGradient>
<linearGradient id="paint54_linear_569_11" x1="274.219" y1="147.494" x2="359.72" y2="209.353" gradientUnits="userSpaceOnUse">
<stop stop-color="#F3D35B"/>
<stop offset="1" stop-color="#EBB02A" stop-opacity="0.3"/>
</linearGradient>
<linearGradient id="paint55_linear_569_11" x1="284.246" y1="134.762" x2="245.466" y2="188.397" gradientUnits="userSpaceOnUse">
<stop stop-color="#E27A1E"/>
<stop offset="1" stop-color="#E27A1E" stop-opacity="0.3"/>
</linearGradient>
<linearGradient id="paint56_linear_569_11" x1="254.683" y1="132.829" x2="292.478" y2="119.437" gradientUnits="userSpaceOnUse">
<stop stop-color="#F9EC8A"/>
<stop offset="1" stop-color="#EBB02A" stop-opacity="0.3"/>
</linearGradient>
</defs>
</svg>
